<mxfile host="app.diagrams.net" modified="2022-10-15T17:27:12.554Z" agent="5.0 (Windows NT 10.0; Win64; x64) AppleWebKit/537.36 (KHTML, like Gecko) Chrome/103.0.0.0 Safari/537.36" etag="pDbda8edYwYdDA_U1MZK" version="20.4.1" type="github">
  <diagram id="R2lEEEUBdFMjLlhIrx00" name="Page-1">
    <mxGraphModel dx="2031" dy="1089" grid="0" gridSize="10" guides="1" tooltips="1" connect="1" arrows="1" fold="1" page="1" pageScale="1" pageWidth="3300" pageHeight="4681" math="0" shadow="0" extFonts="Permanent Marker^https://fonts.googleapis.com/css?family=Permanent+Marker">
      <root>
        <mxCell id="0" />
        <mxCell id="1" parent="0" />
        <mxCell id="7mlWn5VUBdd1nZEI_POm-1" value="" style="shape=image;verticalLabelPosition=bottom;labelBackgroundColor=default;verticalAlign=top;aspect=fixed;imageAspect=0;image=data:image/png,iVBORw0KGgoAAAANSUhEUgAAA0AAAAG0CAYAAAAb/0dkAAAgAElEQVR4nOzdd1QT2dsH8C9FOkhRUKxYsJcFFV0LrgULunZde+8NCyr2XpBi72XVVRQVdWVdV9Fde8GCIlgBQVRUkBoIEJj3D97Mj2GSEEIKyPM5J+eQKXeeCZPJ3Jl7n6sFgIEGLVy4EHZ2dpxp3759w7JlyzQUEVGG5cuXw9bWljc9PT0dS5YsQUZGhgaiUh43NzfUr19frmUfP36M/fv3qzgiQoquWrVqWLJkiVzLbtq0CVFRUSqOiKhSjx490KdPH4nz/Pz8cOPGDTVHpBoVKlTA2rVrOdP++usvXLx4UUMREUJKinPnzqFv377QBYBBgwahdu3aGglk2rRpqFatGmdaQkICBAKBRuIpK/bs2YOkpCQAQNu2bdG+fXullj99+nRYW1vzpmdkZCAlJQVCoVCp21O3CRMmyP2dCQ0NhZWVlYojKluuXr2Kx48fs+8NDAwwdepU6OvrazCq0qdy5cqYPHmyXMuKRCLExsaqOCKiSr/88gtcXFwkzqtUqRLatGmj5ohUw8LCgndc16lTB40aNdJQRP/z5csXHD58mH3fv39/2Nvbq2Xb0dHR8PPzkzivSZMmcHV1VUscmpKQkMC7Gens7Cz3cZ+cnIzdu3dzpqni+klRmZmZ2L17N+/6qk6dOhg4cKCGotKsN2/eICAgQOI8LQBMYGDgD3/gE67atWsjMjISALBs2TKsXr1awxERIr9Zs2Zh+/bt7HsLCwtERUWhfPnyGoyKEEJkCwkJwU8//cS+DwgIQL9+/dSy7bCwMKxZs0bivI4dO2LKlClqiUNTPn/+jDlz5nCm/fbbb+jbt69c679//57TYsnJyQnz5s3DoEGDlBqnojIyMjBjxgzeAwRHR0e4u7trKCrNCg4Ohre3N7KzsxEYGIisrCzuEyBCCCGEEPLjatSoEU6ePKnpMDSmcuXKSt3/KVOmlJjKDwAYGhri4MGDmg6jRGnZsiVOnjyJpKQk2NnZISsri52nrcG4CCGEEEIIIUStqAJECCGEEEIIKTOoAkQIIYQQQggpM6gCRAghhBBCCCkzKAkCIYQQQggh5Ie3f/9+mJub0xMgQkjp07lzZ/zyyy+aDoMQQgghpcilS5cQEhJCFSBCSOnTp08f9O7dW9NhEEJIkZibm6NPnz7Q09PTdCiElGlUASKEEEIIUYOaNWviyJEjMDY21nQohJRpVAEihBBCCCFEBh0dHVhZWUFHR0fToRAloAoQIYQQQgghMlStWhVRUVGoVq2apkMhSkAVIEIIIYQQQmTQ0tKCqakptLS0NB0KUQKqABFCCCGEEELKDKoAEUIIIYQQQsoMqgARQgghhBBCygyqABFCCCGEEFIET58+xatXrzQdBlEQVYAIIYQQQggpgm3btsHPz0/TYRAF6Wo6AHXJzMyEUCjkTDM1NYW2tvx1QJFIBIFAIHV+uXLlYGRkpHCMhBBSFqWmpiI3N5c3XVtbG6amphqISDFCoRCZmZkA8sYMMTEx0XBEhBBCJCkzFaCdO3di3bp1nGkPHz5E7dq15S7j77//xpgxY6TOd3V1xdGjRxWOkRBCyqL27dvjw4cPvOlVq1ZFSEhIqUk7u3HjRmzfvh0AUK9ePdy9e1fDERFCCJGkzDSBy8jIwPfv3zmvX3/9Fffv35e7jPbt22P79u28csSvtLQ0Fe4BIYT8eBiGQXJyssRzanJyMhiG0XSIclm4cCH27NnDxh4SEoK2bdsiMTFR06ERQggpoMxUgCQJDw9HSkqK3Mubm5ujZ8+eOHLkCAwNDVUYGSGEkNIkMjISX758Yd9nZGQgJCQE2dnZGoyKEEKIJGW6AqQIc3NzuLq6Qle3zLQeJIQQldHS0sLSpUtRp04dTYdCCCGkjCjTFaCRI0eievXqmg6DEELKtPHjx6Nq1aqaDqNYevToAQcHB/a9paUlpk6dSolxCCGkBCozjzHq1q2L3r17c6Zt3LgRtra2GoqIEELIj2LcuHHQ1tZGQEAAAKBatWrw8vLScFSkpHv06BGaN28OOzs7TYdCSJlSZipAgwcPxuDBgzUdBiGEkBLq8+fPSEhIYN/r6OigXr16cg+XMGbMGJmZQgkpaP369ahQoQLmzJmj6VAIKVN0gbyxC0QiUano15KTk8MbzwcA9PT0UK5cOYnrZGZmQiQSSZxnYGAAHR0difMyMjIkjk2Rnp5ehIiJsqWnpxc5M5SOjg4MDAxkLsMwjNz/W0nHjbT1dXV1oa+vz5kmFAqRk5MjdT4AZGVl8TpQGxsbyxWftPXF9PX1S8X3nRBZCvvOamlpydUETXyuX7NmDXbv3s1Ot7CwQFRUFMqXL19oGQV/Z7S1tXnJcmR9JwtD31miarm5ucjIyJA4T9rvVEFF+R3NT9pvdGHfGVnXfj+64l4jyEvSdbe85yORSMSOjSaJvMeVKugCee2vk5OTMW7cOI0EURT3799Hv379eNPd3d3h7u4ucR0PDw/88ccfEuf5+/ujY8eOEue5uLjg9evXvOm5ubkyB0QlqpORkYEWLVogPj6+SOs5Ozvj9OnTMpeJjY2Fo6OjXOWdPXsW7du350z79u0bHBwckJWVxZnet29f7Nu3jzNt/PjxuHr1KgCgd+/eOHjwIG8bq1ev5qxXvnx5PH78GGZmZnLFuHHjRuzYsUPivH379qFv375ylUNISfX161c4ODhIvUCytrbGo0ePCr350b17d7x8+bJYQxlMmzYNFy9eZN/Xq1cPt27d4izj6emJbdu2KVT+jh07qBUDUakHDx6gT58+EucNHjxY6u9Jft++fUOLFi0k3qiWxdXVFYcPH+ZNX7NmDfbu3St1vVWrVmHq1KlF2taPorjXCPK6ffs2Bg0axJm2e/duDBgwoNB1z549i5kzZ0qdP2jQIOzcubPYMSpCFwCSk5Ol1vpLksDAQLi7u+Pbt2+8eVu3bmUvcCtVqoQLFy6wg+elpqZKXAcA72I1LCwMY8eOBQC8ePGiVHwuZQnDMEhISJD6/5Tm6tWrGDBgAM6ePStx/pMnTzBu3Di5y504cSI2bdrE+bHIyclBfHw8725HQEAAQkJCONPevn2LpKQkAMD58+cRGhrK20ZMTAwnnsTERPzyyy/w8/ODvb291NjGjBmD8PBwxMbGSt2f+fPnIzk5GaNHjy58ZwkpgUJDQzFq1CjExcVJfFIPAElJSWjXrh20tbWxdetWtGnThjM/OTkZffv2xaNHjyTetU5NTUWnTp2kthIwNjbG+fPnMXv2bFy8eBHfv39n56WlpaFDhw64cOECLCwsAAACgaDI5y4xDw8PpKamYvz48QqtT4g0Bw4cwL59+2ReK506dQpZWVm8m3n5vXjxAiNHjsTHjx+lfielkTQkyYIFC3Ds2DGZ35kNGzZAIBBg/vz5Rdpeaefu7s77bMTXCNLOV/lt2LABL1++xNGjRwtdNiUlhfc/WLBggcwHJ6tXr0ZgYGCh12v+/v7Izs6WeVypEgOA2bFjB1OS+fv7My1btmTE8cp6Va9encnJyWHXnTBhgtRl//nnH3a5u3fvMp07d+YtM2HCBMbf35/x9/dnNm7cKLWsfv36aeKjUUitWrXYuJctW6bpcOQmEAgYa2truY6Dgi9TU1Pmt99+YxISEjhl/vvvv0zHjh15y0+bNo3x9/dnZsyYIbG8/fv3c8rJyMhgzp49y9ja2ioUn7yvrl27Mg8fPuR9NkKhkJkwYQJjaWnJWd7BwYHx9/dnjh8/zpibm7PTmzZtyuzbt0+l/y9V8vHxYffFwsKCSUpK0nRIpBgkfQdr1KjBOZczDMMEBAQwgwcPZjp16sRZdunSpex52s3NjVdW+/btmStXrrDlREREMH369GHKlSvHWa5Xr16Mv78/4+npKdc5JT4+nmnRooXE+UZGRsyXL1/YbT5//pyZNGmSwt/9VatWqe3/QVQnKSmJsbCwYP+vPj4+Gotl586dTKNGjdhYrK2tGX9/f8bGxoZ3/FWsWJGZMmUK7zvJMAxz584diddP8rx69+7N3L17l1PeggULmCpVqrDLtGzZkvH392eOHj3KmJqactavW7cus3HjRnV9ZIydnR277eXLl6ttu2Lz58/nfDYAmJo1azK///47Y2JiItdn7u/vzzx//lzm9XFhr8aNGzN79uzhxbdy5UrOZ9SwYUP23Ozv7880adJE4nElEolU9pklJiZyrn98fX0ZiN+U9ArQ8uXLOR+YlpYW4+HhwXh6ejKenp6Mi4sLO69gBejy5ctM9+7dJf4D81eATp48KXGZnTt3ssvExcUxK1euZAwMDHjL2dvbM1u2bFHr56Koffv2MXXq1GGA0lUBys7OZnbs2MFUr15doS+srq4u8+HDB06Zhw4dkrjs4cOHGYZhmKNHj0qcX7ACJFavXj2FTyji15gxY5h27dpJnd+vXz/m1q1bnO2mpaUxFStW5C3bs2dPhmHyKmiVKlXizGvevDlz4MABFfynVI8qQD8WeStAa9euVfhcvmvXLnaZ4OBgicvMnTuXYRiG+fLlC7Nq1SrG0NBQ4nKVK1dmtmzZwmRkZDBHjx5lmjZtylumYAWIYRhm7969Cp8X2rVrx/j7+6vwv0DUoaRUgPbs2cM0btyYc4zVrFmTyc3N5Vwj5H+Zmpoy8+fPZ+Lj49lyrl+/zvTu3Zu37Pjx49lrtBEjRkg9rufNm8eWlZ6ezqxYsYJXAevTpw/DMAyTlZXFbN++nalatSpnfq9evdT2uWm6AiTpXNO8eXMmMzOT2bZtG69yVPA1a9Ys5tWrVwzDMMyuXbuKda0i6Uaqs7MzZxlnZ2fOfEkV5apVqzJZWVkq+8wkVYBKxThA169fx6NHj3jTjY2NMXz4cLi7u6Nt27ZS1+/WrRvatWunlFhsbGwwY8YMiZ3u3rx5gyNHjihlO6o2ceLEUjkGkq6uLqZPn47KlSvz5llYWGDatGnsS1YzMWX477//8PDhQ7mXNzIywqRJkzBt2jTUqFFD5rL9+vXD7NmzpR63586dQ3BwMPv++/fvOHDgQJHbXYeEhMDf379I6xCiKdK+c8OHD0e1atUKXf/WrVu4f/8+IiMjpTaHFbO2tsasWbOkdtCtWLEiZs+eDQMDA4wcOVIp5xsnJyf2/DVixAje/Nu3b+Pvv/8u9nYIAQA/Pz+8ePFC4jxp1wipqanw8vLiNPe8f/8+p/+b2MCBA9n+2b/++qtcMQmFQmzduhVfvnyROL9cuXKYMWMGbGxsONOjo6Nx6tQpubZRWmVmZuLgwYOczz4/PT09zJw5EzNmzECtWrWkljNy5EjUq1ev0O21bt2ac001ZcoUmJiYcJZ5/vx5oZ/7p0+fpPbDFxMIBNi7dy+Sk5MLjUtZSkVKmd9//x2XLl3iTGMYBkuXLoWenh6GDRuGunXrolmzZnj27JmGoiSaZmNjw+lMN3z4cLx580Zl2zt+/Dhq1qyJVq1aybW8qakpfH19YWRkhOjoaERHR0tcrn379rCxsYGTkxNiY2Nx+/btQsv+9OkT3NzcpM4XCAS4du0ar88bISWZUCjE5cuX8csvv8DQ0BDHjx/Hn3/+yVtuxYoVqFu3bqHl+fn5oWrVqmjVqhU2btyoipCLpXfv3liyZAkAIDIystCLBkJ+JCkpKQgKCpKYtffr16+4fPkyZ9n8QkNDsWbNGgwZMkTlcWqKQCDA3LlzJfaXym/RokUIDg5GZGRksbbXp08fLFq0iH2fnZ2NwMDAIieLefv2LZYuXYrhw4ezffMLSkxMxMyZM9GtWze5sm4qQ6moAMmyYMECiEQi9OvXD1OmTMG2bdtQuXJlqR+yNN+/f8enT59UFCUpyczNzVGjRg1eheTz58949eoVPn/+rPRtVqtWDZaWlhLv5OzcuRNNmjRR2rYEAgFu3LghNbsPISXVly9f4OrqioiICJl3NAsyMzNDzZo18f79exVGRwhRpoiICKmZDu/du4cePXqoOSIij/T0dERERKB27doS5xsbG6NOnTrQ0tJCREREiRlKplQ0gSssz/vixYvRoEED3LlzB0+ePMGlS5eKXAHav38/5s6dW9xQSSnUr18/HDt2DIaGhjA0NGQHPRQfVwsXLlT6Nnfv3o2hQ4cqvVxJbty4AVdXV7Vsi5CSoEePHjh58qTU+To6Opobe0KD414Qkp++vj4MDQ0511cMw0AoFEIoFBY5k5smafI7rS5aWlowMDCQe2Bmdbl37x5cXFzY9+LjytDQEHp6enBwcEBgYCCEQiFcXFxw7949DUb7PyXrU5TC29sbs2bNKnS5s2fPws7ODu3atSvyQJmkbHNyckJUVBSioqJQtWpVTYdDCFGhnj174sKFCxrZ9tChQ0tNX1HyY/Pz80NUVBRmz57NTvv48SNq1aoFOzu7EnOhKo9OnTrhypUrmg5DpczNzREaGor69etrOhSZxMdVVFQUNm/ejAcPHsDOzg52dnaIiYnRdHisUtEErnz58nBzc4OhoSHWrl0rdbmMjAxkZGRAT08PDMMU+SkQKbvEx0z//v3x9etXTYejNAMGDCh0fARzc3M1RUNIyaCvr4927drh8uXLGDBgAGdg65MnT7IXfiKRSGJ79/bt28s1KKQkhoaG7LhAhGiSpaUlAHA6totEIsTFxSml/Llz5yIjI0Pi4PVi8+bNk+sGd4cOHbBp0yap8y0sLGBlZaVQnKWFlpYWrK2toavLv3R/+/YtXFxcEBAQwEtUIGZkZISAgAA0aNBApXGKj6tDhw5h+/btyMrKUtoxpShTU1NcvXqV0ze8VFSAAKBq1aoYN24ctLS0sGbNGpnLJiQkYPjw4di6dSusra3VFCEpzV6+fIlFixbx7ngNGDAANjY22LVrl4YiK57nz5/j5s2bWLBggaZDIaREMTY2RosWLXjNST59+iSzP2j37t2xePFiNG3aVNUhElIq9OnTB3Fxcdi2bRtn+suXL7FhwwacPn0aHz584K3n7u4ud0ZaCwsLtG7dWmkxl2abNm3CsmXLONmRBQIBgoODIRKJsGTJEk6WWACoXr06vL298csvv0BPT0/lMe7duxc7d+7Eu3fvONO3bt2K/fv3S80+qCo6Ojpo0aIFjIyM2GmlogmcmJ2dHSZMmAB3d3eZywkEApw8ebJImSqcnZ3V1ieDlCyPHz/GunXreNmlBg4cCDc3t1J90n379i1u3Lih6TAI+WHY29ujffv2mg6DkGLbv38/Fi9ejGvXrhWrnIYNG6JNmzYS5wUHB8PPz4+XzdTNzQ2TJk2SK3sjkFeZ2r59e7Hi/FF0794dVapU4U0XCoVYs2YNDh06xKtwli9fHgMHDlRL5Wf//v3YtWsXQkND2WkWFhZYv349Ro0axUthriml5gnQ48eP8eTJE9ja2mLhwoWcXOE3btzA69evi1V+69atER0dDT8/P968O3fuwNHREU5OTsXaBimZnj9/juPHj/Omu7q6ol27doiKitJAVMrz4cMHnD59GoMGDeJMDw4ORkhICKpWrVrqs+tkZWXhyJEjGDFiBPv4nfx4OnTogGfPnvHubsqrXbt2hd7QaNq0KbtMVlYW/Pz8kJmZCRcXF9SsWRM///yzQtsmpKQ5fvw47waZqakp52bwzZs38erVK6Vsz9raGn379gWQl8G34Hh+FSpUwJgxY9jvXH5v3rzB5s2b2fjyJzwIDw/HnTt3YGFhgYEDByol1tKmQoUK6NWrF3bu3Ml+dm3atGEzykqqMClLlSpV2GPGz88PXl5evCFIzMzMsGjRohLVNaVUVIBevHiBLVu24I8//kDz5s2xfft27N27l53v4+OD3bt38x61yePJkydo1KiRzIPjxIkTqFKlCpycnJCamor//vsPOTk5Cu0LKT3CwsJw9epVtT+qVbbQ0FDMnz+f19fn0KFDOHnyJFxcXEp9BUggEGD27NlwdnamCtAPbOTIkYiJieFVgO7cuQNLS0u2D8CXL18kDpg6bNgw9O/fH0DeOCKSzuVdunSBt7c3UlNTcePGDXz//h1CoRArVqygyg/54VlZWWHPnj3Q0tLC48ePERMTo3AFyMHBARUqVGDf16tXj9dMLr9q1arBx8cH58+f51WAgLybeTNmzICZmRlMTU3Z6X/++SdOnTqFvn37ltkKUNWqVbFz506kpKSwrZ8mT57Mnu9UqX79+li7di0YhoGHh4fEMQ6FQiGuXr0KLS0tqQO5qlupqAB5enqyA8KFhIRg+PDhCAoKgp2dHXR1dTF37lykpaVhxYoVRS7bw8MDlpaWmDRpEkxNTVG9enWJWSoSExPx9u1bhIWFldkv2I8iKioKFSpUgIGBgczlvLy84OXlpaao/icmJga1atWCsbGx3Ovo6+ujTp06eP/+vcRB5GJiYjhpKsXMzc0p6x0pVSwtLVGpUiVOp9qxY8fi0KFDGDBgAMzMzPDff//xOlZXqVKFcxPgzZs3Es/lSUlJePv2LV6+fIkxY8YgKioKycnJyMzMRFJSUpGShjAMg8jISJiZmRV6viGkJBCJRHj79i20tLQwc+ZMqZngoqOjUaVKFU6fioKmT5/Oay769u1b9m9bW1ve75yOjg5q166NsLAwCIVCXpkCgQADBgzgTe/Vqxf27dsnc99+FDExMZzELQCQmZmJuLg4nD59ukhpss3NzVGlShV8/PiRNy8hIQFfv35VSl/6L1++oFu3boUuJ89xpSylog+Qrq4udHR02PcxMTGoV68eoqOjIRKJIBKJOPnqtbS0UK5cOfZRW05Ojlz57Hv27IkzZ85w1hU7cOAA7O3tZWYzIeohEomkpjkXX/zn5ORIXEYkEqFDhw6czoPqJD5eCx6z+fXq1QtXrlyRuQwA5ObmsvPr1q2LZ8+ewdraWu6Tn46ODoYNG4aDBw8WfUcIUSJZ3+mC86dOnQofHx9eJqRx48bhxIkTEIlEvKc65cqVw8GDB+Xq53no0CHY29uzAweLRCL07dsX9vb2OHToEOc7LCbtfJORkYE2bdrg2bNn7DSGYaS2IMjNzZVYfn6y1iekuGJjY1GvXj3Y29vLTIPdtWtX3LlzR2ZZ48ePh729vdRXUFAQ73fOzMwMjx49QpMmTYr0WyYpM9qPqnfv3ggKCuJMe/nyJRwdHfH9+3fOOaTgq6ChQ4di//79Erfj5eWFpUuXylxfW1ub/ezF197FGadInuNKWUpFBUjaOEDt27dnc4v7+vqy021tbREREcFmFvHw8IC3t7dc22revDmCg4Ppbl0JJRQK0bJlS4SEhPDmRUREoH79+vj69SsGDhyosXE+pImPj0fDhg3ZY/bYsWNSl504cSLs7OxkZjxcu3YtVq5cyb43NDTEo0eP5M5OtWDBAqxbt07+HSBERdq3b4/79+9Lne/s7My5GOvbty/OnDnDW27x4sWws7Pj/V5cvXoVHTt2LHJcycnJaNq0KcLCwgAAa9asYb+/PXv2ZJf79ddf8ffff8tV5okTJzBq1CiJ87y9vdnynZ2dJS5z+vRpSthDfggTJkyAnZ0d1q9fz5sXGBgosdWCJKNGjcKBAweUHV6pk5KSgmbNmrHnkIKvxo0bIzExsUhlnjhxgl2/bt26vHTWQ4YMYVtoAcCtW7dKTX95bSCviZk62gkqysLCgtPeE8i7C/b582fExsYiNjYWKSkpAPIqMOfPn0e1atXYp0aJiYmcpAmylCtXDg0bNsS1a9dgZ2cnd4xDhgzB7du3cejQIbnXIUWXm5uLT58+ISsrizcvOzsbHz9+RE5ODr5+/Yr09HS5ynR1dVVLdpmcnBx8/PiRPWZlZSlMSEhAbGwskpKSpC6TlJTEma+lpYXKlSvj999/R6dOnWTGsnLlSkybNo3GACIaxzAM4uLiJLb5F4uLi+M0hzE0NESnTp1w/vx5zij2iYmJiI2NRUJCAoC8/gzXrl1Dq1atFBolvuD5Jikpif3+3r17F926dUNKSkqh55vJkyfj+vXrAPKa8MTHx0tcLjk5mS1f2rgZAoEA3759K/K+EKJMfn5+aNmyZbHKiI+PR2xsLPbs2YOlS5dy5llbW8PX1xeDBw+WWcaMGTOwdOnSH34MIHmIz1fic0jB17t379CjR48iJQ0TCATs+h8/fuQ8BZo4cSJWr17N6edVqVKlYmWaU8ZxJS9dIC+FYcFsHCXNgAEDYG9vX+hy1tbWaNGiBWfahAkTZN79K1hbLVeuHNq0aYNt27bJXXGqX78+HB0d5Vq2JJg3bx7Cw8M1HUaR6evrc7KcFKStrQ1zc3MsX75c6kUGkNcZU8za2hqDBg1SaHDCxo0b86Zt3ryZrZCrWv79EGvWrBlWrlyJcePGSV2vXbt21PeHlAhaWlrw9fXltWkvqFGjRpz3pqamcHFxwZEjR6Q2FTUwMICzszOnCbWyCAQC3Lt3D9nZ2Vi9enWhHXtr164NIG/E+vx3TBVRUtLIktJtyZIlyM3Nxa1bt9hpFStWhI+PD68bwJ07d7B7925YWlrC19cXrq6uvBvTivr48SNevnzJm16/fn0sWLAAv/76q9R1HRwcUKtWLaXE8aPLycnBgwcPMHfuXKxYsQKtWrWSufyQIUPQu3dvqfObNWuGOnXq8KYvWbIEEydOVChGZR5XhSk1jSabNm2q8MBzTk5OCj2S69Wrl0LbKw3Onz+v8ZF5FaGjoyNXEgp5OtvlZ2Njg+HDhysaFoesE4a60DglpDQRp8YtKkNDwxLRHKwoWRTr1Kkj8aKBEHXr2rUrhEIhp6mZubk5RowYwVu2WbNmsLW1hZmZGUaOHKm2dMaOjo6l6uZyaXDp0iWMGTOm0ApQ8+bNFbou6tq1q6KhqVWpqQARQog0+vr6GDx4MDWDIMXSpk0bNGzYkDf9/PnzbLM6Qn4kvXv3luumXePGjSW2eADyxtL777//lB0akVONGjXQpUsXZGVlwd/fX2ZzYvI/VAEihJR6RkZG2L59O8qXL7wfpa0AACAASURBVK/pUEgp8O3bN4mZIIcOHYqZM2fypuvq6uLdu3d4+/atxGESCCnL/vrrL87YjEDe4PKyhnJ48OCBzH6wRH4//fQTDhw4AIFAwBkHSCw+Pp6TiZLkoQoQIYSQMuXGjRuYOnUqb3pCQgKioqJ40xcuXAgAWLduHQ4ePAhjY2PY2NjAxMREJf2LyI8rKysL0dHRbL+1SpUq/ZA3btasWYO2bdvC0NCQnZaZmYlPnz4BQJE74xPp0tPTERUVBW1tbQQEBPDSUAcGBirUND8xMRHx8fGcJAc/EqoAEUIIKVO0tLSgra3NS56watUqrFq1qtB1u3btinPnzqkyRPKDCg8Px08//cS+37Vr1w85vmDXrl1x6dIldO/enZ327NkzXn9sLS0t9vtYGuQf70scu6ZduXIFtWvXhoWFBd69e8fL7lpwjDJtbW1O3NLGYPP09ERSUhLv6d6PgipAhBBCypQePXrgwoULCt0VHTNmDDZt2qSCqAj5sYwdO5YzpqKk4StWrVqF0aNHw8jISJ2hKSQ2Nhbt2rXDx48fAeRlfJ0wYYKGo8rTsGFD+Pv7o0OHDkhNTeXMy8jI4Ly/cOECO1TGH3/8gXnz5qktzpKEKkCEEELKFCMjI3Ts2LHQjttpaWkYOnQoe0ExY8YMuLm5oWLFiuoIk5BSYcSIERAKhVi9ejVn+pcvX6Su8/vvv6NmzZqoW7cubG1tVR2iUohEIkRHR7PvraysNNJ88dChQ2w/nzNnzmDHjh2Ijo7G5MmT8fr1a2RnZ/PWqVWrFjtOpaOjI4yMjLB37174+Pjg69evao2/pKAKECGEkDLHxMQEzs7OMpfJzs7G3r172TvXrVq1YsfzIYTkqVatGsaOHVuk8Xj69OlDA3ErKH9acPHYlx8+fMCyZcs4yw0dOpQdEsTCwoJ3vmvRogUWL14sc1vyjL9ZGqSnp8Pd3Z2TxIYqQIQQQogE5cqVKxHjDBFS0tWsWRM1a9bUdBhlToMGDdCgQQN8+fIFOTk5nHndunVD69atpa5blsZYysrKwokTJ5CUlMROowoQIYQQQgghpZSNjQ1WrFih6TBKldKRdoMQQgghhBBClEAXyBsULiYmBmZmZrw2mXFxcRIzd6iKgYEBrK2t1ba9grKyshAXF6fWbVpYWMDU1FTl28nMzGQ7JYpEInZ6SkqK2gb309bWRpUqVZSWOjIpKQkpKSm86ZUqVYKenh77XigUaqSjn6TvlLJlZGTg27dvKt1GUdjY2EBfX18lZX/+/Jnt4Jn/UXZubi5iY2ORnJysku1Ko87zVf5915QKFSpoPFtTSkoK53+vSso+X8kr/7lanVR9vkpLS8P3799VVn5R2draQldXfQ1hMjIyeNcX8fHxSE1NlXoNEB8fj/T0dKVsX1PXV6mpqUhMTFT7dlV9vvr+/TuSk5MLTYSQnp6O+Ph4lcUBAHp6eqhUqZJKt1EcOTk5bPY8ZVHG+YrR1tZmtLW1GXd3d6agn376iZ2vjle3bt14MajTgwcP1Lq/2trajJeXl1r27caNG+w2tbS0GAAMAEZLS0tt+1qhQgUmJSVFafvk4eEhcTv37t3jLBcUFKT2/6u2tjazePFipe2rNIGBgRrZN2mv69evq2xfmzVrxtmWJo7h/C8XFxeV7WtBDRs21Pj/9vTp02rbX2nWrVuntv21srJikpOT1b6P165d08j/18PDQ6X7tXPnTo0fw/lfERERKt3fgs6fP89oa//vvCW+/vL19ZW6zpAhQ5S2v127dlXj3v7P5s2bNfL/9ff3V+p+REVF8f53K1asKHS9EydOqHxfHRwclLqvyhYTE8Po6uoqdZ8XLVok9/YTExMZc3Nz9n/n6+vLaP3/GwCAubk5rKysOLWj2NhYZGZmFquGVRRGRkaoXLmy2rZXkFAoVHottTBWVlZqyYaSkZHBjsKsKTo6OqhevbrSBj1LSEiQeDe4SpUqnPEHNLXvFhYWsLS0VOk20tPT8fnzZ5VuoyhsbW05o38rk7rPR4VR5/nqw4cPan0aL4mNjQ1MTEw0GkNiYqLaniIo+3wlL02dryRdAyhTcnKyyu+EF0X16tVRrlw5tW1PIBBIbGFSoUIFqU8Rvnz5wqY8Li5DQ0ONpJxOSkpCQkKC2rer7PNVdnY2r7WMPL/xaWlpKn+iq6+vj6pVq6p0G8UhEokQExMjddBVRRTlfJWbm4uYmBg2UYSvry84FSBCCCGEEEII+VH5+vpys8B169YNgwcP1lQ8AIDw8HB4e3sXqwwrKyts3LhR7XftFHX69Glcvny50OUaN26MOXPmKGWbixYtYvuN9O7dG3379lVKuYURCARYtGiR0to0F6Z///5wdXVVy7Yk+fvvv3HmzBmF13dxccGQIUOUGJHqeXt7Izw8vNDlXF1d0b9/f4W2ceLECVy7do03feXKlahWrZpCZSri5cuX8PLykjq/fv36cHd3V1s8qrZnzx4EBwcrtUxtbW1s3LhRpU8eFJWeno6FCxcW+XzVtGlTzJ49W0VRqU5RzlcmJibYuHGjyp72qsPixYuLfWd+9uzZaNq0qdzLx8TEYNWqVZxpQ4YMgYuLS7HikEdh5ytFjB49Gh06dJA6/48//sC///7Lm7569WpUqVJFqbEUtHfvXjx8+FCl2wCAn3/+GePHj1f5dmT58OEDVq5cqbLyK1WqhHXr1qmsfEVcvnwZp0+fVnh9XQD47bffUKdOHbRt2xbdu3dXWnCKiIyMLPYJ1dzcHOPHj1d7x1VFVa1aFS1atCh0ubp162LUqFFK2ea6devYClDz5s0xbtw4pZRbGKFQiJSUFAiFQrVsr2vXrjJPzqpWt25d1K9fX+H1f/75Z/To0UOJEametrY2IiIiCl3O2dkZXbp0UWgbNjY20NbWxtWrVwHkNe2YMWMGJk+erNaOoJGRkZymlgXVqlULY8eOVVs8qmZiYoLQ0FCllqmlpYVJkyZpZET1wojPVxkZGUVar169ehgxYoSKolIde3t7uc9XRkZGmDBhgsoSnqhDSkpKsZtmjRw5skiDRYaEhPAqQE5OTmr5DY6KipJ5vlJE3759ZY4lY21tjbZt2/KmT548WeUJGZR9vkpOTsb27ds50zp06IDZs2crfDNPWeLi4jjJrZStQoUKartOlJe9vT3q1asn17KZmZnYvn0759pTCwATGBio0bvkRP1q166NyMhIAMCyZcuwevVqDUdESNH4+vpi7ty5APLaYUdFRZXIi2hCCBGLiYnBggULcP78ebY/o4+Pj9JadxDViY+Px5w5c3D+/Hm2X9by5ct5FVpS8iQlJcHOzo7tM+7r60vjABFCCCGEqEP16tWxd+9ejaeTJ0VXoUIFHDt2DBUrVtR0KEQJtIG8TFoCgUDTsRBCCCGEEEKISmkDwPjx43Hs2DFNx0IIIYQQQgghKqUN5OXnFufGJoQQQgghhJAfFfUBIoQQQgghhJQZVAEihBBCCCGElBlUASKEEEIIIYSUGVQBIoQQQgghhJQZVAEihBBCCCGElBlUASKEEEIIIYSUGVQBIoQQQgghhJQZVAEqo65cuYLWrVtrOgxClCIlJQVOTk54/fq1pkMhhBBCSAlHFaAyqnbt2jAyMtJ0GIQoRU5ODl6/fg2hUKjpUAghhBBSwlEFiBBCCCGEEFJm6KprQzdv3sTDhw9lLtO0aVO4uLioKaI8Z86cwfv37wEA9evXR69evYpcxvXr1/HkyRPe9FGjRsHa2rrYMZLCvX//HmfOnJF7+aFDh6JKlSoqjIiQsiEnJwf79u2DQCAAALRv3x5OTk4ajqpkOX78OD5//lzocu3ataOmyYQQogZqqQDdv38fvr6+OH/+vMzlJk2aJLMC9P79ezx69EjivIYNG6Jhw4ZyxSMUCnHp0iXk5uZi3bp1CAkJAQC0bdsWQqEQ+vr6cHV1hbZ24Q/I7t69C29vb1y6dEni/GHDhsHW1lauuOLi4nD79m2J82rVqgUHBwe5yilrIiMjcejQIaxbt07udYRCIerXry9xXs+ePal5ICGF+PLlC27duoXs7GwsWbIEiYmJAID169eX+QpQwXP56tWr8ebNm0LXGzp0KGJjY2FtbY0OHTqoMkRCiuXy5ctIS0sDkHfzuHHjxkVa/8qVK0hJSZE6v2vXrihfvnyxYizrnj9/LvG807lzZ1hYWCh1W+np6VKvgytWrAhnZ2elbk8ZVF4BevnyJZYvX46rV6/KXK5q1aqoWbOmxHlRUVFISEjAxYsXsXr1aonLTJw4EYsXL5ZahphAIMDNmzcxdOhQZGVlcebduXMHd+7cgZWVFS5cuABHR0cYGBhILSs8PBweHh64efOmxPnu7u7Q0tLCiBEjYGNjIzOub9++wd/fH7Nnz5Y4v3///ti4cSPq1q0rs5yyKCQkBFeuXEGTJk0QGhoq1zrLli2TOF1LSwsXLlxAx44dYWpqqswwCfmhPH36FIMGDdJ0GCVKbGws4uLicOfOHbi5uXHm1a5dG5aWlhLXe/XqFVJTU+Hn5wc/Pz84OTlh//79aNKkiTrCJkQuaWlpePXqFQBgypQpiI6OBgAsXrxY7huQIpEIoaGhmDZtGiIiIqQud+LECfTo0QPm5ubFD7yMCQ8PR3p6OrZs2YLjx4/z5h89ehQNGjRA1apVUalSpWJtKz4+Hu/fv8enT5+k/h44Ojpiz549APJaeunp6RVrm8rEAGB27NjBqEKrVq0Y8TZkvdavXy+1jJEjR7LL6enpMRUrVmRfenp67LzffvuNSUpKklqOUChkLl26xNlu+fLl2bLMzMw48+7evctkZWXxysnNzWXi4+OZRo0ascsaGhpy4qpYsSKjq6vLAGDWrFnDpKWlSY1LIBAwmzdvZsvS0tJirKys2HKMjIwYAEynTp2Y79+/F+0fIEOnTp0YAMyyZcuUVqYmvXr1SuKxZWBgwPvfFPxsC77Onz/PCIVCTe8SkcHHx4f3fwsJCdF0WGXGtWvXGAsLiyKdy39kKSkpzIwZM9jPQVdXl3OuOXfunNR1XV1d2eVMTU0ZAIydnR0THx/P5OTkqHEviDokJSVxvjs+Pj6aDqlQQqGQ+euvvyT+Xi5evFiuMrKzs5nXr18zJiYmcl0XHjt2jMnIyFDxnhWdnZ0dG+Py5cs1HQ4rNzeXSUhIYJo1aybX5+vp6VnsbR48eFCubYlfERERStjToktOTmZq167NXpf7+voypS4JQps2bRAZGcm+8je1OHv2LH777Tep6/75558YOHAgZ9rRo0fZsrZt28aZ17VrV/z777+8chITE9GkSRP2TggAjB8/nhNXZGQkGjVqBABYu3YtVq1aJTWuDRs2cJ5IGBoa4uHDh2w506ZNA5DXj6pz585SyyGSDR06lPe/Eb9mzZolcZ1hw4YVqU8RIWWNs7MzgoKCNB1GiTF9+nTs27ePfV+nTh3OuUZW/9LTp0+zy23cuBEAEB0djTp16sjVd4gQVTt//nyxn/g+f/4cjo6ObH/BwkyaNAmHDx8u1jbLktTUVDRv3hwvXrzQdCgljpmZGZ49e8bpKqOyClBGRgY6duzI/iPmzp2L0NBQqa8JEyZILGfMmDEIDAxk3+vo6MDExIR9HTlyBP369QMAZGdn49atW+jWrRsYhuGVlZ2djfT0dPZ9YGAgOnXqxJbVt29fnDhxgp0vEAggEol45TAMg7S0NOTk5AAAPDw8sGTJEk5cJiYmbB+izMxMHD58WOLF9vz587F37142fW/t2rURHByM6tWrs+XMnz8fK1asgEgkQnh4OBwdHfHt2zfZ/4AyyM7ODo8fP+YlntDV1eX9b8SvOXPmIDQ0FIcOHeKsk56ejkWLFqFp06ZYunSpOneDkFJBR0eH+sr9v6FDh+LPP/9EVlYWhg4ditDQUPz555+cc42urvQW54aGhuxyQ4cOxYEDB5Cbm4vk5GR06dJFYpIdQtSpW7duePDgAa5du4Zy5coVef0rV65gyJAhSEtLY6/PduzYwbsWvHPnDszMzADkXUeuXbsWnp6eSt2XH1XBa9PC+Pr6Yv369Qpvb+fOnVixYgUAoFq1arz/pfjmfUlhbGzM6duvsj5Aubm5ePnyJVvhsLGxKXInOSCvg7u4c23Xrl15fYDs7OywYsUKGBkZ4fjx4xAIBHj16hUYhoGWlha73OnTp+Ht7c1Zt27dujAxMWHfly9fHrVq1eIsI95ez549AQARERGYMWMGMjIy2GUqV64ssR3lli1bsGjRIty7dw/x8fFse9n8YmJi2MpMixYtsHnzZl4yBxsbGzaRQmZmJkJCQjBixAhs3bpVakf+ojh16hQsLCwwZ86cYpelSXp6emjUqJHMC42CrK2tYW1tjcqVK+PAgQOcinhsbCxiY2Px008/qSJcQkgpJxQKMWHCBFy+fBnJyckYN24c5syZo9BvnZiFhQX69OkDhmEwceJEvHr1Su475oSoirm5OczNzfHx40eF1k9OTsa7d+8402rUqMH7riQmJnIuUj99+oRPnz4ptM2y5P3795g2bRoEAgG2bNmC2rVr85YRn6+Sk5MBAJ8/f1b4/wnkJcJp2LAhdu/eDSMjI97/cvbs2dDT08OWLVsU3oYqldgmcLm5uVixYgUiIyPZadWqVZOYIrRZs2awt7dn3ycmJsLNzQ0JCQnstDdv3ih0F+3BgwdsmmwASEpKwuXLlyU+GSqoQ4cOnIrRixcv2OYNAODt7c1moAPyLsY7duxYaLm5ubm4cuUKvn//Lu9uyPTmzRs8ffpUKWWVVlZWVhg8eDC2bdsGKysrzrzg4GBe80hCSN7NGR8fnzKZrenz58+YO3cuAgICkJSUBABo0KBBsSo/YhUqVMDgwYOxdetWWFpaYtu2bQgODi52uYQUl7m5OXx9fVU2xIeRkRE2bdqEqlWrstNu3LiBAwcOqGR7PwoTExP06NEDXl5eGD58OHr16sV79ejRQ6kJCFxdXbFw4UL06tULnTp14s23t7dH8+bNlbY9ZVPJE6CEhAQcOHCA85Tk9u3b7GNTS0tLjB49WmYZubm5OHz4sEK109TUVGzfvh1ubm6wsrJCUFAQ7t69y843NTXFuHHjJKYBrFy5MqZMmYKDBw8iOzu70G317dtX7icEkZGROHHiBBYtWgQg78nL27dv5dwromqmpqaYOXMmfH19OZXnly9f4uzZs1L7C7169Qp///23xHktW7ZEu3btVBJvYW7fvs1eNMnznSNEFj8/P8TFxaF9+/Zo0aIFgLynFVOnTsXmzZvZu4qliVAoxMGDB3kZQevUqYPevXvLXDc+Ph67d+8GAAwfPhw2Njbs5yJN/u+kNE2aNEGXLl1gZmaGGTNmwNvbG2fOnEHv3r3RsmVLmes+ePCA81snNmDAAFSvXl3muoTIw9jYGNOnT8e2bdvw9etXpZevr6+PSZMmYffu3YiNjQWQl+k1MDBQalcJknfTZObMmWrdZmkf7kAlFaC4uDj2Il/s4sWLuHjxIoC8lNfiNp4dO3ZUej7ygk6dOsXJT25mZgZPT0+JNeHq1atj1apVOHr0KFsBevbsGcLCwmBhYYH//vuPs/y4cePUcoFrZ2eHtm3b4s6dOyrfFuFLSEjAP//8g27durHTnj59ivfv3+PWrVvw9fWVuF7//v2hr6/Pu3C5d+8e4uLiJK7TuXNn9vshlpKSgmvXrnGmNW3alPOYOycnB//88w8yMzMBAMeOHcO5c+cAqP87R34c4uNqxYoVePv2LUaPHo0+ffqw87Ozs9ljTpabN29ybixI4ujoyLlQz8jIwD///COxT6eVlZXEsXLevHmDsLAwzrQuXbpw0tp/+vQJDx48QGpqKtzd3Tk36wCgdevWEIlE0NPTQ7du3XjNauPi4nD9+nX2/Zw5c+Do6Chz34KDg+Hr64uAgACZy02YMAFdunQBkJeWv3v37ggICMDjx4/RqlUric2eb9++jW/fvuH06dPw8/PjzU9JScHo0aMlDhMRFBSE1NRUmTH9/PPPhQ7lQAgpXRo3blyin9ComloGQi0oNjYW/fv3BwAcOXIEvXv3LtEXZPv27UP58uXh5OSE+fPnaySGrl27gmEYzgX427dv0aBBgxL92ZVGjRo1Qnx8POeiICwsDJMmTUJkZCR0dHQQERGBtWvXshczJiYm7BhNL1++ZJNaBAQEoFy5cjh58iRnG+vWrcNff/3Fmaarq4tGjRqhSZMmvApQVFQU+50R8/HxYfttCYVCPH36FCNGjEBiYiLs7Oxgbm6OatWq4cOHD7zv3K+//krjK5BCFTyugLzj58iRI0UqJywsDG5uboU2tV29ejUmTpzINh1OTk7GunXrEBoayqlkWVpaok+fPhIrQAEBAfDw8AAAlCtXDo0aNULz5s3ZCtDXr19x4sQJuLu7s985cZ+Djx8/4uvXr7h//z769+8PCwsLREVF8Zr4BQcHw83NDTo6OmjUqFGhySDevHmD5cuX4/Lly4V8UlxaWlrYu3cvXr16xTbPXb58OWeZ8PBwzJs3Dw8fPpRazsqVK5GTk4OpU6eicuXKnHkzZ87kZDSVZNu2bRg6dCgqVKhQpPgJISXXqFGjMHHiRJWVHxcXh5iYGJWVX1wq6QOko6MDCwsLzkvagKKjR49GQEAA58ctNzcXSUlJnLt+hoaGMDY2VkW4pdaYMWOkjrxLFHfx4sVCm7JMmTKFcye3WbNmePLkCZ48eYKmTZtysuRkZ2fz7rCamJhAX1+fM618+fK4desW6tSpU2iMJiYm7HdKJBLh6dOn+Pnnn9mLVE9PTzx58gQrV67kJPoA8r5zRb0QK4kMDAx4+0aURyQSISQkhD2uzMzMOOd0eT97kUiE7t27s5UfQ0NDtoyCFYvly5ezA+YBQKVKlRAcHMzpDwDkJaUpmLlREisrK9y9exd2dnbstKNHj7KVn5o1a+LOnTvsd3fcuHGcygzDMEhOTpaaVcnIyAjXr19HgwYNePPEv2NJSUkYMWIELl++zNl38St/h++iEJfv6urKVn4kla+jowMAWLNmDby9vdnERAzDICkpCbm5uey+iNcpeANm1qxZOHXqlEJxEkI0T5xVUtLTdFVIT0/H1q1beTdsShKVVIDs7e0RFRXFeU2ZMkXq8rNnz8auXbvY99HR0ahbty4n88ecOXOwadMmVYRLiFIFBQXB2dmZfR8YGMh7enPw4EGMGjVK4W3s2bMH48ePBwBcu3YN3bt3l7jciBEjfthxFMaPH8+5WCbKde3aNc4T5/Pnz3PO6b///rtC5c6dO5ct4+bNm8oKt8iaNm2Kx48fc26srVixgpP2PiUlBU2bNkV4eHiRy3/37h3s7OxgZ2fHVv4WLlzI+Qxfv36t8EjsHz9+RK1atfDhwwd22qxZs3i/vfmbve3cuRNubm4AgG/fvqFBgwaIiIgAkDdenXid8+fPKxQTIaRkev36NRo1aqS05FmFcXd3L7HZ38RUUgHS1tZG+fLlOa8FCxbg6dOn2LlzJ295gUDANhkC8tqc578zBeTd7TU0NFRFuIQUS8+ePTkXg6amppw+A1lZWbwnQMbGxgpnYzl58iR69erFrp+dnY2UlBR2/vHjx9G1a1cAYPswiPsCiXl4eJT6ipGenh6NQ6NCBY8rExMTzjndxcWFd1zJw8DAgC0jf78cWS5evMjpcHvp0iWMHTu2yNveuHEj+6Oso6PDe9JhYGDAaa0gvmua/wnQyZMn2UqELOLfsaSkJIhEImzatAlTp07l/TbmH66hKMRPgMSxrVq1Cm5ubrzy8z9hEgqFbErtgusbGhqy67Ru3RrXr1+n7xdRqdmzZ9OTRRU7deoUHBwc0L9/f951tSq4urrCwcEBp06d4lzXl0Rq6wNUuXJlVK5cGba2tmAYBjNmzODMP378OCwsLGQ+KSKkJLKwsJCr2VpBkyZNgkAgYCtPqampGD58OHbs2CEzY5O9vb3MtMP79+/HmTNnONMKVsDev38Pb29vZGZm0neO8Pz999/sAHmGhobYs2cP28dNzNTUVCnjkMmjQYMGnCZ3379/LzSDZr169bBlyxZOU9MPHz6wmUXfvXvHezIrnl7QvHnzsGHDBrRq1Qrfvn1DZGQkatasie3bt/MqUQDw5MkTLFy4kDOtRo0aKksdDOQNEyHpadKuXbvg7u6OkJAQDBw4EHPnzpW4/t69e2FsbIyRI0fC0NAQbdu2xalTpzBjxgyJY9gRInb27FlUqFChyGMJRkZG8gZ1FwgEmDJlCmf4EaKY33//HVu2bMGzZ88kzj969CjKly+PSZMmKWV7DMMgLCxM5vli6tSp8PLyQpMmTZSyzeJQexIEa2trDBs2DBkZGVizZg17hzEsLKzMj0VDSo+pU6fC1dUVAFC/fn28f/+eM1ZQYZ2KgbwmOPnHDMnKysLFixexbt06znIvXryAl5eXxDJu376NgwcPcqYVzFQoTVhYGGccKkLEIiIicO/ePQB5T0p69uwpMWmGjY0NPD09sXbtWs7TImlGjBgBFxcXhWKaOnUqBAIB7t+/DyCvEr9q1SosW7aMfcpx5swZNrmIhYWF1KahQN54cfI+wbp+/TpvMEYzMzP06tWLt+ydO3fg5eWFoKAgdpqbm5tcwyX07NkTQ4YMkSsmeXXp0gXLli1DTEwMWrVqJTVbXUhICCd7np6eHnr16oXExEQkJCRoLJ3/j8jQ0BDr1q3D+vXr2VTPpdnr168LTe/evHlzzJkzh5cxNSAggDPeY2ZmJs6cOVPinx6UBrVq1cKYMWMQFhYmcRylFy9eSK0cKUJLSwvLly9nfwv++ecfXn/jK1eu8Cq9mqKRLHAWFhaYM2cOUlJScODAAXz+/FkTYRCisPx3jt+8eYOtW7cq1N7VwcEBrq6unIxwJ06cwKRJk9iO2+/evcMff/wBfX19jB07lnMXOSQkRKH2+j169IC9zgoqKgAAIABJREFUvT1+/vnnIq9LiJiFhQU7dpa0CpC2tjbGjRuH5ORkjBgxAiKRiL1ZUJT26AMGDMDly5fZCtDHjx+xf/9+LF68mK0ABQUF4fbt27C3t8fgwYMV2icHBwe0b98eQN7F2OHDh+VK8y327Nkz3nfyt99+4wzWDeQNqn348GG2SRqQl25anAJbmSQ96RKP53L48GH2//D48WNs27YNlSpVYj+/kSNHKj2esk5PTw9Tp07F/v37f4gKkDzq1q0LNzc3ttWDeOytf//9F//++6/MdZs3by7xZgORrUOHDujQoQPCwsJgbGyM7Oxs/P7772wiFAAIDQ3Fn3/+iV9//VUp2xw3bhz7d/369ZGbm4srV65wljl37hwqVaqEhg0bKmWbirh165ZmKkBA3l3F1atXIygoiFcBMjY2Ru/evREUFMQbn0GTbG1t4ezsjBs3bmg6FFICPH/+HNHR0bhx4wan8tO5c2cYGxvj+fPnhT7G/+WXX/D9+3dOBWjjxo1o06YNJ3MVkHfXcMOGDYWmr+7QoUOhy8yfP5+9yCNElbS1tbFq1SoAeWNneXl5yWz3/+bNG4SEhEgcn6J58+Zo0KABXr58CSCvT0tgYCBcXFw4yQwcHBwKbY5jYWEh8TvQp08f9kdcIBAgOTkZAoGAlz5aHrq6uujSpYvEoQq+fv0qtTmaOpiamsLLywsZGRk4e/Ysvnz5gqCgIAQFBcHe3p7tc9uxY0e5+2oRIkv16tXh5eWF5ORkZGRk4OHDh+x4eLa2tmjRogWys7MRFBTEGYje2dmZBkEthkaNGmHLli0QCAQ4ffo0pwJ069YtmJqaKq0ClF/37t2hp6cHgUDAGcNyx44d+OmnnzRaAQoICNBcBUiWypUrIyAggJfhRtPatGkDb29vTork6OhoJCQkwMrKqsjl1a1bF2/fvkVSUpJC8dSpU4fGAFKB169fc+7KAnkdwBs0aMB2WI6KisLq1atx9uxZAHmVdvGgpAcPHkSNGjUwdepUubKUlS9fnj0WxKKjoxEaGsr+XRQFj1FCNO3Vq1fIzs7GihUrcPHiRVhaWnJSW7969Yq9I+zn5wc9PT2JWeamT5+OpKQkNlNbQkIC+vfvjzdv3qBcuXJFeqJUp04dXLhwQeYyxsbGOHHihNxlxsXFcZrK6enp4ciRI8Xq+/Pq1Sve+UiZxImJxIOpfv78GW/evGEviM6dO4fatWvD1tZWod85QvIzNTVlx8WbNWsWe0O5c+fO8PHxQWJiImrVqqXwdRGRTltbGw0bNkRwcDCnEqRKnTp1gq6uLiczbklRIitAkmRlZUEoFEodT0gWAwMD6Ovrs80YGIZBWloaLCwsFM7AIzZz5kwwDIOZM2cWed3jx49j8ODBOH36tELbPnLkCDVhUoEePXogKiqKM83BwYHTlnXSpEmcNv7NmzfH7du3Fdpely5d4Ofnx6m0zJo1i7OMjo4OTE1Ni3285peVlQWGYXjjERFSUFpaGiwtLRUas0YkEqFr165sUx99fX0MGzYM27dvB5B3Pq5Vq5bcnZ719fVhaGjIaR0gEAjg7u6OoKAgdn5hcnNzkZaWptSxpHx8fLB58+ZCl8vJyeFVagwNDXnfxdzcXHTr1g0xMTES5+cnFAqRlZUlM7tkVlYWMjMzoaOjw8nwJq4EeXp68pI39OvXD0DeXdvp06cXum+EyCt/v1ngf9/J/ApmZiSKMzQ0xH///YdWrVoV2merLFBJGmxV8PHx4Z2Y5bVx40bMnz+fff/lyxfY29tzOt4RUpI1bNgQz549k5hxSlGbN2/GkiVLlFYe+TEJBAI4OjoqrbPsvHnzsHHjRoXXnz59Oq8jdadOndgxhaZOncq7sJLk2bNncHR0VOnTFWlu3bqFzp07c6Zt2bJFZgXDy8uLd2MkvwULFvA+l4J2796NWrVqYcCAAUULmBA1CAsLQ/PmzTn9CZcvX16iB9MkpVeJrQDp6urir7/+YjPnpKen8+4MyMvY2JhzRzAnJwcJCQlSR/cuaOHChZg9ezaAvHSs165d47Q3l5ezszP76FeSO3fuSO24e+7cOYWeMhH5ff78GS1btuRle+rVqxf2798vdb0ePXrwMrEVVYMGDXD9+nWpd6N1dHQkPrEcMmQI76Jn1KhRuHbtmsztLV26FFpaWjIvqAgB8p7QfP/+HSKRqMjrxsbGonXr1vj69Ss7zdDQUKHzZ/71C35PEhMT2SZ0kuZLIhKJ8P37d7lGRh8xYoTS+n6eO3cOkydPRmJiIme6iYkJ53fq48ePcHJywpcvXyTOLygtLa3QZi3p6emIj49HcnIyEhIS0LZtW7Rs2ZLN+Dd69Gg8evQIR48e5a3r6emJrVu3yr2fhBSV+DspHqvG29sb48ePp/GofjC7d+9Gnz59NB2GaipAsbGxGDRoEAYNGsSOMl2QSCTCpEmT8ObNGwDAsGHDMHnyZM4yTZo04fyQ/fvvv1i9enWh269YsSL8/f1hY2PDThswYABbiZHl3bt3mDBhAvtjCuR13KtSpQoAwMjICM2aNeM0BTl06BCOHDnCK2vBggV4+PAh+758+fK8Tl/z5s1jD4Tk5GROGtL8vn37xn5WRPnCw8MxYcIEPHr0iJfxydLSkpfBqeD8evXqcaatX78eV69eZd+/e/cOEydO5BxX+Uk6rsScnJykpsGuWLEibwyily9fYtmyZfjzzz8lrrN06VIcO3YM2traMscbIiQ/Dw8P9kJZFj8/P+zbtw9AXrOsx48fs8f9rFmzMHDgQJXFOHnyZAwbNkzu5VNTUzFy5EgMGjQIjx8/5sx7//49+zt26dIlXoVFUfKeyzMzM9nz0Zo1a9CxY8dC1zlz5gx27NjBm7527VoMGjQIfn5+aN++PdatW4fs7Gw8efIEjx49QnJyMoC8tOaOjo7o1asXDh06xKlwxcTElKg+ueTH8vDhQyxYsIAzrXbt2iodO4vkJSpYvHixWrdpb29fIvoTqqQPUHJyMjsQo4GBASpXroyePXuyJ/Bv375hw4YN8PPzQ1paGoYPH46ZM2fCwcFBZrlRUVES78L5+/tz0uwZGhpiwIABnIvJ+vXro1WrVpz1PD09sWDBAs7FbUJCAi5evMi+Hz9+PK+fjbGxMdauXYtNmzbh06dPCAkJkdg8JCgoiB10r127dhJHLndycpJ5cS2Jrq4uPDw8ULNmzSKtRyR79OgRvLy8cOnSJc70IUOGoEWLFmjUqJHM9Z8+fco7cZ85c4bTj0h8XG3dulVmG31JbG1tec1lCnPv3j34+PhI7Jd0/Phx3lMuQvJr27Ytxo0bh0OHDrHTxE++586dy3ZoFZ/L8w+0GxoayqtMiEVERHDKBPKeMBW1cuHg4IAZM2bwLvYdHBw4Y2sV1L9/f8TExCAwMBBAXiVDnLI6NzeXTWQC5GVpE/+OzZkzR2a58jhx4oTU34qC3r17B09PT2hra2Px4sUYO3YsexNOlvDwcOzZswcxMTGc6adPn2b7WA0bNgy//PILm30LyEvcYm5ujtatWwPIy5D322+/ITU1FRs2bOAsS4iy3bx5E76+vpx+tXPnzi32d05VPDw84OnpKXHQ5NKmVq1aaNu2rcR5f//9N5uivEKFCrzrHHk8fvwYu3fvZt97eHgoNHC8Kqg8CcIff/wBAHj79i3Cw8MB5PXBETfbGThwIObMmSN1cLb+/fvj69eveP36NYC8ZgG7du3ibUN8Z9LW1hajR4+W2Fnc3t4eAwYMYDN3HTx4EIaGhmjQoAG7TP6OuMOGDcOcOXN4F8AGBgaYNWsWBAIB9u/fj6ioKDx79owXV3x8PIC8ys/s2bPRt29fifv4888/s+m1ExMTeeUA4KQQ1NbWxpQpU2BrayuxPMIVHh4u8TMVu3fvHi8tb9++fTFnzhw4OTnJVb742JYlIyMD+/btYwcYLPj0xcDAABMnTsSRI0fYY0ceNWvWxNChQ/F/7N13VBPZ+z/wN02khSJVUMSyFhRExS72rogFu/hR7LpgWdsqdldBQVAUe1lZGwiKuupasSyiqKxdUcGK9CZdmN8f+TFfxhQSSAjK8zon5zDtzjMhmcydufe5R48e5cwPDw8X2WynT58+Ir9zhNjZ2WHevHnIzc3lfK7CwsKgoqLCPqkufS4v7dmzZzhz5gzn3AoA586d46R8F+Xly5fYsWMHdHR0hI5D07RpU4wZM4ZTAXJ0dCzzZkXJjYRv374JDNAXEhIicjsXF5dy/Wh/+/YNBw4cgI6ODg4cOICoqCg0b94cjo6OQp/Q3r17F1FRUXj58iX27NkDFRUVTJs2Debm5rh69SpevHiBJk2aoEePHtDR0cHs2bNx+PBh9gkOwO9HIaolQZs2bdC7d2+B+cHBwVBV5V8OlFSCNDQ04Obmhj179uDLly9wcHAQeaFESHndvHkTW7duxalTp2BkZMR2A5g/f75ElX5FmDp1Ko4ePVqlKkApKSmc65j+/fsLDKXx7ds3HD58mG2SXHLtKcylS5fg5+eHixcvAuBfP39fASo5X4kTGRnJ6foxZcqUKtXyhAHA+Pv7M7Ly5MkTpqRcYS9tbW1m4MCBzMCBA5kXL16UWZ63tzfTqFEjsWUCYCwsLJjFixeLLevZs2dMz549GRUVFZHlqKurM/369WPev39fZmxr1qxhrKysRJbVpk0bJjQ0tMxyduzYUebxlbx3Q4YMYVJSUsossyw9evRgy50wYUKFy1OkpKQk5ty5c8ypU6eYWrVqSfRefv/S1NRkP5ePHj0Su79ly5YxdevWLdd+ADDnzp0TWbaNjQ27npWVFbNu3boyjz8uLo7p168fo66uXua+O3bsyISHh0v9HldFISEhnGOLjo5WdEg/lXfv3kn8ufr+1adPH+bz58/MgAEDGA0NDam3r1WrFjNp0iSmuLhYaGwl53JlZWUGAHPx4kWJj+vWrVtM586dxe5fV1eXPR+8efOG3TYsLIxp06YNY2VlxVy8eJEpKChgl+3fv59p3ry5yDKbNGnC+Pv7MxcvXhRYtnDhQmb06NEMAMbQ0JAZOHAgM3jwYCYpKYlhGIaZOHEiA4CZNGkS51hcXV0ZQ0PDMt/PFi1aMIcOHWK3i4+PZ2rWrMlZx9nZmTl37hznVa9ePQaQ7TUC4bOzs2MAMD4+PooORWJ5eXnM+fPnGXNzc85nZ8yYMRJtX1BQwFy8eJH9fDk6OjIAGFNTU8bNzU3O0ctO9+7dGQDMihUrFB0KwzAM8/btW6ZPnz6MmpoaA4BZvny5wHf55MmTjK6uLgOAadWqFXPy5EmR5Y0ZM4bz//3ll18E1vHw8JD6+io+Pl6eb0OZWrZsycakCvD7uBgYGEBWatasiaZNmyImJobTcdbAwABmZmawsrLiNDMry/z585GRkSGy/4+5uTn09PQwZMgQrF+/XmxZTZs2xdGjR9GnTx88f/6c7e9haGjI9hmqVasWTp06JVF6YA8PD6iqqmLr1q348uULNDQ0UL9+fXa5p6cnevToUWY5BgYGsLa2Rn5+vtC7Cvr6+qhduzYsLS0FRhkn/DvGixYtQnFxMSeDjLGxMYyMjCQqw9zcnG0aU5Z169ZBVVWVbSIjTkZGBme074YNG4odWLBBgwaIi4tDZmYmnJycJMrUZmlpiZCQEPTp0wdpaWn4+PEj566wuro6ewc7ICAANjY2ZZZJSN26dTmfK4D/1EfcE0oTExMYGhrC0tISZmZmCAsLQ58+fXDnzh2Jx57Q09Nj+6GIUvpcXlhYKFU6606dOmHnzp0YNWoUAH7TvLy8PAD887+pqSmaNGki9Ps9ePBgAPwnTiNGjEBsbCzbnn3SpEnQ0NDA4sWLOc3QrKysoKmpiXnz5sHV1RX//vsvrK2twTAMYmJiUFhYiE2bNsHY2BjW1tZo37499u7dy27/7t07ZGRkwNjYWOCu+N69e8EwDCIjI5GUlMRJOAHwx5urUaMGVqxYwel/paqqiqZNm3L6Jd64cUPosAyyvkYgXAkJCUhISOD0W66qkpOT4ejoyBmoFAAyMzMRFxcntml+Xl4eHjx4gGHDhrHZF83MzGBtbY1evXpxBhQn0rGyssKJEydgZWWFtLQ0rFu3TuS69evXx4YNG9CnTx+R61hYWMDQ0FDsud7Y2Bi1a9cW2aS+9PWXmZmZxNdXlYk5e/aszGtZ2dnZjKWlJaOpqcm+3N3dy13e2rVrOWWVfh0+fLhcZbZs2ZIto6K1eH9/f0ZTU5Pp0KFDhcp58eKF0GP89ddfK1Tu93Jzc5lu3boxABg1NTVmypQpMi1fUfLz85kGDRqw75uXl5eiQ2JOnjzJ+V8+f/68zG1GjhzJaGpqlvlEU5Tx48dz9tmqVatylVPV0ROgyrdo0SJGVVVV5Pl406ZNQrfr1auXyG2+f02bNq1Sj8ne3p7d95IlS8pc/9y5c0zNmjUZHR0d5uPHjwJPqS5cuMA5nnv37gktp6CggGnYsCG7nqenp9D1HBwcGADM6tWrxca1YcMGgfey9NOrsnh6erLfJSUlJbaM8+fPS1wGkVzJEyAAP8zTj8+fPzO6urpCv7fdu3cXu+39+/cFttm5c2clRS5bVe0JEMMwTEZGBmNubs4+FS+5vvv+Pb9//75E5a1cuZLdxtbWVug6hw4dEnkeX79+vSwPTyYEngDJg6amJqKioth0hgAkGpxOlHnz5mHatGlCl5V3bJTLly+zqbArkpYVACZPngxnZ2e2HXV5NWzYUGAQTqBi750wXbt2RXR0NAD+YK4rV66UafmKUqNGDdy5c4f93MlykMPyGjhwIOd/Kkn2k927dyM/P7/c6T/9/f3h7e3NTlf0c0lIaePHj4enp6fQZaK+cydOnBC4ayxKZQ98eOHCBba1giTfuV69euHChQvo0aMH7OzscPnyZc5T1e7du3O+86KenqipqSEiIkJm56tff/0VkydP5swrb7YlQ0ND3L17F5qamtDT06tQXOTnYWJiIjKLoZqamthtbWxsBK5vxLWGINLR0dHBw4cP0atXLzx69AgAP7X99y2jJH2au3DhQsyaNQsAfygOYUaOHIl+/foJXVbR62p5k+tVkaGhoczK0tLSkvmbKcs0fBoaGjKppKioqFRK2sfk5GS26YOWlpZMB9hUNFl+7mRBXV1d6v+prq5uhfZZ0e1/BMeOHWMr7jweD6GhoWjUqJGCo/r5zZkzB0VFRVJ/pvX19eUUUcVJ27yrRo0aMDAwQHFxMZKSkjBu3Dhs3boV3bt3Z5dL+v6IO18xDIOhQ4ciOjoaK1euhKurq9iyKvo7OWHCBDZbq6qqKurWrSs0NT+pvpSVlct9jaKqqkppreVISUkJRkZG+Ouvv9jmxiYmJuV+zyU5n9SsWbPSb1jJCt0WJoT8kOLj49k7kSoqKmjdujUNmFcJ6tSpo+gQqoS6devi4MGDcHNzw5MnT+Dh4YElS5Zg0KBBMik/MTERbm5uuHz5MhYuXIiJEyfKPSuWmZkZzMzM5LoPQoh8VdX04VUNVYAIIYQQKenq6mL48OH47bffAPCHKnjx4kWFKkCXLl3C1atXAfAr9XZ2drCzs8O4ceNgYWEhk7gJIYRQBYgQQggpFzU1Nfzvf//Dn3/+icTERNy5cwe7du2CpaWlyHbxwpw+fRpfvnxBWFgY/v77b1hYWGDSpElYvHixHKMnilJQUIAjR44gJSUFAH88FhpjiZDKRRUgQgghpBzU1dWxadMm5Ofn49WrV3jw4AFOnjyJdu3aSdV3ZtmyZezgpRYWFhg/frzIYR/Ijy83Nxfz589nU8uPGDGCHQCUVH03b95EamqqosMgFUQVIEIIIaQCtm7dCgDYtGkTvL29ERkZib59+0pVhpmZGXg8HpydnbF27Vp5hEkIkYGJEycKzdZLqq7i4mK8ffuWHfvT2NiYKkCEEEKILCxcuBA8Hg/u7u5Sb7tlyxZ2YFZCCCGyk5mZCXt7e6SnpwMAli5dShUgQgghRFYmTJiAwYMHS71dVU4TTgghPxuqABFCCCEyoqmpSenYCSGkiqMRzgghhBBCCCHVhjIAHD58GJGRkYqOhRBCCCGEEELkShkAjh8/jqioKEXHQgghhBBCCCFyRU3gCCE/vG/fviE8PBxfv35VdCiEEEIIqeLYJAjJycl48+aNImOplkxNTaGlpcVOFxYW4v3793Lf77dv39i/09LSKu1/r6KiAktLSygpKcmkvNTUVHYwuapIX18fBgYG5do2JSWFTdn4o7C0tISqqmS5VdLT09mR0Muj9LZZWVkYMmQIzp49iyZNmpS7TGnweDwYGRlJvV1SUhIyMzPlEJH8fX++qoi8vDx8+vRJJmXJg7q6OiwsLGRS1qdPn5CXlyeTsuTFyMgIPB5PbuVXxfOZNOcraRQXF+Pdu3coLi4WujwrK4uzLCUlRe6/weU9X0mioudyebCwsIC6urpMy/z27RvevXunsOsncWR5viotKysLiYmJMi+3omR1vmLopbjXiRMnmKKiIvb15MkThcckz5eBgQGTlpbGOeaKvBYtWqTwYxL3Wrx4cbmPzc3NTeHxS/uKiYmR+Pj++OMPhcdbkdeUKVPK9X+dNGmSwmMv7+v48eMy++5evnxZ4ccj7mVnZyezY23fvr3Cj6es144dO2R2vMJe8+fPV/gxfv969eqVXI41MTGR4fF4Cj++0i9XV1e5/W/Xr1+v8OP7/hURESHz43zz5o3Cj0vUq2XLlnL53+7atUvhxybstX37dqmOIyUlhdHT02O337JlC6P0/yeIghgaGnJSphYWFiI+Pl6BEcmXiooKzMzMoKwsm9aX6enpVfpuOo/Hg56eXrm2TUtLQ1ZWlowjkq/atWtLfEc1MzOzyt0Rloa2tna5nu6lpqb+sE31vj9fVUReXl6VvLNYokaNGjA1NZVJWQkJCewI5FWVgYEBtLW15VZ+VTxXS3O+kkZxcTE+f/4s8gmQIpT3fCWJqnguNzU1RY0aNWRa5rdv3/D582eZlikrsjxflfb161ekpqbKvNyKkvZ89f13csuWLVB4BSggIADW1tbsdFRUFObPn6/AiGRr/fr16NKli8jlK1euxLVr1yoxoso1d+5cDBs2jJ3OysrCqFGjftgLQFFatGiB7du3C8w/cuQIdu7cqYCICKmYTp06YcOGDZx5q1atwtWrVxUUESGEEFJxnAqQi4sLevbsWelBDBgwAIaGhux0fHw8Ll26VOlxyEv37t1Rp04dkctv3LiBuLi4SoyIb+HChZy7r506dcK0adNkvp927dqhcePG7HRBQQFCQkJQUFAg830pkrGxMfr16ycw/+nTp7h//74CIlIcLy8vPH36lDPPwMAAmzdvhoqKisz2c/HiRRw5coQzb926dWK/b0RyderUQffu3TnzFHW+IkQeFi1ahISEBM68X375BcuWLZPrfnNzc7FgwQJkZ2cDAMaOHYu+ffvKdZ83btzAvn37xK7TtGlTLFmyRK5xVJY1a9ZUuG/O9OnT0bFjR4H5v/32G5KSktjpzp07Y+rUqRXaV0V9+PABy5cvr1AZNWrUgLe3t1z7AsrKn3/+iStXrpR7+y1btvxfEoS2bdvCxcVFJoFVhJmZWZWIo7I4ODjAwcGh0vebkZEBX19fvH37FgBQv379Snnfa9SogdGjR8t9P1WFtbU15wlndaCkpITY2FjOPB6Ph4kTJ8qs6SPA7zj8fQVo0KBBsLW1ldk+CJeizleEyENmZqZA8546derI/bcwIyMDS5cuZStAbdq0kfs+W7Rogbp164pdp169ej/N9VdhYWGFk6w4OTnBxsZGYP6qVavYClC3bt0wd+5cDBkypEL7qqiEhAQUFRVVqAw1NTVMmjRJZolu5MnIyEiq36K8vDz4+voiNzeXnSf7xq/kh/Drr7/i1KlTbAWIEFmZMGGCokMghJAyzZkzR9EhVBo7OzvY2dkpOoxK4+rqWin7cXBwUHjlBwBMTEywYsUKRYdRafr374/+/ftLvH56ejoCAgI4FSAaB4gQQgghhBBSbVAFiBBCCCGEEFJtUAWIEEIIIYQQUm1QBYgQQgghhBBSbVAFiBBCCCGEEPJT0tbWRlhYGBo2bMjOowoQIYQQQggh5KekqqqKLl26QFtbm51HFSBCCCGEEEJItUEVIEIIIYQQQki1QRUgQgghhBBCSLVBFSBCCCGEEEJItUEVIEIIIYQQQki1QRUgQgghhBBCSLVBFSBCyA9p+PDhWLVqlaLDIIQQQsgPRrUyd3bjxg0EBgaKXO7g4IDx48dXYkTCZWVl4ffff0d+fj4AYOzYsejWrZvU5axbtw7v379np1u2bIlZs2bJLE5CqrO6devCxsZG0WH8NNavX493796x07a2tpg9e7YCI/p5PXv2DL6+vmWup6ysjA0bNkBfX78SoiKEkOqj0ipA169fh6+vL06fPi1yHSUlJZEVoJs3b+LWrVsit+3cuTO6dOlSoRifP3+OU6dO4evXr9i9ezcKCgoA8CsuklaAEhMTsW/fPgBAQEAAPn/+zC5zdHQsVwUoPDwc//77r8B8FxcXmJubS13ez6yoqAg7duzA169fhS5XVlbGrFmzoKOjU8mREVK1hYSE4MGDB+z04MGDqQIkQ6dPn8azZ88AADExMThw4ECZ2ygrK0NPTw+6uroYPHgwmjdvLu8wCZHYsWPHEBsbi44dO6Jr165Sbbt3714kJSWJXWfEiBFo1KhRRUKs9u7fv49//vmHM2/SpEkwNTWttBg+fPjAPvyYOXMm9PT0Km3f4lRKBej27dvYsmULwsLCyrX9nTt34Ovri5CQEJHrDB8+HGpqamjfvr3U5d+7dw+vX7/GnTt3sHXrVnb+oEGDwOPx8Msvv5RZxsuXL/HgwQO8e/cOv//+OzvfwcEBFhYWAIDWrVtLFdelS5eQnJyM48ePsxVHHo+HQYMGAQBycnLNs0x0AAAgAElEQVSkKq86YBgGL1++xIkTJwROrjo6OnByckJhYaGCoiOEVCdFRUUICwtDXl4e/P392RtZZmZmGDt2rNhtv379irCwMHh6egLgX0TMmjWLKkFEoXJzcxEWFobi4mJs3LgRjx49gpOTE9TU1NCxY8cyt8/Pz0dYWBjWrFmDDx8+iF03JSUF06ZNk+gajHDdunULHz58wD///IODBw9ylhUXF6N+/fpo2bIlmjZtKtc4YmNjcfDgQaxZswYAMGrUqOpTAXr8+DFWrlyJK1euiF3P0tISDRo0EJj/9OlTrFmzBufPnxe7/cmTJ5GbmwsvLy9YW1tLFFt0dDS7zalTpwDwL5JbtGgBAPD394elpWWZ5cTFxSEgIAB+fn6c+ba2tli7di0cHBwkiqdEcXExHj58iPnz5+PJkycAAFNTU9SvXx916tTBX3/9JVV51Ymqqir8/f3x8OFDTgVIT08Pffr0wZ9//qnA6AipumxsbPDu3TukpKQoOpSfQm5uLiIjIzFlyhSkpqYC4P/OmZubo127dvDx8RG7/efPn5GcnAwAePLkCQICAvDt2zcsXrxY6G8l+XGoqqqibdu2uHXrFrKzsxUdjkSSk5MRExODpKQkjB8/Ht++fWOXnTp1ChoaGmVWgLKzs3Hz5k3873//Y2/gWllZwczMjF3+33//set7e3ujqKgI7u7uqFevnhyOquI+fvyI169fo2HDhooOhfX48WN4eHjg+vXrQpcvX74cAODl5SXXCtDHjx9x4MABrF27Vm77qCgGAOPv78/IQ9u2bRkADI/HY8zMzES+tm7dKnT7Ll26MCUxSvJycHAoM6aioiImPj6eadiwIWdbDQ0NZtCgQVIdX2pqKjNlyhROOcrKyoypqSnz5MkTqcrKy8tj4uPjmdjYWMbY2Jgtj8fjMYsWLZKqLEn06NGD3ceECRNkXr4iOTo6MhoaGuzx9e7dW9EhETkICQnhfPeio6MVHdIPbcqUKew5eeLEiYoO54eVl5fH3Lhxg/1cGhoaMmZmZuX+nR06dCijqanJAGBGjx7NpKSkyDhiogh2dnYMAMbHx0fRoZQpODiYMTQ0FHntNWbMmDLLuHv3rsB227ZtY5c/fvyYMTU1ZZSVlTnrTJ06lUlNTZXn4UmlXbt2jLq6Ohufi4uLokNiGIZhiouLmS9fvjA2NjYSXS97eHgwGRkZcotn1apVAvt88+aN3PYniZYtWzIAmC1btjCV1gdo8eLFWLBggcjlqqqVl48hISEBTZs2RVZWFmf+4MGDxSZpEGbatGns06MSPB4P0dHRMDY2lqqs8PBwDBkyBADYBAwAsGjRIixevFiqsqq74OBguLi44NixY4oOhZAfxo4dO1BcXAyA3/+ElM/169fZczkAhIaGwt7evty/c8ePH4erqysOHz6MoKAgpKam4uLFi7IKl5AyDR06FLVq1UL37t3ltg9ra2s8fPgQTZs2RXp6Ojv/wIEDSE9Px4kTJ+S2b2ncuHEDffv2FfmERVGysrJgZ2eHhIQEidbfuHEjMjMzJUrI8jOS2y9cbm4uOnfujMePHwPgV3DU1dVFvlRUVMSW5+bmhhcvXgi82rVrJ3VsDMMgLy+P/aEH+BWZLVu2QE1NTaqyCgoKOI+CmzVrhrt378LIyAhKSkpSlVVUVIS8vDzk5eWBYRgAgI+PD2bOnFmpFcSfgZqaGl3AESIlNTU19pws7bmQ8B09ehRTp05Ffn4+NDQ0cPv2bbRp00ai3zlR1NTU4OXlhTlz5qCoqAi3bt1Cr169ZBw5IaIpKyujXbt27LWXlZWVzPehpKQEdXV1gfnfvn1jk1JVBTVq1JD6+q4ylL623bZtm8D18oMHD2BgYMCuX1hYKLc+0b///jv8/f3lUrYsbNy4UX59gIqLixETE4Pc3FwAwP79+6GlpSV1VqHNmzcjNTUVjRo1EtruWUNDQ6rynj9/jtmzZ3P+6W5ubpg9ezZq164tVVmzZ89GZGQkO92pUyd4eXmVK2vJuXPnBMY08fX1xahRozgfWEIIIVXT/v374ePjgw8fPsDS0hJ79uxBmzZtUKNGjQqXbWpqCnd3d6irq8Pb2xtv3ryRQcSESE5DQwONGzcGALpBUgVpaWkhKCgIhYWFaNWqlUArpOzs7HLfhJHG4sWLceTIEbYPY1WUkJAgnwpQfHw8VqxYwUlF/PLlSwQEBODp06cA+F+etWvXgsfjiS2rbdu2Movr3r172LBhA65du8bOc3Nzw4wZM6TKMpKdnQ0PDw8cP36c02HY2NhYoiwo3wsNDYWvry+ioqI489u3b1+pqQrJ//H19cWrV6/Y6UaNGmHevHkSbbt69WokJCRg7Nix6Ny5s7xClNjTp0+xfft2zjxXV1epsxIS8iOJi4uDl5cXZ97o0aPLTEpz9epVBAcHo06dOli6dKlU+3zx4gX7G6elpYXevXuLXb+oqAgeHh6c5j6dOnXCuHHjhK7fsGFDNgtcamoqZs2ahbVr16JWrVoi97Fq1SokJiay0/b29pg0aZLEx0SIPJ04cQK1a9fGsGHDRK7To0cPzJgxoxKj+jGpqqqiZ8+eCo1h+fLlCAwMxOfPnzFo0CDUqlULhw4dYpevWLECK1asqBKZ/eRSAUpNTcXevXsF5j99+pRTAeLxeJg1axabAUTeYmJiEBoaypk3cOBAqbNg5OXlYe/evZw+RPb29hg6dGi54oqIiMCNGzfYaTU1NUyfPl3qJ1Kk/D58+ICjR4+y07t37+bcYa1fvz771HDatGkCaRw/f/7M9h/bvn07kpKSkJCQIHT8phK9e/eGnZ2d2Lju378vNoNi69atRZ7wwsPDERkZiZcvX2L//v2cZRkZGbC1tUXLli3Rp08fsTGQ6uP06dN4+fIlO21kZFTmxXJRURF27doldOwtfX19TJ06VeS2GRkZ2LVrl8Tx9e/fn83SKUpkZCTCw8Px4cMHBAQEcJZ9+fIFd+7cQZMmTeDo6Ciw7ZUrV+Dn54czZ87A3Nxc6N1SUd+506dP4+7duwCABg0awNXVVWycaWlp2LlzJ3bs2IGMjAx2/v379/Hp0yeB9QcOHAhra2u0aNECY8eOxZEjRxAQEICFCxcKVIA+ffrEZgvdvn07507snTt3kJSUBG1tbUyfPl3oMX758kVsxkxTU1O4uLiIPT5CJHHz5k0oKSnh9evXAPjdJ0r3ge7Zsyfc3d3Rr18/RYVIJMQwDFv5GThwINzd3fHp0ydOBeivv/7C5MmTf94KkCQKCwuxbt061KxZExMmTEDdunXlur/nz59zmquVuHHjBufHp7R+/fpJPGCmsbExatasiaCgIKHLGzVqhJYtWwrMj4iI4FxwAPwK0PLly/HkyRPcuXOHnW9iYiJ1Sm1Stri4OBw8eBCrV68Wuc7bt2/ZRBQaGhoYNWoU+3j5/fv3+PPPP+Hh4cHZJiQkROzYVa9evYKbmxtsbGyELo+Ojsa2bds4J4/v9e/fH+rq6gJPmiIiIrBlyxaRAw8fOXIER44cwfTp06kCRFiHDx/GyZMn2enmzZuLrAB9+fIFN2/eREFBAZYvX460tDSBdczMzKCvr4+BAwcKNFdOSkrCiRMnpErwEhsbi9mzZ4scC+f+/fvYunUrjhw5InR5aGgoQkND0aFDB2hqanL60dy+fRve3t44f/48LCws0KxZM6Gxubm5Ca0ABQYGIjw8HI0aNYKrqyvmz58v8jgSEhJw7Ngxdsy4nj17spWY2NhYofs1NTWFtbU1WrdujWnTpok8xnfv3uHPP//EihUrhC5/+PAhHj58CH19fejp6WHw4MGc37mPHz/i8OHDnPHsvle/fn3o6upi4MCB1D+VVNiNGzc4N4FLGzx4MAYPHlzJEVUPtra2MmsJkp2djXPnzrHpzZ2dndGrVy+x1y+KJpczl6ampkDTtY8fP+Lz588C65bkI588ebLUT4IePXokkMlNlJCQEM4gpyXWr18vcpvjx4/DysoKlpaW7MVuTk4OHj58yEmgAPD78Jw7d05kWaNGjcLatWsF+gcJGyC2uLgY0dHRWLhwIZtEAgA6dOgAPz8/KCkpwdbWltrgysi1a9fYyo+SkhJsbGw4HTFTUlI4T4Pc3NygoqICZ2dnGBkZ4fnz5zhz5gzs7Ozw33//CXw2RNm3bx/y8/OxatUqgf5tMTEx8PT0xLFjx2BgYCAwxsDr16+RmpqK8+fP4+vXr9ixYwfnorB05UdPT0/gbsubN29ovBdSbiWVF3d3d7HrxcfHY8yYMTh9+jSMjIxQv3599kL/yZMnmDNnjshteTwemjRpAoB/rs/Ly8POnTtRUFCAZcuWoX79+pz1X716hT/++AMhISGoVauWwHfq1atXbFOziIgIuLu7IzAwELa2tlBWVoaXlxc73py9vT08PT0xfvx4APzWCyXjtSQkJCAmJkZkX88+ffqIrdQlJSUhKCgIc+fOhbKyMmxtbbFlyxb2yda+fftw7949zjZNmzaFoaGhyDJLfP78GYcOHcLKlSvLXDctLQ3jxo1DUFAQevfuDV1dXXz58gWBgYFiKz8A/4bQ5MmTERsbW2YzdkJKaGtro1WrVvjvv/9QVFSk6HCqvXHjxmHy5MkyKSsxMRGjRo0CIPn5qiqQ6zhAJdauXcsYGxszenp6QvORL1u2jMnKyiqznIKCAiYxMZFJTExk6tatK/E4QOvWrZNqPKHSr+3bt7PlREVFlbucfv36CeSyd3Z2lrqcGjVqMI8ePWIKCwsr9D/5mccBYhiGGTt2LHt83bp1Ezp2RnZ2NuPn58eup6SkxMTGxnLWOXHiBKOvry/wf9izZw9nvc+fP3PGBtDR0WGMjY0FXqqqqpxyRowYIRDXkCFD2OVDhw4VWD5s2DBOGc2aNWOSkpKY4uJihmG4n6sBAwYIbD9mzBgGADN9+nSp3tOqhsYBkq3hw4dz3s/mzZsLXS8gIIDznTE0NBT4nAs71x8+fJgt49atW0ytWrUE1tHS0mKMjY0ZJycndt0GDRpw1hk/frxATH379mWXjx49WmD52LFjOWODAfzxeUp+dxwdHUV+53r27Mn5bjs6OnKWp6WlMYMHD2YAMLNnzxb5/n79+pXx9vZmADCqqqqMhYUF8+XLF846e/fuFXhPbty4wVnn+vXr7LK3b9+y89esWcPOV1FREXr+4fF4AuWfP3+eYRiG8fT0ZOcpKyszRkZGAtvr6uoyABgDAwO5jiFSHfxI4wB975dffuF8hiQZB4hhGCYpKYnR1taW+HrH19dXzkdSPt27d2djrCrjAImSn5/PJCYmMnFxcZyxnLy8vGRSfkFBARMVFcUoKSkxtWrVYiIiIthlBw8eFPifXrlyRSb7LY+ScYAAMJWWJ3jx4sWIjY3FwYMHhS7ftGlTmXedAP6dOysrK1hZWeHjx4+yDlOuLl++jP79+1e4nMLCQrRv3x7379+XQVTVw82bN4WOX7BlyxYsWrRI7LbDhg3D8ePHpd7n+vXrERsbK/CSR9vXFy9eoHnz5uyI84RUlpo1a+Lu3bsCn/PDhw+L3a5Dhw5Cm724u7sjNjaW0ydPFvbv348JEyaUa9uzZ8+ib9++Ipc7OjqyT4/E8fLyYn/n6tevj5cvX0o9XpykzMzMEBMTI/B/8fPzk2h7Q0NDPH36VGD77/tVEUKqtqtXr8LKygrW1tZyafnx77//wsHBAUpKSrh9+7ZMk5fJU6U13lVTU4Oamhp69uyJJ0+eoKCgAH379kVSUhIA/ng6pTu+iVJUVMQ2RZDUqlWrsHPnToH5586dg6WlJWfe48ePMWbMGM689evXIy8vT2Sb7t9//x1jx44Vumzu3Lm4fPkyAH4u+5L2kQAwZswY/PPPP5z1GzRoILTfRnBwMJsmm2EY5OTk0CNkKRQVFXHe+xKlP3cWFha4cOECzM3NOeuoqKigU6dOuHz5Mvr168eO+7Rq1Srk5ubi119/FbrPGjVqQFNTU2B+WFgYXF1dER4eLnS74cOHs5kKXVxcsG7dujKPr7i4GNnZ2ez4UaXdvHkTQ4YM4XyuvLy8oK2tXWa5hHxvy5Yt2Lx5M2eehoaGwGe9e/fu+PvvvzFgwAB23tKlS5GTk4Np06ZBWVlZ6DAGampqAmWdP38eLi4ubJ/Is2fPwsXFRWRH/fPnzwtNliCsGbYwV65cgbOzM9uns2bNmvD394eenp7Qfebm5uLbt2/47bffRP5OLFq0CAcPHmTPN0pKSkLPD+W1YsUK7N69m50uKf/7PjpDhw6Furo6+5t19uxZkdkqNTU1BWIUNk4LIaRqOnr0KJYuXSr0utnHx4dtUlxeoaGhWLBgAXJycthz+o8yBmOl917U1taGtbU18vPzBU7MFy9exIoVK7BmzRqR29vY2ODs2bMA+Kl8vx/x9unTp5g8eTL27dvHDlT16dMnoSPjNmzYUOBuvLm5OQIDAzFlyhTk5eUB4P9ofvnyRWRMJZ1Thfk+icK7d+8wcuRI7Nu3D2/evBFIwKCuri60LB0dHaioqHA62i9atAjr1q1Dt27dRMYmzvr167Fy5UqBSlh1paamJvL/qKmpKfBZEfW5KkuDBg3EVj5ev36NzMxMAMCtW7cwa9YsgXWkefqXlZWFa9eusR1JN2/ejMaNG2PBggVVanA58mP48uULW5GoU6cOdu/eDX19fYH1tLS0BPrJfPz4kZOSWVKNGjWClpYWO52eno63b9+y0zNmzMDDhw/Z6YyMDJHJbSSRmZkpMM5OnTp1UKtWLTg6OgokPClhYmIisi/rhw8f2Bt+rVq1gre3d5lxqKioYN++fSLPS6VJej7S1dVF//792d/Rbt26cd7bEhkZGXB2doaKigpWrlyJNm3aAAA6duwIPz8/sUljCJGVPXv2QFNTU2w2SSJaSkoK3r17J3TZly9fsHfvXnz79k2ifoPCpKWlITY2Fqampti3b5/cnmjLg8LSt6ipqWH9+vVYu3YtYmNjAfArB6WznglTq1YtDBw4EAD/Lva6desQExPDLk9JScGVK1fAMEy5RurV09ND7969BWqwV65cwf79+2FraytVeVOnTkVGRgauXr0KgP/DeuHCBakvPOvWrSvwWPH27dtC06VKqn379qhTp065tyfy9/btW86Fnii1a9fGypUr2YqVq6sr0tPTcenSJQD8SlDJBY+GhgZMTEzg6OhY5jglhJR24MAB9ok2wL+hVRXS0167dk1oxYrH42HVqlUiByKtWbMm+0Rj+vTpyMzMxPXr1wHwK2uln+5OnToVw4YNA8MwbGVAUj4+Pnjw4AE7bWRkJPGNqx49esh8MGw9PT32d7S03r1749WrV2yClpJmfUpKSrC0tETPnj3h5OSEMWPGQFNTU+qByAmRVunhU4j0unbtCn9/fwBgky6VTh4WFxfHpu+X1rlz59hslJqampyn/T8CVUNDQyQnJ+Pq1ato3rw5unbtWik7VlZWxqRJk7Bnzx62AiQtFxcX5OTkYPv27Xjy5ImMI+R68OABzp8/L3UFqH///rh8+TJbASJEGq1bt5boQsnMzAzTpk1jp/v27YurV6+yFaDSSpr1xMbGQklJiZMKmBBxLly4wLmQr4ratWvHNuni8Xj49ddfJUrVPGDAAHasr+vXryMpKYm9cAD4aV7nzJmDVq1aSR1TUFAQO7Cyra0thg8fLnS9f//9V6FP5O3s7NC3b1/s27ePM//MmTMA+Jn73r59CxMTE0yZMkURIf6UwsPD0bJlS6H9VH8mCQkJ2L17N/s9A/gp4EuGCElMTBTad/Dhw4c4ffo0hgwZUmmx/ixatGjBNgcuKChAZmYmdu3aJbZVk6QiIyPZcQozMjLg4+MjsM73GS0B/vkwOjoa7du3R8eOHSscR3mpmpqaIjk5GSEhIbCysqq0CpCszJgxA3fv3hVbAWrdujUiIiKq3F2EHj16ID4+/odL5kAqj4ODg0B/C0m1aNGCvdDKysoSuLA6d+4cCgsLoaGhgU6dOlU4VkKqAnNzc4wcObJcHXGHDBkCFRUV1KpVC+np6ZxBiA8cOAAAGDRoEMzMzNChQ4dyxde+fXuRzXnOnz+PEydOlKtcWbGwsMDw4cORn5+PCxcusH0eAX7F8Pr162jQoAF0dXXRr18/GgdIBk6fPg1LS8ufvgL0/v17gfGpnJyc2HT4sbGxyMjIEGglc+PGDejr61MFqIJq1KiBVatWIS8vD3/99VeFrj2joqLw4sULdjolJQULFiyQaNuSPvnLly9XaAWoSvVUMjIyEjm2QkXMmDFDILGBtExNTQXGnSgPDQ0NtGzZEqqqqti4cWO5f0SJ7BUUFODBgwc/Tb+Y8ePHIzg4GMHBwdi1axfs7OwExo76559/xPa5I6S0+vXrw9TUlJ3Oy8tDdHQ05yJZ0UJCQrBly5Yy18vJycGjR48Exu0aNGgQgoODhd54OHDgAIYPH46NGzdKFAvDMHj8+LFEiXvi4uI4d2XV1dXRqlUrgeZ7qampiImJgbq6Olq3bl3hpATPnj1j+xwC/Ox8wcHBOHz4MNq3by+0mdubN28wceJEoYllCCkvKysrBAYGomPHjjJNEEK4Nm7cWOGKh5+fH9ua5EdVpSpAQ4cOxfbt2xUdhlATJkyAp6cnVFVVoa+vz+lflJOTg9zcXInKadiwIW7cuAFdXV15hUqEUFNTg56enth1Pn36hDZt2kicKaos0nwuRMnPz8fXr1/FrlNYWIi0tDSkpaWxWeCys7PZJB4AUK9ePURERKBhw4YwMDCgTE6kXDZs2AAXFxd2OjY2Fh07dkRycrICo+L3aSlduS8oKChzkOxnz56hZ8+e7EX8169fkZaWxn5nVVVVYWBgAAMDg3I/5cjLy0Pv3r05A1oLk5WVhUWLFmHv3r3sPAsLC9y9excmJiac8o4ePYqpU6fCzMwMUVFRqF27ttAyi4uLkZaWJnJgZoZhkJaWhqFDh+Lff/8VWK6np4ebN2+iVatWMDAwQM2aNQW2T09Pp2ykRKZ0dHRw7do1uQwXQWRHW1ubPT+KewlL+MTj8WBgYKDwSm6VqgD9CFq0aIEHDx5w/qmrV6+WKFUxUZwuXbqwqaUry7Jly+Dl5VWhMvbt24cZM2aIXackx3/z5s2RlpYGAJg9ezYnJS7Av6McGRmJ2NhYNiMcIT+DK1euwMHBgZ0+c+YMhg0bJlUZU6dOhZWVFXsub9asGTv2jSRZ2CrC2dlZ6PAH3/P19cXChQslKjM+Ph6NGjUSmQEqKSkJTZo0Ech2972LFy8iNjaWU/EF+G3+W7RowWkGQwipHnx8fISOc/j9a9OmTQLb/vXXX4iNjRU5ZEBlUVgFqLCwEL1798ajR48AAG5ubiJTi8rC1KlTsWHDBs68IUOGICIiQqpylJWVBVJb5+bmlvtO/6ZNm/C///2vXNsSvuDgYLRs2RItW7ZEu3bthN6NVlFRkXjcmwEDBiAqKqrM9VauXMm2XRYmNzeX8xSmPPLz83H27FmMGjVK6PJjx45h5syZyMjIQGZmJnu3NycnB56engKfeR0dHfB4PIGmcIQAgLe3t8CF7o9AW1ub85SmsLAQERER6NWrl9Dx5S5fvoxx48Zx5uXk5CAjI4P9ziorK4PH44HH4yEoKAg9e/aUW/xfv36VqOltXl4ecnNzYW9vLzDw6urVqzF79mx2uri4GBkZGRg4cCAiIyM56z5+/Bg9evRAcnKywBOcS5cuYfz48ey0lpYWeDweVq5cif/++4/t6FxcXIzMzEx6AkRINaShocGeH8W9hDWh1dTUBI/HU3hLFLn0Xvzw4QPc3Nw481xcXDB06FAA/HF1ZsyYgVu3biEvLw8LFizA9OnTYWFhUeF9W1tbY8uWLQJprI2NjVG3bl3OvBcvXpTZTALgp0ctXUnh8Xg4duwYZs+ejbi4OAD8O47GxsZYsmQJZ9uNGzciLCwMANC2bVuBtuOWlpYwMjJipz9+/IhRo0Zh9+7dZTaT27hx4w+XtELWDh8+DG9vb/z3338A+GltS2eYKcvYsWORnp6OrVu3AuA363j+/LlAs7Nnz55h/vz5nOYkFhYWnP4Q5RUREYHffvuN7XPg5+eHJUuWsBctGRkZuHjxIvv9Ke3t27eIjY1FvXr14O/vDx6Pxy77/Pkz9uzZg6KiIixfvrzCcZKf3/fnI2EmTpyIrKwsBAQEAOA3N5s0aRL8/PzKbLYyb948jBw5UmbxlrZy5UooKSnhwoULAPjNQG/fvs2OZVPap0+fwDAMDh8+LPADHRYWBiMjI865vFGjRtiwYQPWrVvHns/LS9h3uaynKMuWLcOzZ8/w4sUL9OzZE6tXr0aTJk0A8Pu4zpkzB82bN+c0lyvx/PlzzJ8/nzM+R2pqKpsUaMeOHWxmu9DQUGzYsEHoEBK1a9dG7dq18fr1a+kOmBBSpSxcuBC3b98GwL/hK+rhQ2BgIE6ePAmA//2vql1Uyku1pNPliBEjZJZhIzMzE6dOneLMS05Oxo0bNwDwB066cOECVqxYAR0dHfTv319k8oNt27aVOQ5KSQ7ztm3bYuHChSLHNmndujXmzp0LX19fdt7OnTsF7qTl5OSwF9HTpk3DrFmz0KxZM3a5mpoaBgwYwLnYfP36Nfbt2ycwEN3Zs2fRokULzJkzB/Xr1xea5cXR0RFxcXEICgpCZmYmQkNDoaenh2XLlrGVtoiICDZzhqqqKlasWAEXFxeRg+5VF0+fPmUrPwDYAb20tLTYdL0dOnTAzJkzhW7fuHFjTJ8+HcXFxZyUt9u3b+c0Sfn06RMuXrzITs+aNYuTwCIuLg5//PFHue6Gfvr0CeHh4ex0t27dBCpWGRkZAt+p0nR0dISO6xEbG4v9+/cjJSWFM7+qpzImVVezZs1gY2PDThcVFbHn8+/PR+np6ZzpVq1aya1tf4cOHWBpacmZl5eXx6Zw/p69vcdv/9oAACAASURBVL3QMYxEncsBiMyatGDBAnh6eiIsLAxWVlZs9sUaNWpg7dq1+OOPP9ibZXFxcezf4qSkpGDevHkA+E+5P378iP79+2P+/Pno1KkT0tLSsGbNGhw7dox9Qty3b1+8evUKgYGBnLKE9fEp0aNHD7ZyFBMTg3v37sHU1BQeHh7w8PAQOYaSlpYWPDw8RPZBIuR7devWxfr167FmzRr2yWxISIjQZpilxzjs2rUrpV2XQF5eHtasWcO2SHJychJ6kzw8PJx9f+vVq4f27dsLLe/Zs2fsdYe+vj40NDTg4eHx0/RhVy1pLtStWzd06dJFbju6desWbt26BQAwMDCAu7s73N3dBZqTfS8oKAg3b94Uu06fPn3Qu3dv2NvbY8SIESLXa9y4MZydnTkVoNDQUIH1tLS0MH36dKiqqmLatGlo2rSp0PLGjx+PXbt2sV/e169fc8oGgMGDB8Pd3V3sk5rOnTvj8ePHbEaNwsJC7N69G1paWuwPekREBEJDQ6Gvr4/JkyfD3d2dUwErj5CQEDx9+hTt2rVD3759K1SWonTu3Bn37t1jx1n69u0b9uzZwy7v1KkT3NzchD49KdGsWTMMHz6cUwEKDg7mrGNhYYG5c+ey07NmzWIr7S9fvkRAQABnvwB/fANh6aUDAwPLvAAaPHgw3r9/zxndXpT69etzmqx8LzY2VuBzWaJFixZi3xtChLGxsYGTkxOnUn78+HGx24wcOVLkubS0yMhIXLp0iXMj6+DBg/jw4QNnvfj4eOzbtw+TJk1in/j37NkTGhoaePXqFf7++2+h5bdp0wadO3cWaBFQmrBzuTijR4/GyZMnERwcDBsbG7YCpKKigqlTp2L//v1Cv/OqqqqYNGkStLS0APDP8yVPftPT0zkx9O3bF3PnzmXH7crMzISfnx+b+ATg3wScO3cuDA0N8fXrVxw4cEDoTRkzMzO20iRskNUvX77Az88PPB5PoAJU0mxdXV0dM2fOrPDvEPk5vHr1CidOnBD7hNfExATu7u7IzMzEvn37kJycjGvXrontn9u1a1e4u7tj0KBB8gj7p5Kfn4+dO3eyfYHj4uIQHR0tsF7JzZ0uXbqgR48eEpWdlpaGbdu2Yd68eVJVgJo1awZnZ+cqmTFOLk3geDweBg0ahEuXLnHaX1tZWcHW1hbm5uZCO0aVR+fOnbF48WKJ/4kGBgZwcnICwO84W7oJnIWFBdq0aQNdXV14e3uLvPNVYuHChSgsLBQ60FOJJUuWoF27dmXGZWVlhQ4dOnD6JJVO5VqvXj04OTmhdu3a5R4X5nvbt2/HnTt34OHhIdAe/kcxaNAgfPz4UWCgWQcHBxgYGGDcuHFiK8UlDA0N2c+FMM2aNcP69euFLktISMC7d+8Etu/YsSMaNGjAThcUFODSpUtYtmwZ3r9/z843NzcXqCC7uroC4DeHE5ZBqm3btuydV3t7eyxatIiz3N7eHoWFhYiNjeU8IQP+770B+BdVZSVZIOR7HTt2ZMfzKCoqwqVLl4T2d9PW1mYv2Es32xLnwoULMDEx4VSAIiMj0axZM86TeID/ZKN082RnZ2c4Ozvj1q1byM7O5jxZ7dChA0xMTODk5ISJEycK7Lddu3acptMZGRkCF2YtWrRAgwYNYG9vLzL+2NhYREZGcs77Dg4OQpvLqqqqwtPTE/r6+gCAI0eOYPPmzeyNDyUlJfTp0wcaGhpwd3dnB0VOSUlhBznu3bs3p9li69at0bp1a6SkpCAtLU1oBahx48ZCU3k3atQI9vb2uHfvHpuZThg9PT0MGDCA+hJWQ3l5ebh06ZJAavf79+/D19e3zCauWlpa2LhxI3Jzc3HixAmRA3J2794durq6cHV1pcpPOZ06dUpoy5GuXbuiVatWmDhxotjrntK0tbXRr18/oX16xLG3t8ecOXPYCtD35ytFkksFqE6dOggKCsKAAQOQmprKzh85ciR+//13qcpq2LAhZ4yC7/n6+qJ169YSl9ekSRP2qY+TkxPnrly/fv0kHt+hhLTHI0q/fv2go6PD6cRa2ogRI6gfhwiGhoawtbXlzNu2bRunmU5ZmjdvLvRpoCQcHBw4GahKrF+/HpcuXWLvemdnZ2PdunXQ19dnL3gA/glB2A0BV1dX1KxZU+iyDRs2iK30l2SKCgoKEqi4+fv7syND/8iSk5NFZrgi5fPu3TskJSUBAHR1ddG4cWOR69rZ2SE0NBQFBQUYOHAgu11pdevWFfu9UldXF/julmxXWkl/I0l17twZ/v7+nCejmzZtEjvg7/fn8pcvXwokH1m4cKHIm0X16tWDsbEx/v77bygpKeHs2bPsMk9PT4niHjt2LDQ1NbFq1SoA/CdIhw4dEujb8+TJE3Yw1V27dsHKykqgrFq1agk8yS7L0KFDoa2tXWamuWbNmuHw4cNSlU1+DpmZmVi9ejUMDQ1haGjIWSbNOI5+fn4AwLlJUdrOnTspFbaUVFRU0Lx5c2RmZuLdu3dsE2RdXV3Uq1ePXW/Hjh0CN5OEMTMzY8/PlpaW5X6Ko62tzZZz4MABmJubl6sceWAAMP7+/gypXnr06MEAYDw8PBQdCiFS8/HxYUrOXyWv6OhoRYf1Qxs+fDj7Xg4ePFjR4fxwFi5cyABgBg4cKJfy8/LymIyMDObixYuMrq4uo6ury8TFxcllX0T+7Ozs2O+bm5ubosMhUujevTv7v3NxcVF0OALGjx/PniNGjx6t6HCqjJYtW7L/N7k8ASKEEEKIbPn6+sLLywvt2rVDbGwsAPw0HZIJIbITEBDAZrelpqrC0UCohBBCOEaPHs3pg0ikc+vWLTg7O8u0zFWrVsHPzw+dO3eGn58f25T2+yEfSNX39etXdO/eHS9fvgTAzyIo6QC3hEhCW1ubPUdIOgZidUNPgAiCg4NhZGSEX3/9VdGhEEIUZNGiRbhz5w4AwMjIiJPAg0jGxcUF6enp2LNnD/755x82AcuGDRuk6h9RgmEYzJw5E8nJyYiKikLXrl3x22+/lassUnUUFRXhv//+Q05ODgB+IhxZjINIKsesWbPYcbRGjhxJ104/KKoAETx//lxsJjtCyM8pPj4e3t7eAPjp2RMSEuDo6Eip0cupefPmmD17Npo0aYKEhAR4eXkB4A/QbGpqioEDBwodC+57r1+/xs6dO8EwDI4ePYrMzEyMGTMGbm5uUiX9IYTI3oULF5CYmAiAn1irTZs2Co6ISGvIkCFUASKE/JhatmyJAQMGiBzvhZQtMTGRrQAB/FHB586dK9FFOhHO1tYWtra2SEhIQFZWFg4dOoS//voLAL9i8+zZszLLePnyJbZt2wZlZWW4uLhAW1sbEyZMQNu2beUdPiGE/PS6detGFSBCyI+pe/fuSE9PpwpQBZSM2Vbi999/R4cOHRQY0c/DxMQEvr6+yMrKQnp6Oh4+fIjTp0/j9OnTZW5rZGSEQYMGQVlZGZs2bRJIN0wIIaRiqAJECCHVlJWVFc6cOaPoMH5aNWrUYMfLWbRoEc6fPw+A3wm+9Bh0JUxMTGBkZIT27dtjz549lRorIYRUJ1QBIoQQQuTMy8uL7RN09epVDBkyRGAdygZGCCGVgypAhBBCSCXq0qUL3r59KzBfS0tLAdEQQkj1QxUgQgghpBKpqanByMhI0WEQQki1RSOoEUIIIYQQQqoNqgARQgghhBBCqg2qABFCfkiPHj3CxYsXFR0GIYQQQn4wbB+g58+f48KFC4qMBXXq1IG1tbXMyrtx4wZycnJkVp482NnZwcTERO77+fz5Mx49esSZl5qaylku7/8/j8dDx44d5bqP78XExODNmzeVus8S1tbWqFOnTqXvNyIiAhkZGZW+XwDo2rUrNDQ05L6f58+fY/v27di9ezdn/r///ov4+Hi57x+Q/fmqvAoLC3H9+nUUFRXJdT8dOnSArq6uXPchrfz8fISHh6O4uFjmZSvifCXK3bt3OedreVDU+UpSsjyXa2hooGvXrjIpSxZevHiB58+fo2nTpiLX+fDhA54+fVrufVSV81VFFRUVITw8HAUFBWLXq6zz1Zs3b/D48WO0aNFCbvtISEjAw4cPRS43MTGBnZ2d3Pb/s1ICwCg6iBKjRo3C6tWrZVZenz598P79e5mVJw9+fn7o27ev3PcTGhqKpUuXyn0/4lhbW+PkyZOVuk9fX1/s3LmzUvdZYvXq1Rg1alSl79fZ2RmPHz+u9P0CwKVLlyrlImrdunUIDAyU+37EGTlyJNasWaPQGAD+jYxevXrJ/WZPUFCQXH/kyyMxMRG9evUq82KoPJo1a4aQkBCZl1seEyZMwL179+S6j1WrVmH06NFy3UdFbNmyBbt27ZJJWbVr18bly5ehrKyYRjBZWVno1asX50bVhAkTsGzZMpHbHD16tELXR87Ozli7dm25t68qsrOz0atXL6SlpYld78SJE7CxsZFLDL169cLHjx/ZaScnJ2zcuFEu+wKAf/75B25ubmLj8ff3l9v+fyZDhw7F8+fPsXTp0qpVASKEEEIIIYQQeaI+QIQQQgghhJBqgzMO0NixYzFnzhxFxYKwsDCRjxGnTp2KSZMmVXJEPzc3NzdERUUBAPr37w8PDw+57u/Vq1f43//+x5k3d+5cjBw5Uq77JZVn5MiRnKYB3ztx4gQsLCxksq/jx4/Dz8+PM+/PP/9Ew4YNZVI+4ZoyZQqePXtW7u137dpV5ZrQiRMTE4OJEydKtc2cOXMwduxYOUUkX5s3b5ZLk7+DBw/il19+kXm5FZGYmIjhw4fLvd9cYGAg6tevLzA/Ozsbw4cPR2ZmJjtv5MiRmDt3rtxiOXv2LP744w+Zl7tkyRI4OjrKvNyKmjp1aoX6TJWHqakpgoODK71p5c2bN7F48eJK3ef3zM3NERQUVGn78/b2rnCXCrYCNGnSJPz6668K7UhlbGwsss2mjY3NT9GBryrh8Xjs34aGhujQoYNc99ekSRMcOXKEM69169ZV7seRlN+OHTvw9etXkcv79+8PbW1tmezLwMAAKioq8PHxYefZ2NjA1tZWJuUTri1btiAlJaXc2/fu3RuGhoYyjEi+mjZtKnC+KoudnR2aNGkip4jka+nSpRgxYoTMy+3Xrx/09fVlXm5F5OTkIDAwEAwj3x4AAwYMENoRv7CwEPv378dvv/2GuLg4TJgwAXPnzkWrVq3kFouJiQmaN28u83Lbtm2LBg0ayLzcivLx8anQ+UqcuXPnIjExkZ12cHDAjBkzoKWlhY4dO0JJSUku+xWlbt26Ck9goq2tLfdryNKWLFmC4cOHS73d77//jri4OAClkiD4+/tj9uzZMg2QVG09e/bE1atXAfA7YP75558KjogQ6YSGhmLYsGHsdHR0NFWACCE/hFatWuHhw4fw8fHBvHnzFB0OkVBAQAA2b96Mt2/fokePHpg3bx4GDRqk6LCIBOzs7BAdHQ2A+gARQgghhBAikZkzZ8LS0hIA0LlzZ6r8/KCoAkQIIYQQQgipNpTV1dUVHQMhhBBCCCGEVArlRo0aKToGQgghhBBCfijFxcUoLi5WdBikHKgJHCGEEEIIIVLaunUrFixYoOgwSDlQBYgQQgghhBApZWZmIjU1VdFhkHKgChAhhBBCCCGk2qAKECGEEEIIIaTaYCtAd+7cwb179xQZCyGEEEJItXL37l1ERkYqOgxCqhXVkj8CAwNhYmICe3t7RcZDCCGEEFJtHDt2DMbGxmjXrp2iQyGk2qAmcNWYmZkZdHR0FB0GIYQQQgghlYYqQNVYYGAgRo4cqegwCCGEEEIIqTRUASKEEEIIIYRUG6plryI7Z86cgY+Pj9h12rRpg02bNlVSRMKlp6djzJgxyMvLAwDMnTsXQ4YMEbvNyZMn4e/vL3TZ7NmzMWLECJnHSQQVFhZi7NixSE5OBgBMmTIF48aNU3BUZXv16hWmT5/OTq9fvx4dO3Ysd3mrV6/G9evX2WlLS0scPHiwQjESUhUEBgZi3759AAAjIyMcPXoUKioq5SorMzMTY8aMQU5ODjtv5MiRmDlzpkxiFefjx4+YMGGCROtu3boVLVq0kHNEhChGUFAQduzYwZm3d+9eNGjQQEERkeqg0ipAwcHB8PHxQUREhNj11NTURC67desW9u/fL3J5p06d4OrqWu4Y7969i507dyI3NxeXL1/Gt2/fAAD5+fkoKCiAs7OzwDZbt25FdHQ0nj59irt37wotNycnBwUFBRg7dmyZMcTHx2PZsmUil5uYmGDDhg0SHlH18eTJE/j4+KCoqAh///03e0GTlZWFK1euCKy/dOlSNGrUqLLDFOr+/fsCFZYVK1ZgyZIl6NWrl9TlrV27FocOHUJsbCw7r2nTpjKJlRBFe/fuHftd0dLSgqurKzw9PWFiYiJ1WYWFhbh58yaysrLYea1atZJZrMKEh4fj0KFDyMjI4HznxVmyZAlMTEzg5OQER0dHucZHiKS8vb3x9OlTAEC7du04N/EkIe76acGCBTAwMMCYMWPQu3dvmcVcnRw/fhwXL14UumzWrFlo06aNzPaVnJyMRYsWlbmep6cnjIyMZLbfiqiUCtDJkyfh5+dXZuWndevWIu+IhYeHw9fXF6dOnRK5/cOHD6GqqoqJEydKFd+5c+dw//59PHnyBEFBQez82bNnw9DQEACgp6cnsN2uXbsQEBCAFy9eiC3/7t272LZtG1RUVDBq1Cih60RFReHvv/9GUlISDhw4ILIsQ0NDaGtrw93dHdra2pIc3k/typUruH37Nl6/fo3Dhw8LLL9//z7u378vMH/y5MlVpgIUFxeHM2fOcOZduXIFjo6O5aoAnTlzhlP5IeRnlZ2djUOHDmHZsmXlqgBVppCQEDx58gT3799HWFgYAEBVVRVubm4ik9EwDAM/Pz/8/fffAPiVv+joaNSrVw8uLi6VFjshJbKysrB161YUFRXh8OHDeP36NQAgLy9PogpQbm4u/Pz8UFBQgCNHjuDly5dC1zt9+jQA4MuXLyguLkbfvn1ldxDVQFBQELZu3Yp///1X6PLs7Gy4u7tXqKVJibi4OPj5+Ym9di2hq6sLd3d31KtXr8L7rahKqQCdOHECt27dErtOq1atMGfOHKEVoNu3b5dZ+QGA6Oho7N+/X6oK0JUrV+Dt7Y1r164B4DepGDBgAABg2bJlMDMzE7ntjh07OJWfunXronv37px1rl27hvfv3+POnTvw8vKCpqYmBg8eLFDWvXv3sHLlSs68AQMGsDXlV69eISIiAsnJyVi1ahV0dHQwZsyYKlOTVpRLly7B09MTAP+L5eTkJLBOTEyMyJNAVWBpaYlBgwbh7Nmz7LwePXqU+6nNwIEDkZSUhLi4OFmFSEiVpKmpieHDh4PH4yk6FLHOnz+PTZs24c6dO2jcuDH7G6WqqgoPDw+hN9gAfgXo69evSElJAcD/jVu5ciWaNm0KbW1tDBs2rNKOgRCA32x09erVKCwsLNf22dnZWL9+Pb5+/crOs7a2Zp9G5OfnIyQkBAUFBQD4353i4mKoq6ujW7duFT+AauDcuXPw8vJCVFSUyHVOnDgBZWVlqKioVCj9+uvXr7Fv3z74+vr+P/bOPB7K9f//L2vWtAhHISolac9JORWl5fSpSItOu5I6lLTqtGg5Tkoq0n5Oi6O00J6TtGiPUIhoQdZQsi/D8PvDb+6vu5kxM8wYy/V8PDwe7uu67ut6z8x9X/f9vq73wlf7gwcPYsqUKW1DAXrz5g3lj6GpqYmePXtybLds2TKuvhrHjx/HtWvXoKGhAX19fVpdTEwM8vPzqeOCggKEh4fD2NiYp2wRERH4448/qK1XNTU1WFtbs9mi/khVVRXCw8NRUlJCKx8yZAibn8X06dORmpoKAIiKisLmzZvZFKDk5GRqFaUu27Ztoy7MmzdvYvPmzYiNjUVVVRWcnJwwdOjQNq0AJSQkID09nTr+6aefOPq5sCaD8vJyrmaK4mTo0KHw9PREYWEhVbZz506MHDmyQf25uroiLi6OKECEVom2tjZGjRoFoHbB6vTp01x9gCorKxEeHo7q6mr069cPHTt2pNXLyMhg5MiRePLkCdt8Lgyqq6sRHh6O9evXIy4uDrq6urCzs8PatWv5Ol9CQgKenp7U8ZkzZ+Du7o53797B0dERXbp0wbBhwyAnJyd02QkEYVNcXIwXL16gurqaVj5x4kTs27ePalNYWIjHjx9TSlJwcDDk5OSIAsQn27ZtQ1RUFM92Fy5cQEVFBXbt2gVDQ8MGjfX48WO4u7sLdE5sbCwMDQ3FvmsvcgXI3t6eeumcNm0aT+WCGx06dMD8+fOxd+9eWrmNjQ1u375N3SjR0dGYOXMmkpOTISnJOcgdk8lEVlYWbGxs8OnTJwBA+/btMWvWLBw6dIinLAUFBZg4cSLNbrwxHD16lGdwiClTpqBdu3ZkG7gO27dvx8WLF3m2mzx5MiZPnoxPnz5xVcDFjb6+Ph49esRX2+zsbGp1TFlZmevqMYHQGpk/fz5fwQMYDAbi4uJgYWGBsrIyBAUFYdKkSbQ27du3x3///Yf+/fsjNjZWqHJWVVUhOTkZU6dORW5uLlRVVbF+/fpGBVhYtGgRlJSU4OjoiKysLIwaNQpJSUnQ1dUVouQEAnekpaWhpaWFtLQ0gXeB3r17x9OHTUlJCbdv38agQYPw5s2bxoja5qipqUFmZiYqKyvRpUsXyMvLc2yXnZ2NiooKAMDVq1dRUVGB27dvCzxeQUEB8vLyANReF5qammxtSkpKqB1sFqtXr4aysjJsbW0FHlOYtJgw2M7OzpSpU13Onz8vcIS1nJwc9O7dG0lJSVTZihUr4O3t3Wg5CQRRM2XKFOjq6kJXVxfbt28XtzgEQrPkzZs3GDZsGBXNs6n5+PEjDAwMKAuIQ4cOYfny5Y3u19raGv7+/o3uh0BoCOrq6vjw4QNRupshRUVFGDhwIN6+fYtjx44hOTmZ41///v2FMt6BAwewceNGALU785zGYu3sNUdahAK0b98+rFy5EhISEmx1kpKSHMu5ERUVhREjRqCsrAw1NTVUuYSEhED9EFoeOjo6eP/+PcdVipZAcXExhgwZgpiYGDCZTDCZTDZTAgKBUGv2am1tDSaTSZvnm4pHjx5hwoQJ1PiBgYGYMmWKUJ4xEhISNOsGMzMzvHz5stH9Egj8ws26hiBeampqwGQycf36dUyYMAGSkpIc/4RFdXU1qqurMWLECDx8+JDjWM15wUZkV3F5eTlmzpxJi/Bx8+ZNWFhYwMLCApMnT8b379/56ktNTY3Ndpsb/fv3x/nz57n+yOXl5UhJSaE9FJ2dnbF06VK++gdqzSZu3rwJPT09WvmzZ8/qNW8YMWIETp48yfc4BOEiLS0NPT09vnKGrF+/HhYWFvD19aXKcnNzMXHiROoa/u+//ziea2trS7Vh5SsRBkwmE8nJydTWNYEgTH7//XfqurWwsMC2bdvELVKDKS4upvkHNjUlJSVITU2FnJwcAgICMG7cOCgqKtZ7jru7O+37/zGYj4eHB/z8/AAAAwYMwLlz5yAhIYHPnz+jrKyMp0wHDx6k9T979uwGO7ITCGfOnBFqGGVC41FSUsK1a9dgZmbGc75hMW3aNPz1118NHnPSpEnw8fGBtrY2x3plZeVmu+gsMh8gJpOJx48fo6CggCpLT0+nHkrS0tJYuXIl5OXlYWdnx1fQAn7o0KEDV+fx8PBwNmctZ2dn2NvbC5RwS0ZGBqNHj2YLQ52Tk4OAgAAqfxBQG5qbhaqqqkDRNnbv3k0LcpCRkcH3uW2RL1++wM7ODkBtnp8fFVSgduVq7969HENgf/v2DS4uLgCAoKAgZGZmYuTIkXj58iX++ecflJSUICQkhNp1YUWr+ZGrV69SgTlyc3Px8uVL6OnpYdOmTfXKX1paChcXF5SVlcHR0REDBgwAUGvKc/jwYTAYDFrCRgB48OAB7Ozs0K1bN7Yogj9SVVUFFxcX2j3JQl1dHX/++We957cEdu7cia1bt2LgwIHiFqXFUF5eDhcXF1y+fJky1wJqoydmZWVRx5s3b+Y7cs+TJ09oiwcslixZguHDh1PHX79+5XhfjBgxAosXL+bYd1BQEK5evUorc3Nzg5qaWr0yeXt7U/fr0KFDuYbsDQkJoeaRH5k9ezbP0PShoaGUObWkpCR++eUXrlHqmEwmNm3ahO/fvyM0NJQWDKd9+/Y0OR4/fkwFCvrxOefp6QlZWVmOz74tW7YgOzsbT58+pUUtVVBQgL29PXbv3s2XM7K/vz8ePHjAVu7q6opu3brxPJ/QujAxMUGnTp2E0tfdu3fZ7rm0tDTq/3HjxsHR0VEoY7VmpKSkqAAx/NK1a1fqXUNQLC0tMX78eAwaNKhB54sDV1dX7Nq1C1FRUU2XCPVHqqqqcO7cOQC1YRUbGo/cz88PMTExfLX9+PEjW76V79+/IyAggOs5NjY2XJUjOzs7HDp0CO/fv6fKvn79ir///putrbGxMWbNmsWxn7Fjx+Lt27dsOwqsOPg/IiUlBUdHR/LQ+YH8/Hzqu5eSkoKWlhbMzMxo15WEhARsbGw4nl9UVMT22z158gRxcXEcr5EnT57gyZMn9coUHR2N6OhoaGlpQUFBAQ4ODpCWpt92CQkJCAwMRFlZGU6ePIny8nKUl5dj1apVGDZsGFJSUjheUwAQFxeHuLg4GBkZ1asAffv2DW5ubjhx4gTH4B2s/FIODg5cc5K0BK5cuYL58+cTBYhPcnJy4OPjg5MnT6K0tBQzZsxAnz59ANQqQHWvu2XLllEKUFRUFNcdUKA2wiantAUFBQW0h+337985XtuVlZUcFaCgoCAcPHgQISEhtPINGzbwVIDu3LlDk4ObAhQbG8s1IEJWVhbCwsKgr6/PMTE2AMTHxyM4OBhdunSBo6Mj15XYvLw8+Pj44Pjx47QIkCwKCwu53vdAbdj/zZs3bvhvrQAAIABJREFU4/Dhw5TJH0sBSk9Px9mzZwHURlGtq9iyKC0txenTp6GiogJVVVVMmjSJYxLYkydPIicnB7du3eJoaicvLw91dXWMHz8ew4YN4yovgaCpqYk1a9bAx8eHCuQD1H/PjR8/Hk5OTg3KiUcQLaJOGi0KLC0t4evrK1oFSFpaGtbW1rSJ/cOHDxzDEF+6dAkSEhKQlpYWaCfo+vXr2L17N+Lj43m2jYuL45gLhlPY5LoUFBTAzs6O446Bo6MjQkJCaAoQN4YPH841zPeECRMgLS2N8vJyKh8RN9q3bw8rKyts3769zUf/MjU1xdu3b6lM1HU5fvw4AGDWrFlISUmBhoYGzM3NBR6DteKprq5Om4AfPHhAWx0HaldUp02bRjO/jI+Px+vXr5GWlobdu3fDzs6OTQGKi4vDli1baGV+fn4YNmwYhg0bBi0tLcydOxeVlZW4fv06zQSud+/eGDp0KLS0tOr9HDk5OfUGTPj69StcXV0xf/78Fq0AEQQjKysLu3btoo7nzJlD5ZZ58+YNSkpKaPmpWISHh7Nds/xw+fJlWrJpbiQnJ+PevXtsLz1Xr15lU374xczMjDLFaGjei9u3b+P27duYOnUqRwXo9evXePXqFYDaEN3czAi/fPmCc+fO0RYtRo4cSdthKy4u5roIBtTuAu3atQvnz59nMydPSUmh/T5jx46FhoYGdfz161cqQzwrf0fnzp1pLzQVFRW4fv06du3ahbS0NAwbNox6huXl5VEKMCtyqpKSElGACPXStWtX7NixAwUFBQgMDKSlMOHGr7/+SuVmJDQOJpOJa9euUZHb2joiU4DatWvHFvL62rVr2LdvH8rKythilF+8eBEqKip8KUAVFRWIjIzEihUr2F5CuXHt2jUcPnyY/w/w//Hw8EB1dTVWrlwJHR0dgc/nl7Fjx4LBYPBUgDQ0NHgqbW0FR0dHSEtLY9++fVQ48x+5dOkSLl26BGNjYxw9erTeFQs5OTmMHDkSkZGRtMhRampqmDFjBnx8fKgyCwsL2rXXvn17mJmZwdfXl6bg7Nmzh2YGyQlVVVUMGDAA0dHRHOuHDBkCPz8/FBQUICQkhKYAjR8/nq/ohQoKChy3qbOzsymzm5qaGkRERKB9+/ZECSJg4MCBcHd356gAaWhooG/fvnwtPjWEx48f488//2RTgHr27AkdHR18/vxZ4D7Xr1/PFgabG507d6Z2wlgkJCRQ4Vy/f/+O6OhoNtMRf39/nDlzBp06deJqFpKdnY0LFy5g3bp1VFn//v3h6uoKCwsLqiwpKaleBYgbubm5ePv2LXU8ZMgQuLu70/w1Xr58SSlAnCguLsbjx4+xePFilJaWom/fvnBxcaGU4/fv3yMvLw+RkZGUyXdKSgpSUlKaRYJDQvNFSUkJf//9N8LCwvhSgAjCobS0FC9fvoSdnR3f/veiol+/fmLPAQQ0QR6gulhaWsLS0hKfPn3CqFGjkJ2dDSaTSdWXlpbi27dv6Ny5M9c+GAwG3rx5w9XPh8FgIDs7m+8vt3PnzmxJ5JhMJnJycihfD09PT8p3pKGUlJQgLy9PaDazhFqWL18ORUVFODs7s8War0t4eDhmzJiBp0+fAqhVOmRlZWltNDQ08PTpU+jp6SE5ORlArWIzZ84ctizHqqqqUFRUpJInGhkZcTT5qUt1dTWysrKgo6NDU5JGjx6Nf/75R6gOpZ06dYKysjJl7qajo0N99rqcOHGCMgWqrKyEpaUlnj592uAkrE2NvLw81NTUkJOTI25RWgXfv39HSUkJZbYlIyODrl27AgDtfrG0tIScnBybQtGpUye23BM1NTVsc72ioiLHHezv37+z+bnVZePGjaiqqmrQ7hO/KCkpwdLSks38bPr06ZTv0ZMnT7BgwQKuixYmJiZUwIIfuX79OpydnQHUmuSqq6uz3f8MBoPtmu7YsSNfCxPBwcG0YDze3t7Q1NREZmYmVcbJJK6goABFRUVQVlbGu3fvMHnyZKpu7969tGN9fX38999/0NXVpXwKWXPkgQMHeMpIIBCahpKSEhQUFCAxMRFjx44VtzhQV1fHsWPHmsU7hlhiGfbo0QMJCQlsNtv+/v5YsGBBvee+ePGiXiev8PBwmJqa8h361NfXF0lJSbS/iIgIoWfWPnPmDJYtWybUPgm1zJ07l7J3r4+UlBTo6elBT08PERERfPW9atUqWiZ2Fv/++y9XXyJufP36FX379qU5OosKHx8frj4OrYkJEyaw+fURGs6KFStoL/69evWi5kV+ckd4eXmxzacfPnzATz/9RGs3a9YstnZJSUkC53QTBUuXLsWxY8eaZCxZWVm8fPkSQ4YMoZU/e/YMo0ePppV5enpi1apVAo9hZmZGzXusP9ZOTl22bNnCMdcegUBoufj6+kJPTw8TJ04UtygAalMENMTfXxSILZi7kpISnj59SjMTYDKZPMNyGhsbIzY2FomJiRyDAFRXV+Pz588wMDDgGQY1ODgYY8aMgaysLO1PRkaGre0///wDJycnPj8dO0wmE8HBwTyzIPMiJSUFffr0QZ8+fXiaVrUVJCUlYWZmhsTERMTGxnLd/aupqUFFRQUqKiowZ84c3Lhxg2ffUlJSHMNmS0tLCxxPv6amBgwGo0ly9zREvpaIhIQEx/uV0DAqKyvx119/oU+fPlixYgUkJCSoeZGfHDbS0tJs8+mPO61A7T3LqV3da/bVq1cwNzdv8jw+kpKSbH56wmL//v1swUpkZGTYvtvq6mqakzjAfS7iBYPBoOY91h+n52xVVRUtgmldli9fTj13WH/GxsYoLi4WWB4CQRD++uuvRoVpbuvMmTMHXl5ebPMJC39/f5Eull67dg3z58+njjnNd+JCsiG21MJAQkICenp6OHbsmEDO6fLy8tDX14e+vj7Onz+P4OBgTJgwgdamsrISiYmJXH9wFt27d4eCggJbeYcOHXD9+nWaz09eXh7NhACozZshSAK64uJipKSkcKy7ffs2tm7dyrMPBoOBxMREJCYm8pX7gV/u379Ps0lvaSgoKEBfXx+Ghoa4ePEigoOD672uUlNTOYaDFjazZs3C5s2bRT4OgdAQ9PT0cPXqVVqY5pycHCQmJuLKlSuYOHEirKysOEYpEzWlpaVISkoSSyLThuDm5oaAgABMnTqVFliiLrm5ufjy5QsAQEtLC7du3arX5Ls+cnJyMGnSJKo/fjE3N0dwcDDb3//+9z+u56Snp1PPHdbfx48faWaNhLZNaGgoZdpZH4WFhbCysqL58c2YMYNrwJCcnBycOHECO3bsEJqsbYkOHTpg+vTpCA4OxvXr19lMj79//46rV6+KxELp3Llz2LZtG1JTU6Guro47d+6wWQOIE2lOIXGbEmNjY1p0GkH45ZdfANQGXJCVlRWaKYysrCxfieuePXtG2WmPGzeOo/nG8ePHaTs1mZmZWL16Ndzc3Kj+r1y5goMHDyIyMpIa383NjbL3vn79OseQsx4eHti0aZNQcihlZmYiLCys0f2IGwkJCcp0RFpaGrNmzcKzZ8/w77//srU9c+YMOnfuLNIIM7q6unyZDhEI4kBZWRmTJ0+Gt7c39aBikZOTg+DgYMjIyMDJyQnbt28XaSAYYTJ06FC4uLiw5X0TJW/evEFycjJ+/fVXjgEQ/vnnH1rgAQUFBY6hfZ8/fw4vLy+e45WVlSE4OBg1NTVYs2YNV7OSXbt20fLJ9erVi+PikIKCAsfdOqA24Ey/fv14ykTmurYLK0Q8LxgMBu7du0fbPdTR0cHixYuhqamJ0tJSbNmyheYL+PnzZ2Lx0gi6dOmC8ePHo6qqCl5eXnB1daUtxufm5nL0EW4sHz9+RGxsLPT19eHq6sq2WSFuxJYHSJiMHj0ajx49ajJfgPLychw9ehS5ublUmZGREcdtxODgYNqN++3bN5w6dQpbt26lFKCXL1/S8slIS0tj/vz5lClX9+7dUVNTQ8tjAdRuLc6YMUNoSWRbIo8ePUJFRQXGjx/PVmdubg5zc3MMHjwYXbt2RX5+Ps22/8GDBxgzZgwJsUlo08jIyGDhwoUoKipCRkYGHjx4QEtXUFlZiTNnzkBJSQmOjo7o3bu3GKXljx49esDS0rJJFSBe3Lt3j3oW6OnpcV1xfffuHduzbO7cuTAyMuLa9//+9z+uv4uNjQ169uzJUz5TU1OudRMnTqQFQSAQGsKXL19w5MgRmgmmhYUFzM3N0b17d9jb26OsrAxFRUU4cuQIsrOzqXYfPnzA6dOnuSZIJvBGWloaCxYsQFFREQ4fPox3796JbKygoCA8ffoU/fv3h6OjI3777TeRjdVQJNt6LpmGUFJSAldXV75CcJuamrKFUxWUCRMmYN26dRgzZkyj+mltvHjxAgcOHOAZfW3YsGHYvXt3izbxIxBEjaOjI3bv3o2VK1fCxsaGLdiMj48P30mnCfXTq1cvrFmzhu/29vb2tF2l3NxcjuHJOREUFER7kSQQxEVaWhp27dpFS+UwdepU2iKkvLw8tm3bxmYqFR8fz9fOKIE3Dg4O9S6oNJaHDx/Cw8MDX758wYoVK2BnZyeysRqDJKdAAk1JfHw8Fb5YTU0NBgYGIhmna9eubKtgMTExIvcDWbNmjVB2GMaOHYtNmzYJQaLWg5eXV4PyZBAIhFpKS0sRGRlJ8+WYN28e/P398ddffxGTpiYmPT2dCsFfH/Hx8XB0dERNTQ0GDhwIFRUVrm2dnJwQGxtbb3+JiYkIDw9HWloax/r379/zVKJSU1MRHh6ODx8+8JSfQCC0Tt68eYN169YhNDQUM2bMwPLly8UtElckWQ8+cSQ//Pr1KxYuXIjg4GAoKSlhwYIFQtHwpaSkoK6uTovks2jRIjYnupkzZ/Lt98ItbwVB/JSVlZGEagRCA/jw4QPMzc3x6dMntghgI0eOxPnz58UkWfOjQ4cO9fqFsuobOh8VFhZi//79cHNzq7ddeXk5LZHhlStX6k3wDAD5+fnIycmh8pbV5du3b3BwcMDPP//MNVn4mjVrcPr06Xqjvh04cAA///wz1q9fX68sBAKhedGuXTuoqqo2qo/q6mpkZ2dj6tSpiIqKgoqKCpSUlLi2LyoqQk5OjlgC7LCQTExMBADs2LEDf/zxR5MNzGAw8PPPP1M20evXrxdaqENNTU18+vQJWlpaQukPAJYtW8b14UAQL35+fli0aJG4xSAQWiRFRUUYOHAg4uLixC1Ks+bYsWOwtbXlWn/48GEsW7YM//77L5YsWSJw/87OzvDx8eHZLiAgAHPmzBGo7/nz50NXVxf79u1jq7OwsEBoaCjPPlxdXUk4YgKhFWJmZoa7d+82qo+0tDTo6ekhIyMDQG2QrvpSx2zcuBG6uroCmQILG2lWThIZGRmh5dP49OkTW76btWvXUg+PlJQU/Prrr0hLSwOTyYSHhwcWL17coPEXL16M8PBwKrP10KFDcf78eZ4R3LgRGxtLJbj89OkTAGDr1q1wdHTkGiGHGzNmzMC7d+8o0wFzc3P4+PhAUlKyWewmLVmyhMpsPnXq1BZrX1tVVYX79+9jypQpAgXCcHd3b9CLSnPk48ePmDZtGgDg0qVLMDQ0FLNEhJZCTU0NysrKMH36dBw/fpxjZLLWwPLly2krkkZGRrhw4QLf58vKytabH4hVX1lZSfNx4MSzZ8/Y7tGMjAyeefCOHDmCv/76C+Xl5ejatStCQkLY8uFNmTIF//77Ly33Rnl5OYBaJe3SpUu09p8+feIrnDWDwcCJEydQVlaGAwcOUOXW1tZISEhAdnY2FixYwHMHi0CoC+t65uWjO3bsWJw4caKJpGpbSEpKQk5Ojq3cy8uL9p3LyMjg7t27UFNTo7ULCwvD/PnzaZH7duzYgYMHD3IdMysrCwsWLOAr/YuoEEkUuPLycsTHx9PKPDw8cOXKFQC1+XBY0Sf2798PGxsbtlwI1dXVsLW1pRQbbrx8+ZLyIRo3bhx27dqFXr16cWw7ZswY7Nu3j3ajbd26Fd7e3tRxfn4+TfYdO3Zg0aJFtB+8ffv2CAgIwPLlyyl77WvXruH9+/e08Z4+fUr5GE2dOhXbtm1rsI/TnTt3qAR6MjIyOHXqFDp16oSBAwc2qD+gVhFlmVKoqKige/fuDe5L3BQXF+Pjx48c6+7evQtvb2/azenh4YE5c+bQtn1zcnJga2vL09bdzs4OWVlZPO3qm4KbN28iKSkJRUVFSE5OxqlTp+Dp6YmcnBwkJCTUe66vry9fK86EtkFSUhJcXFxoaQnEnSZBmNQN8Q3UmjUXFRXB1taWlpPk2rVr6NSpE8/8XSkpKZg5cyZOnTolsPl4cXEx2zMSABYsWICOHTuyLUZt3LgRnTp1wvv375GRkYH+/fvDy8uLep5s3rwZ0dHRmDNnDubOnYvJkyfj7NmzWLJkCc20MTc3lxa9lMXOnTsxZMgQ9OjRAwCoPHtLliyh5Zv79u0bLl68SPPzefLkCQoLC2Fvbw8nJyeOCcoJBKD2uvL394etrS11XWVlZeHo0aNsu5BJSUm0YyUlJejp6TWZrC0ZJycnfPr0CUuXLoWlpSVbvbOzMxX2+n//+x9bcmYW2dnZtHlKVlaWbZEmJCQE27ZtY/P9y8jIoHaDuKGqqgpNTU2+PpMoaLIw2AkJCdQLmYaGBmVOZm1tTYV7rkt1dTUePHjA1SnzR3799VesXbsWw4cP59pGU1MTc+fOBYPBgKurKyorK2nhXn9k69atWLRoEbS1tWnlMjIyGD9+PHbv3o2//voLMTExSE5O5uq8am1tjdWrV2PIkCEc662srJCWlkatRlZWVmLTpk20JK1xcXEIDw+Huro6tm/fjunTp3NM4tpW2LdvH6Kiomhl2dnZcHR0ZGsbHx+Phw8fAqj1D9u5cyfmzp1LizLz4cMH/Pnnn7h9+zbXMfPz87Ft2zYEBASw2fgnJSVh8+bN2LlzJ6SkpHDkyBFq4uCmmAG1obivXLnC8aWEH1JSUpCSkoKuXbvCy8sLlpaW2L9/P169elXveWfOnIGPj0+zUOIaQ3R0NPbs2UMd//HHHxgwYIAYJWo5xMbGYvfu3bQyVi4yFpqamjTTX16+Jvzy4sULeHt7Y9WqVfW2y8vLw8qVK7Fz5856E4bu3LkTmzdvpkXc1NXVhbu7O7Zt28aWFHvw4MGwsbGBs7Mzbty4QatPSkrCqVOnIC0tjY0bN1LlJ0+epOYRoNZnJzg4mHaulZUVUlNTERYWBjc3N5oSZWtri7y8PK6mJosXL4aDgwPevHnDVvfixQvqfxMTE2zcuJGKCrp9+3b4+voiPT2desZ07NgR1tbWKC0thaurK5WvjhPbtm3DwoULac85FRUVWFlZobi4GNu3b6clAc/KyuI4TxoYGIgsiBGh+bFz506ei2w/oqKiAktLSxQVFdGuq6SkJDaFpy5mZmYc04wQOPP06VNERUWhoKAA9+7dY6sPCAhAdnY2rKyssHr1agwdOrTBY6WlpeHly5eNEVdsiEQBUlVVpRwh/fz8aOGi9fT0sHz5cvz+++/19iEpKQl7e3scO3YM6enpXNvZ2NhAS0uLiiXPCw0NDTg4OKCwsBBMJhMBAQE0xYWlJAG1YWF/3Oqry+zZs1FWVob4+HhERkbiwYMHAAA5OTnY2dlRW4pTpkypN8eCiYkJgFrFJzAwEJWVlTh9+jRbO11dXSxfvrxZR9VoKuTk5NhWNvLy8jj6aQ0YMIC6HiUlJeHg4MAWNYkVOONHB96RI0dS/0tISEBBQYFrSEd5eXnq/3bt2uHZs2ccX2bq8vr1a759y9q1a4eVK1fi+PHjtF2qnj170kJNzp8/ny1k+o/XsaysLJUn6Ue6du3KlzzNgaSkJFy8eJE6njVrFnR1dcUoUctBUlIS2tra9Tqta2hocJyro6OjERgYyHOM/Px8nDhxguY8b2pqChMTEzaTi0uXLtH8kLS0tChzZAkJCarcxMSEo8ySkpK0YzU1NSxatAg7d+4Eg8GAtbU1tYLcv39/jBkzBt7e3lzt1Nu1a0c7/u+//9ju58rKShw+fBj29vZQV1eHiYkJXr9+jYsXL+L8+fM0BcjCwgIPHjzA3bt3oaury5Y4e86cORg0aBBtDElJSdjZ2aF9+/ZU2dChQzFt2jQUFhbi5MmT8PHxwbhx46CtrU2brxQVFbF8+XIUFhbi6NGjtMSHPz7n6iZKZcF6jrFysrBMwn9k0aJF6NKlC9cFPkLrori4mLrufly4y8rKwrFjx2BnZwcpKSmO59e9rr58+YL79++zLWaysLKyQs+ePWFqaopJkyYJ/bO0dp4+fco1wenUqVPh5OTElu6gLqNGjUJUVBQtgbMwmD17NrS1tet9L24KRKIAqaurY+/evbUDSEvTtsYGDRrEV5QYSUlJbN68GRUVFfUma9q6dSv69u0rkHzt27enVj5VVFRoDxx9fX2BbJhZzve3b99Gp06dANQ+eNzd3QXaoTExMcGWLVtoD/ofGThwIDZs2MB3n60ZTjs9mZmZHMOajxs3jufqkZ6eHnXNckNFRYXvxIpLlixBdXU1x9Xeui8z+vr6bC9CLH405ZSTk8OOHTtQXl5OWy0bOnQozZFw5cqVPOX77bffmmViMkLTYWhoyPOa50ZOTg7y8/PZrt0fA8+Ul5fj1atXNL8iGxsbWFtbs/UZHx8PHR0d6OjoUPJt376drR03xZ0TcnJysLKyQkVFBTZv3sxmMizI5x8xYgTHl7rY2FiO0dU4YWRkhBkzZmDgwIFcTezqKkeSkpJwc3Nj2/36+vUrAgICsH79etTU1MDe3h5mZmYc+9uwYQMYDAaio6Opst69e+PPP//kS+Y1a9aAwWCw7Q6y2LFjB5uVBEEwBgwY0Chz9qaEwWAgPDwco0eP5lgfFRWF6upqrgoQC9Yz6/Tp0wgKCuLYZsOGDRg2bFjjBG6DjBs3DtnZ2TQTNBUVFVhYWFDHa9asoRbfuTFx4kTIyMhQJr7S0tK0hV4AHBdzeLFlyxb069dPoHNEgQSAGqA2yZ2Dg4OYxSE0JWPHjqV2rebPnw9fX18xS0QgCMbVq1cxffp06vjNmzfEBI4gVo4cOQIHBwf07dtXZJH1Hj16RO3yGhkZ4fTp02QHpgUyePBgvH79Gvv374ezs7O4xSEIgLm5OR4+fAhNTU3Y2dlxXKwRJxs2bKCZ7Pbs2RP+/v5ilKj5MH36dFy9erXpfIAIBAKBQGjtyMnJoX379mAymcjLy0PHjh3r3dkXhLKyMpSWlqKwsBBSUlLo2LEjbt26RXZgCAQxsXTp0man/ACC7W63JQoKCii/TaIAEQgEAoEgJObPnw8VFRXMnj0bffv2xdu3bxudZJDFwYMH4e7ujqqqKnTr1g2xsbH1JhskEAgEwv8xefJkKviZJI+2BAKBQCAQ+IQVJTQwMBC5ubkYPXo0BgwY0GhH4q1bt8LLywuFhYUwNDREcHAwlJWVhba7RCAQCK2dkpISKpQ3UYAIBAKBQBAiysrKGDt2LC5duoTMzEzExMRgy5YtmDZtGo4ePcp3PzU1NVi6dCmmTZuGs2fPIjs7G+PGjcPBgwfRu3dvEX4CAoFAaN0QEzgCgUAgEISMkpISLC0t8f37d7i5uSEiIgIAkJycLFD+lEuXLqGoqAjz5s2DsbExDAwMMGLECFGJTSAQCG0CaVVVVXz9+lXcchAIBAKB0KqQkpLC0qVLUVJSgs+fP+PZs2cIDw/nOwGxpKQkbG1toaysjN9++61RCQsJBILwCQsLQ3BwMCZMmCBuUQgCIq2hoUEUIAKBQCAQRAQr2aqfnx+uXLkCoDahZEhICFvb7t27Y9CgQQBqFSB3d3e2PECE1sXbt28RGxsLIyMjcYtCEJDg4GCoq6sTBagFQkzgCAQCgUBoAubNm4d58+YBAFJTU2FpacnWxsrKClu3bm1q0Qhi5NSpU1BSUoKXl5e4RSEQ2gxEASIQCAQCoYnR1tZGVFSUuMUgEAiENgmJAkcgEAgEAoFAIBDaDEQBIhAIBAKBQCAQCG0GogARCAQCgUAgEAiENgNRgAgEAoFAIBAIBEKbgQqC8OjRI1RXV6Nnz56YNGkS3x1cvHgROTk5QhGmX79+MDMzE0pfwuDcuXPIy8sTWf+zZ8+GmpqayPoXhMTERBw6dIhWZmlpCS0tLVpZaWkpzp49i6qqKoHHUFNTw+zZsxslZ1Pz6tUrvHz5skHnmpmZoV+/fkKWqOkICwtDeHg4X23bt2+PhQsXilgi3vj7+0NZWRl6enp8n/P9+3f4+fkJPFZzm68EITo6Go8fPxbonOY0XxEE5+HDh3j79i3X+pY+XxEIBIIgUArQ5cuXcfnyZYwYMQJMJpPvDrZs2YKPHz8KRZiJEyeipKREKH0Jgz/++AOpqaki67+qqgq9evUSWf+8+PbtG/V/eHg428tufn4+lY+Cxffv3+Hs7IyKigqBx+vRowcUFRUbJqyYuHDhAs6dO9egcx0cHDBx4kQhS9R0nDt3DhcuXOCrrZqaGjp16gQJCQkRS0UnIiKCdrxnzx5IS0tj+PDhfPeRmpqKVatWCTz2hAkTmtV8JQg3btzAyZMnBTpH3PMVoXEcPnwYd+7c4Vr/+++/C7T4SWg8hYWF1P/Jycm4deuWSMbp3bs3x3v3xYsXtPeA1oSpqSk6dOjAV9vU1FTExMQI1H/d7y09PV1kvx0/aGhoNCpJck5ODt+Lnc0BY2NjoSzGSfTr16+mvlUhAoFAIBAIBELLZOXKlVi2bBlb+eLFi9kWkVoL58+f5zuxbGBgILZv3y5iiUSHubl5o3JIPX36FCtWrBCiRKLl6NGjMDU1bdC5M2fOREJCAoAGKEDS0tKQl5dv0MC8qKysRHl5uUj6bijy8vKQlhZNuqTS0lKBdtuaEkVFRUhKCtdFjMlkorS0VKh9NgY5OTnIyMiIrP+Kigog7lDvAAAgAElEQVQwGAyR9S8shHFPV1dXo7S0FDU1NUKSSnQI655ujvNVfTT2nm7O85UgyMrKol27dvW2qaqqQllZWRNJJFq4/e41NTUoKSlpEfcsv8jIyEBOTo5nu5Y0XxEIBNEg8FvA+PHj4evrKwpZ4OvrizVr1oik74Zy6tQpWFhYiKRvCwsLvH79WiR9N5aHDx8K5EfBDzExMTA3Nxdqn41h//79mDVrlsj6X7duHc6cOSOy/oXFL7/8gsuXLzeqj/T0dAwePLhFvFAcOXIEU6ZMaXQ///77L5ydnYUgUdMQFBQEQ0PDBp8/fvz4VpG4c9myZTxXe4OCgrBgwYImkki0cJvLs7OzMWTIkBalxPNi1qxZfK2EZ2RkYPDgwa1CoScQCA2DtgM0b948ODk51XtCx44d0aNHD5EI8/XrV6SkpIik74bSq1cvqKioiKTvd+/eid2H4M8//8T169fx66+/YseOHVS5kZERz1VSQSktLUV8fLxQ+2wMurq66Ny5s8j6T01NFVqAEFGioqLSaN8OBoOB2NjYJleAQkNDsX79elrZvn37MHr0aK7n9OjRAx07dmz02M1xvqoPQ0PDRu30NYf5ShhoaGigW7du9bbJz88Xmm+ruOE2l1dVVSEmJgbV1dVikEo0qKqqonv37jzbVVZWIiYmRuwLNvPmzUNiYiIAwMbGBmvXrhWrPAT+WbFiBWU+OHnyZLGa0D169Ajr1q3jWj9q1Ch4eno2oUSiZfXq1Xj27Fmj+6HtAKmrqzfKkaqxqKqqQlVVVWzjNzUGBgbiFoH6vjt37izy315BQUGs11dTo62tDW1tbXGL0STIyspiyJAhTT5uWloaW1mPHj2a5Doj81XrpUOHDq1+rpKWlsbgwYPFLYZYkJGREct89SMKCgrU/2pqaq3+mmtNKCsrU/83xftTfWhqakJHR4dr/U8//dSqri13d3d8+fKlQedu2LABycnJABpgAkcgEAgEAoFAIBDEj6amJmbMmCFuMZqMhgZAAAA3Nzfqf5IIlUAgEAgEAoFAILQZiAJEIBAIBAKBQCAQ2gxEASIQCAQCgUAgEAhtBqIAEQgEAoFAIBAIhDYDUYAIBAKBQCAQCARCm4EoQAQAwJ07d7B8+XJxi0EgEAgEAoFAIIgUogARAAC5ubmIi4sTtxgEAoFAIBAIBILQcXd3h7GxMQCiABEIhBaMoaEhVq5cKW4xCAQCgUAgNHMmTJiArl27AiAKEIFAaMHo6+tj8eLF4haDQCAQCARCC4IoQAQCgUAgEAgEAqHNQBQgAoFAIBAIBAKB0GaQbsrBqqurwWQyudZLSkpCSkqqCSXiDZPJRHV1NaSkpCApyVtfrKmpQVVVFVt5c/xshOZHZWUlAEBaWhoSEhKN6qvu/SYhIQFp6Sa93QkEiqqqKtTU1Aj1uhbXNV3fc4zf50RbhPW9kWchgUBoDjTpTH3u3Dno6upy/du8eXNTisMXtra20NXVxe7du/lq/+7dO46fbefOnSKWlNDSyc/PR//+/aGrq4t79+41uj93d3fq+rOwsBCChASC4DCZTJiYmEBXVxdXr15tdH8+Pj7Q1dXFzJkzhSCd4Jw9e5brM+zkyZNikakl4ObmBl1dXSxZskTcohAIBELT7QAdO3YMnp6eyMjI4Nrm7NmzYDAY2L9/P9c2r1+/xqpVqzjWTZo0CX/88UeDZXzw4AFcXV1pZfHx8cjLy0NBQQHP8588eQInJyeOn/Hvv//GgwcPoKenh7Nnz9bbD4PBwMyZM5GXl0crNzY2hqenJx+fpO0RHh6OtWvXCnTOli1bMGHCBBFJJBiJiYlYuHAhPn78iKqqKqxevRo7duzAjBkzBO7Lzs4OCQkJSElJoa7F9u3bC1tkAoEnGRkZmD17NmJjY1FRUYFNmzahqKgICxcuFLiv1atXIzIyEmlpacjIyEBRURGsrKwQEBAg8h0FW1tbfPjwAQCQmZnJ9Tm2Z88e+Pn5wcTEBHv37hWpTC2FpUuXIjExEcnJycjIyMDNmzexYMEC+Pr6ils0QjPg4MGDCAwM5Fi3e/dumJqaNrFEhMaycuVKvHnzhmPdxYsXoamp2cQScabJFKCUlBR8/Pix3jZfvnzB27dvOdZduXIFV69eRXZ2Np4+fcqxTVZWFmpqahq0k3Tr1i3s3buX1vfevXup5KB9+/at9/zg4GDs3r0br1+/5lifmZmJzMxMnopUZmYm1q1bh5CQEJSVldHqkpKSkJOTA2lpaRw4cAAdOnTg56O1eh48eAA3Nzeu1wU3cnJyRCSR4BQXFyMsLIw6jo+PR2ZmZoP6io6OxqtXr4QlGoHQYMrKyvDs2TPq+P3790hLS2tQX2/fvqXd44WFhXj16hVloixsUlNTqWdJUFAQbUFqyJAhcHZ2prX39vZGeHg4kpOTkZycjKysLMjKyuLAgQNtcgGivLwczs7OuHbtGr59+0aV5+XlcX1OEloO69evx5cvX6hjExMT/P7773yfv2nTJqSnpyMiIgIJCQkc22zduhUuLi7NZqGypXH+/Hn8999/XOttbGwwefJkoYyVm5uLNWvWAABCQkKQnZ3NsZ2DgwOUlJRgZ2eHUaNGCWXshtIkCtClS5fw5MmTRvURHR0NPz+/ett8+vQJJ0+ehJycHNasWcO3rfmNGzfg7e1NyaikpIS1a9fC1tYWnTt35nl+UFAQvLy88OjRo3rbGRgY1Juz5MOHD9i/fz/8/f0BAPb29tDS0gIAvHr1CtevX4efnx9kZWXh5uZGFCDU3mgHDx7EgwcPAAAyMjJYs2YNlJWVae0+ffqE06dPi0PEJmf58uUoKyvjuphAILREFi9ejIKCAkRERIhsjKCgILx48QIAkJ2dTXvmzJ07FwYGBgBqw6//aIInLy+Pd+/eISwsDDdv3oSfnx9kZGTQoUMHODs7o1u3biKTuzkiKSmJnj17wtnZGf7+/iTRdiuhqKgInp6eOH36NE2xZTKZfClApaWl8PT0xKlTp3guQoaGhkJWVhZMJhO//vpro2VvS/j7++PQoUN4+fIl1zasTYP//e9/jRorOTkZ+/fvZ3tHNzc3h7m5OYBaE//9+/fj2rVrAICCggJUVlZi7NixjRq7MTSJAhQYGIjnz5/DwMAAI0aMqLetoaEhW9njx4+p7TRNTU1MmjSJqgsKCkJWVhZ1/PnzZ3h7e8PZ2ZmnAhQYGIiCggL8+++/CA0NBQCoqalh3rx52Lx5M2RkZPj6fMHBwbh79y4AQFVVFdOmTePYbuDAgbCzs+NYl5CQgOPHj+PYsWOQlpbG7NmzsXHjRujq6lLfQUVFBe7cuYPq6mpcuHAB8+bNg5qaGl8ytlbu37+PoKAg6lhKSgpOTk746aefaO3evXuHkpISXLp0qalF5AtVVVXMmzcPly5dAoPBgIWFBcd7gcX9+/fx+fNn9O3bF8OHD6fV2dragsFg4OjRo4iJiRG16AQC34wZMwaDBg3iWv/kyRN8+PABPXv2ZFsdnDt3LkJDQ0WmAN27dw8HDhyg+d+1a9cOs2fPhoyMDBwdHTFw4ECu50+fPh1A7UubmpoaCgoKEBAQgP3790NeXh5Lliyh5vPWxv3796GhoUGbs2RlZSmz5NevXxMFqJVQWFiIv/76iwrYIyilpaXYu3cviouLAQAjRoygFhbqwto5vHv3LqqrqyErK4tx48Y1Sva2wvXr1+Hp6YnIyMh6292/f5/6bsePH9/g8ZKTk+Hj40MrGz16NFavXo0pU6YAqN1Rr+vecvPmTQwYMKB1K0ARERGUlj9mzBgcOXJE4D7+/vtv3LhxA5qamvjtt9/g4eFB1a1duxYXLlxokLnQ5s2bkZiYSB2rq6tj5syZDfazUVNTg5WVFY4dOybwuQ8fPsTBgwcB1D44PD09oa6uTtWPGjUK5eXluHPnDqqqqrB27VrIyMhg1qxZtHZtibi4OHz+/JmvtgYGBjh48CC+fv2K58+fo7y8XMTSCYaOjg6OHDmCgoIClJaWYseOHTAxMeHa/siRI7hy5QpWrlzJpgABtbtAycnJRAEiiBUFBQXaA27Tpk31PvBOnTqFM2fOYOHChU1qHhEeHg5XV1c8f/4c2tra6NWrFwBAWVkZR44cgaKiIt99jRkzBmPGjEFqaiq+ffuG58+fw83NDZKSkliyZAl0dHRE9THEQnh4OLZv344ZM2bUu2hDYMfY2BgZGRnNyhybF3JycjA3N0dVVRXevHlD2wVqCHPmzIGjoyNbeWRkJNX3vXv3oKioSBQgPtm5cyeioqKgr69PWRHV5dWrVygsLARQ++4pLy/fKAWIE4sXL6aUn+aKyBUgBwcHhIeHN6oPNTU19OjRAzNnzmSLxubp6Ynv378LZN7EZDKRmppKW8Ho2LEjbGxsKCWEX7Kzs6kLaeTIkQ1SfvLy8vD161ee7RQUFKCtrY3U1FQAwKpVq9CpUyfMnTtX4DFbA7t27cLFixf5bv/TTz/h7t270NXVbbAfgihRVlbGjRs3eLbLyMhASUlJE0hEIDQOTU1NviMaZmVlUavCTc3SpUsRGxsLVVVV2NvbNyqYDgttbW38999/GD16NKKjo7Fr1y5UVFRg/fr1UFVVFYLUzYNly5YhOjoaZmZm+PbtG19m44Rajh07htzcXFy5ckXcovBN586dcefOHQDAhAkTKOuXkpISZGZm1uvgXlFRgc+fP6OmpobnON26dcOHDx+oZ11paSkyMjLQtWtXIXyK1o+GhgZcXFywePFitjpjY2PiJwwxJEKtrq5GdXU1XzcAi3379uHjx498h6LmxZcvX2BgYICkpCSqzN7eXmDlB6id/M+cOUMdsz5fdXU13324u7tj27ZtPNuZmpoKJTxyW0ZCQgKSkpJ8+YfV1NSwXac1NTW031iQ61gY1NTUYOrUqQgODm7QuQQCN+pe2+K4rn/77TcEBAQ06bissVls27ZNKMoPi3bt2uHly5cYPHgwJCQksHfvXmzZskVo/Yubut/drl278Oeff4pRGoI4uXHjBs+opTExMRg6dChfC3g3b96kpW8ICQkRmsO+MOD3PUIcSEpK4ujRoxyVH8L/0aQKkJ+fH/T09KCnp4c+ffogNze3KYcHULutOnz4cDAYDKH3HRwcTH0+PT09xMfHC30MQuOQlJTE8+fPMWzYMJ5tN2zYAC8vL+o4KysLPXv2pP3GTRmWvKioCAMHDmxQcIOPHz/CwMCAr51GQttkypQp1HW9Y8eOJh37l19+qddZV1Tk5+ejX79+NFNoUXDlypVmbw4iKIWFhejfvz/evXsnblEIhCbn/PnzYstFxoubN2+SyHl8IDITuPLycsyZM4cW3rCoqAhFRUUAal9Ep02bBllZWWzdurVJHKHu37+P9evXIz09nVa+bt06LFu2TOD+lixZgufPn1PHpaWlNJ+UBQsWQElJCQ4ODiK7Udzc3FBTU4N58+aJpP/mjKurK6SkpHD+/HmqjMFgwNraGidPnuRqj66pqYkTJ06wBUpgMWfOHGRlZSExMRH29vYAaleu7O3tkZycTFv19PHxwa1bt3jK2rdvX57+b0VFRbCxsaFWx1atWkU5Vn/69AkLFy7Eu3fvaKabV65cofx85OXlceHCBaioqLD1XVlZidTUVDCZTDg4OHB0SJaRkYG/v3+rMs9pjRw4cADXr1+vt42NjQ0Vwp/F0qVL601FEBUVRc3Pf//9N0JDQ6Grq8tmXnz8+HEqUqWOjg7PvGZMJhM2NjbUgteSJUswf/58ALW78TY2NoiMjKT55QUHB2PMmDHUsb+/P9f7lcWGDRvYzK07deqECxcuQFZWlqtsaWlpYDAY2L17N6ytresdA6i957y9vXm26969O2UdoK6uDgUFBa5tV65cidjYWJ59CoKamhr8/f15hghfsGABZVZdl44dO8Lf3x9ycnJsdR8+fMDixYuRkJCAqqoqqjwgIACvX79Gz5498ffff/Ml54oVK9iUKG1tbZIniNCsUVNTE8g3sCnR0NAQtwhwd3cHgAblfGsqRKYAMZlMPH/+nPKP+ZHq6moq3GhNTQ3Ky8tFvr2ZnZ3NMf/As2fPuO5GrVmzBv379+dYFxERUe+KOisCR2lpKRgMBkdfnSNHjtDitHft2hV79uzh+BLLiXfv3vEdCKC1YWBgwObgx7quNmzYgC5dugCodUpetGgRrd2AAQNoxwkJCdQNe/v2bepF8Pr160hJSUFOTg7HFerPnz/z9f3Hx8dDRkYGHh4ebC9jERER8PHxAYPBwL1796jdSZbyA9TmCaqbT4VFRkYGlZRRSUmp3sg8lZWVcHJywsOHDzk63UpJSeH333+Hm5sb5QROaF7s378fJ0+e5Jo3gwWnHc6IiAhER0fzNQ7ruoqJiWG7dyIjI6ldyA4dOmDZsmXw8PBgm7Pi4uLg4eGBmpoa/Pfff5Riz3JkTkhIwJYtWzimD/jy5Qstx8iPOdFY5OfnY+nSpZCQkMC9e/fYEpSyoq/t3buXTYFKSUnBpk2bKMXL0NCQZ4I+f39/eHl50XJ2cYPbMyU0NBSenp5Yu3YtmEwm1q1bh0uXLgndEV5RURG2trbw8PDgGC20oKAA69atw40bNzjmp5OXl8fSpUshLS0NZ2dn2pxZVFTEcT5KT09Heno6YmNjISsri3379nFU/DIyMqjrKigoiO27UlFRgZ2dHfbt28f3s5BAIAjO2LFjqfw9wiQhIQEHDx7Ew4cPAdT6iNVdPF6yZAlfC06iRGQKkKysLNavX0+z9YyIiOC4Wv748WPIyMg0KB752bNnuWac5ZcXL15QytiPVFVVwcnJieMLxYoVK2jJnhISEnDhwgW2dq9evcKhQ4cgJSUFGxsbWl1oaCjNpElFRaXNBjVoCBYWFoiLi2O7ruqGxn779i2kpKSoVWdOyMvLUyFqpaX/77Z48+ZNo68voPZl6NSpU1BWVoaTkxOlnAG1ShSvVXQNDQ1s2rQJBw8epL0M/vzzz1RYeFlZ2XpXpKqqqnDx4kUsXbqUykkSGRmJmzdvAqhdtLh8+TKcnJyIAtRMCQkJ4an8CJPv37/Xe23m5+fjzJkzUFFRgZOTEy3XTWZmZr3nysnJwcjICEZGRvDy8sL379+puoEDB8LS0pI67tSpE8c+SkpK6t0pKCsrg5+fH1RUVLB69Wr07NmTqvv69Ss1X//+++/o3bs3136OHz+OL1++IDg4GGFhYejTpw/bXH758mW+Qj0nJiYiJCSEUoAuX74skihgrO+mQ4cOcHJygp6eHlWXnp4OLy8vnDlzhraDY2pqinHjxiEzMxMnTpzAuXPnANQunqxevZqn6bCJiQlleiMnJwdJSc5W9ryuq4KCAvj5+WHXrl1EASIQREjv3r0bbYGlp6eH1atXs/nRc3t/WrhwIc+0Ak0BTQGKi4tDaGgozfSgocjIyGDdunW0socPH0JVVRUFBQW4evUqre7+/fvo0aMHXwpQcXExAgMDAQB79uwRqQ3yuXPnICUlhVWrVmHIkCG0uh9NTKKioiAnJwcGg4HAwEBUVFRQdWFhYdi7dy8UFBQwdepUkcnb1hg7diw+fPhQrxlaZGQk9u7di+rqakhKSsLa2pptVVJHRweurq4AapXqui9jPXv2hKmpKVu/z58/x/v376ljBQUFzJgxg/bQj42NpXYCi4uL4ebmht9++42mAHXv3h1TpkyhFBFOqKurY+vWrSgsLMSFCxeo8KDGxsaU3LyQlpaGtbU1XFxc0KNHDwDAiRMn6h2X0DwxMjJim4+A2nmU3wiH2traVJK6ukRERNAWZWRkZGBtbU0zhUpMTKQWjSorK7Fv3z5YW1vTFCBNTU1YW1tTc/WPdO/enbp2i4uL4efnR+36DBgwgO/rGqjdLW3fvj11nJycTNtZOnz4MCZPnkxTgOqyYsUK6Ovrc+3/+PHjlPVA3759YW9vj1WrVtHavH37VuBcN1JSUpg1axbOnz9PW0zT1NRkC0v79OlTjiaMM2bMgJKSEnWclJSEx48fU8fe3t6UfxeL9PR07Nu3j9aPiYkJVq1ahZkzZ+LVq1c4ceIEVXf+/HmMGDGCUoA6d+5MBa2o60/7888/8/278bquCG2DsLAwDB8+HEOHDhW3KK2eqqoqBAYGNjp0+Y90794dmzdvRn5+PgICAnhG81ywYIHYlR/gBwXozp07UFRUFIoCxAkzMzOYmZkhLS0N3759Q1hYGE1JyMrKQkxMDFeTM6B2xfHOnTtsZhm8SE1N5bhy2r9/f7bVRQaDgbCwMDCZTACAr68vKisrsWXLFvTt25frGIMHD8bp06dRUlKCwsJCPHr0iDKlAmqTwW3ZsoUoQEJGU1MTY8aMQWlpKdeQ62/fvsWiRYsgLS0NeXl5dOnSBX369OErh9KIESM4hllftmwZTQHq0KEDTp48STNx8/f3x59//llvQIwhQ4Zg3759yMvLQ1hYGG1Fti7y8vLw8fHBixcvGjSBycjIwMvLq83mjWpNGBkZYcOGDWwJBKdMmcK3AsSar35k3bp1NAWoXbt2OHToEM037MaNG9i6dSstz9Tr16/Ro0cPSrk3NDSEu7s7VwWoLh4eHoiIiKCZvfFDu3bt8PPPP8Pb25sWHvfixYscTetYfP36FVFRUTz7ZzKZePnyJe2BPm7cODbl50c6d+7MV6AVKSkp7N+/H+Hh4TQFqG/fvmy/jbu7O44fP46UlBRa+d69e2kJVkNCQrBx40aO5t7c6N+/P1xcXPh+Nuno6MDHxwe3b99uUEAhRUVF/PLLLzh27Bhth+fYsWM00/gXL15g7NixNOWW0Lrw8/ODuro6mwJUNw8QoXHk5eUhNjYW5eXlWL58OfLz86m6zMxMvH37Fv369WvUGKqqqjh16hQePnwotnQGgiLyPECc0NLSQkhICExNTRETE0MpQTdv3kR5eTkVV54T7969g4uLC5VMLjs7my2pJSvPT7du3Shzpn///Re7du1i68/Dw4Ntpe3bt28wNTVFUlISNbn7+/ujsrISly9f5vn5FBUVcfPmTUyePBmhoaEoLS3leQ6h4UydOhVTp05FUlIStaLN6boAaldAWAEpfH196zWLEwZz5syBlJQUZs+eXW87fX193LhxA7q6ulz95jhRVFSE3Nxc2o6SICgrK0NdXZ328kVo/pw/fx5FRUXw8fGBpKQkunbtCgkJCaipqUFHRwcdO3YU6fhTp06FrKwsZX4J1JqRsfKpNRWqqqq4d+8eZGRkBDovNDSUCnDCjcrKSiQmJmLy5MmUj0ynTp04muN9+fKFNs8PHz6clh5BGLi4uKC8vJxnhD4LCwvIy8vjl19+4dqmXbt2tISs3t7eGD16tNBk5YWuri7N95UTFRUVmD59Op4/f15vUmhCy6Fdu3bQ0tJCRkYGLVVIUVERWyCOhQsXCryjKi5KSkqQnZ3dbBcXnz9/zjUK5bVr18BgMHD79u0mkycnJwclJSViDyLR5HmAWMjKyiIsLAyDBw8W6DwTExMkJydTf8OHD2drk5mZiR49ejQ42WXnzp0RHx/P1VyCX27dukVCETYhenp61HUh6HXVUjl79iyWLl3a4PPnzJlDoi21UG7dugVdXV0MGzaMUvb//vtvJCcnCzWXTVslPj4eAwYMoC1IbN26laOJ17Rp03i+0DcnBg0aRHuONqXyQ2i79O/fH5GRkWwm6CdPnoSuri7tryWlEbly5UqTLvy0dObOnYtLly6JWwzxKUAAOCaRevbsGU+HLAkJCeqPUyx2VkI/Xsn87t+/z3WVTBgJriQkJHD06FEsWbKEKktMTMSAAQNoW5AE4cG6Li5fvoykpCQ4ODhwbbtu3Tr4+Pg0oXTCh1OyVkFprsncCPXDmudyc3NhaGiIHj16IDQ0lPyeAtCpUyfExsZyDIDA73MEgFiSxzaWus9RFidOnECPHj1gZWUlRskIrZnOnTuz3XM/JhhvafcTS/7mirm5OZKSkvD27Vt07tyZrT40NLTRi/Xp6eno2bMnMjMzebatrq7Gxo0bceDAgUaN2Vgkf7QnFjelpaUC7dz89NNP2Llzp8A+QQDQrVs3yMvLC3yeIKirq9NsnBkMBpKTkyn/om3btvE0jyIIjqamJnR1dbFmzRqsXbuWY5ucnBxasAMCobnj7u7O5qfBZDKRnJyMpKQkODs7Y9y4cTh+/DjbuSdPnsTIkSObSlQAtWH9796922ATzR9Zu3YtbG1tebYzMzPD4cOHebaTlJRE9+7d2Uzonj17xmYit3PnTrGHbRUFixcvxrhx4zBu3Dh4eHggKSmJLZw4gSAsWPecr68vRowYIW5x2gQKCgrQ1dWFgYEBrl27hvv379N8/QV97/6RN2/eYPbs2UhKSqJScWzcuBH379/H/fv32aLDAbWRcfPy8ho8pjCQbinOSvXRp08fmhNoS6Jfv37Q1tYWtxgtlsDAQJSVlXFNBKunp4dly5ahb9++yM3NhYuLC63++vXr0NLSapACTSA0NQMGDICLiwumTZuGV69e4dixY7R6Vp6fQYMGsZ07bNiwJk9yKy8vDzMzM7Rr104o/fXp04cWzYwbampqHKPk8Utubi5bQBUjIyO2vGOcMDc3h5OTE9f6MWPGiCTvhqAUFhZi48aNuHbtGs0iYdiwYVi+fDmKiooovyMCQdgYGxtjx44dHJPwAmCrGzRoELZt29ZU4rVKJCUlqYi2nBbJGkpeXh6eP39OKzMwMKB8sg0NDVFZWYmNGzfSdspu3boFHR2dRpnxNwaxBEHghLm5ORQUFOoNZ9wYTE1NYWVlxRZ+uz6WL1+OQ4cO4cOHD0KTQ01NDatWreKaFfzr16/Ys2cPHB0dxe4g1hJ49eoVHj58CCkpKcyZM4djG319fejr6+PTp09sClBkZCSePHlCFCBCi8HExAQmJiYwNjZGly5dUFpaikOHDtGicb18+RKBgSAyh1UAACAASURBVIGtcseiOVFZWYlDhw4hKyuLKjMwMICFhQXXc3r37s0WeKepycjIwKFDh/DPP/+gsrISv/32GxUav1+/fpg1axZyc3OxZcsWscpJaN2wkiLXpby8HD4+PmxJvbW1tWm5wQjNg+joaPj5+dXbRl1dHXZ2dlTgHtbOz5s3b/Do0aPmoQD17dtXbM6QqqqqGDx4MDp27NjoSBqKioqwsrKCsrIyVTZ69GhkZGTwpQBVVFTg6tWr6NixI6WEGBoaYtSoUQLL8vjxYypPkZaWFubNm4fNmzdzbZ+Tk0OZ9PGjAJmamsLIyEhguVoT4eHh8PX15aoAEQithQcPHkBLSwu9evVCv3790K9fPxQVFaGgoAAVFRV4+PAh0tPT8fTpU6irqzepAjRx4kR07969ycZrDDo6Ovj11185hs1PSEioN4Q2i/z8fAQGBmL79u20dAecCA4OxufPnxssrzBJSUnB2bNnsWfPHqps/vz5mDhxohilIhBqKSsrg5ubG21X0sDAQGTpWQiNIzIykmM6hR9RUVHBjh07cO7cObGbvrGQVlRURElJCYD/x955h0Vx/H/8TRVEmhAQxQIoiKIRjRUJYomxK2JviGIHC1YkRDQ2iqJGQQWiRMTO1xJrFBWlWFFsKII0Q1PpHfb3xz23P5bbO+6OOw51Xs/Do7c7O/O5vdnZ+cx8CjBixAg4Ozs3SsMUReHRo0f0i+PUqVPQ0tKSSEQqHR0dHD16lG8W6vrIz8/HvHnzGGFNR44cKfK9iYuLg4eHB+7cuYPWrVtjxowZ2LZtm1gyAZwXLjepJsAxh/Hw8BC42igsenp6AvMvNUUSEhIaZKtuamoKPT09dOrUiW+Zdu3asSZIfPnyJSN0tIaGBvr06SN2nyMQhMHb2xsWFhZYtmwZHcZYXV0dhw8fBsDJA5Seni4T2X7//XfWqJxNkd69e8PT0xPDhg1DTEwMBgwYQO/KX7lyhdVmvS5paWlCr1xu2rQJMTEx6NChQ4OjizaU6OhobNq0SaYyEAhsFBcXM3IwAhwz9kWLFtWbe4tAEBVFIyMjRtI7SVBVVcWTV0RTU5ORrbqiogLjxo1jmA6IS15eHq1INWvWDAYGBkJFQsrKykL79u3rtU/X1tZmBDKoqalBZmYmHaVES0uLdbfG0dGRTkZnb2+P7du3C/2d6lJSUoIrV65g+vTpkJOTQ6tWrRAUFNQgO/faDB8+XCin4abE77//jpMnT4p9vbu7e715gObOncu6Y7dixQr8+++/9Odu3bqx7i4WFRUJtdpRWVmJ//77T2DkG4qikJmZyTANaNGiBXR1dVFVVYXs7Gy0atUK8vLy+Pz5MyMZmZKSEtq0aQMFBQVGnSUlJcjNza1XvqZKWVkZsrOz6c/6+vpSD2wia3x8fKCgoIAdO3ZIvS1+/UbacPultH2W8vLyMGzYMMTHx9OJANXV1aGjoyMwCWPdfsdFU1MTWlpajGOZmZmoqKiAjo4O1qxZgyVLlkj2S4hI8+bNoaenxyo/gSArysrKcO/ePUZuMR0dHbi5uTEi6RIkj4qKClq1asV6rqSkhA4WxZ171l7oVVNTww8//ICcnByR29XQ0GDNq9ZYSGW5+u3btzwx3SXpcFWXtWvX0uH0+vTpg3v37gmlAA0ZMgSRkZH1ltu8eTM2bNhAf87Ly0O3bt3o73b06FHxhReS48ePY/bs2QA4k5KYmJjvJtfN10xAQIBQO4fx8fGwtLQUmEG5sLAQPXr0YCxYzJkzB4cPH0ZCQgIsLCzogWrZsmWMZ65jx454/fo1z4Sydr/6Grl27RpGjx5Nf758+bLM/Su+JczMzPDixQupJ1aty9mzZ2WWV8PR0bHe99XNmzcZEzUubm5u2Lx5M/25rKwMvXv3RlxcHPbu3YtFixZJXF5RGTt2LM6dOydrMQgEBnXHcoATln3u3Lkykuj7wdbWFtevX2c9FxYWRs91TU1NkZmZyTg/efJkhIaGitXusmXLsGvXLrGulQRSUYAoikJlZSXjb8eOHTAzM6P/unXrRmuMu3btwtu3b7FlyxaeumbMmEFfw5bcb9asWTh16hS9ZSonJwdFRfbYDmPGjGHsGFRWVsLBwYFx7Pnz5+jfvz8j8o28vDxD4637/Tw9PRnfjfvH9f1xc3MT6Ey6du1agdm9d+3aBXd3d1RVVdHHFBUVSb6PWkRGRrJOSADg9OnTMDMzY5gKhoWF8ThUZmRkwMzMTKImRNXV1YzfjR/cPlXfDlDdMqGhoejSpQtGjRrFOFdVVcUwIwDA+lzU1NQIJV9Tpa78CgoK3+xzMWLECHrB5vDhw6xjzu3btwEA8+fPx759+wBwTHp79eoFMzMz3Lx5U2AbLi4uCA4OZhxj6zcnTpwQyvwrNTUVXbp04bEIqMvgwYMZ/jg1NTWIjo6mv1daWhocHBxgZmZGm6f16tULkZGRPCGsAY4iPHny5HrlYyMkJAQXL17E+fPnGceXLl1Ky7NgwQKYmJggLi6OsYLp4+MDc3NzxnsuMzMTNTU1UFBQgLy8PE6ePAkzM7NG9bmZO3cunXhQTk6u3h29+Ph49O/fn2EGvnnzZvp72dnZsV539OhRnj75NSW0JMiGv/76C0uWLGGM5RcuXMDw4cOJWbkYTJgwAWZmZjhy5IhQ5fnNm3ft2oWNGzfSc92SkhJYW1vjyZMnjGsHDhyIW7duMa5dv3496zuqdrhteXn5RrcuqE2jRYHLzc1lmNooKysjNDQU2tra6NatG9/tt7S0NLx9+xYA58VU2wcGAB49eoT8/HzMmjULs2bNErhSqa6ujuHDhyMsLAxz5sxBRUUFMjIysHnzZvqln5+fj6SkJACcrOrt2rWDubm5wO+WnZ3Nak7g7+8PExMTmJmZCcyDoaurC0dHRygqKmLjxo0oLy/H1KlToaysDAB49+4dPYEwNDTEkSNHWJNZfc8UFxcjMjKSNZlXRkYG3YcUFBTw999/49dff2UEyQA4CjG3HJdjx45BTU0Na9asoY/NnTuXNm3k8urVK0yfPh0hISF8FXB+3Lt3j1G/KOTl5dHOolwTUxcXF6F2NvmxatUqbN++nQ5hSWgafPjwgfbX/Pz5M1/TymXLlsHFxQUGBgYAOEp4YmIiCgoKBNa/dOlSnD17lpEb68OHDxg/fjxCQkKgoaFBH8/Ly+Pxv1uxYgV27NhBOys/efIEy5cvrzeKJkVRSE5OZky2AY7pRX5+PkJCQqCrq4v09HTG85mUlETvqPz1119o3bo1fa6wsJBveN36GDx4MEpLS3lMDLkJ/iZMmIDFixcjNzcXrq6ujF3bnJwcemGvffv2tG8WAHTv3h3BwcHw9fWFhoYGHB0d6fGqPiVh9erViI+Px/v37wWWO378OI4ePcqTaDs9PR35+fl8r9u4cSMjKWFBQQFPW9z3nLW1NdatW8daz5cvX/DlyxeYmJjA398fACd31b179wTKDQDBwcG00k74fjhw4AD27t1LP18aGho4evQobG1tSSRcMUlNTcXbt2+xY8cOhIWFsZZ5/vw5AM6OMD+fwNzcXMbiFUVRSEpKQmlpKaOcqqoqTwCczMxMnt2i2ri6uso8+q5UFKDWrVvj0KFDAIDt27cjOTmZPmdhYQEXFxcoKChgzJgxItnrZ2RksDq9Ozg4YNmyZUL5w2hqamLs2LHw9/fHxo0bkZmZiVevXjFeQBoaGti2bRsmTpzIY88NcCaae/fuRWVlJfbv30/n3gA4TvPc3R47OzuhFRVDQ0PMmjULVVVV+P333+mV3Np07doVHh4eGDJkiFB1fus4OTnR9+Lly5fYs2cP321cgBPoYevWrRg7dqxQA6uDgwMGDBjAEyTh119/ZU3g1rx5c8Zq1fHjx1n9gjw9PfHbb7/RPgdZWVmIiYnhKXfy5EkYGBhg0qRJdP27d+/G77//zogo9eOPP2Lp0qVQUlKCuro6YmJiBA48bOjr6zN2YEluqq+PTZs2oXXr1rCysmL0WTU1NezZswceHh706tvQoUN5fFGGDh2KHj168NSrpKTE8JM8d+4cjh8/zlMuNjaW0e8+ffok1MRXTk4O27Ztg6enJxISEujjpqam2LRpE1+TRh0dHdjb2wMAw7+UDU9PT/p5q4927drBwMAA0dHRPOcmT56MFStWoH///vjy5Qs+ffqEBw8eMEKQAxxlx93dnbHrHBgYiP3790NXVxfr16+HiYmJwPGqNg8fPsTdu3frLWdubg5DQ0NGvX/88Qf09PRgbW1NHzM2Noa3tzfc3NxQWVnJWNEVxC+//II1a9agb9++fJNI9+jRA+7u7rC2toabmxuuXr1ar3/A4cOHceDAAcZ7WElJCdu2baPDc3+LbN26lWcxramTl5cHNzc3VFdXi7W7V1RUBDc3N5SXlwMAoqKi0L59ezphebNmzTBq1CjWnV2CaCQkJDDG1NosXLgQvXr1QpcuXVjzxgGcxZ709HT8/fff9balq6tLz/t9fHx4FpNrs2rVKjg5Ocn82ZaKAqStrQ0nJycAHFOc2lteZmZmmDNnjtB1zZw5k07cxA97e3uR/GGaN28OR0dH5Ofnsw7M6urqWLhwId+V/GbNmtGaq4qKCm3qBnCUP+53F5W2bdti8eLFfBPPmZqaim3W8S0yZMgQWgF69+4d39xKXHR0dASa7WhpaTF8vfj1qylTpggln5qaGgYPHsy6k8Ld3QM4yR1rt1u3Di5KSkqYM2cOioqKGAsB5ubmjGAODg4OPPkV9PT0WOu3tLTEhg0boKurK3a/JTQOCxYsEDiRXLx4MevvzB2vCgsL6aAzVlZWPNEjJ0yYIJQczZs3x8CBA1nH5S5dutD/NzIyYu3XVlZWPMemTZuG4uJievcd4EzSa4e2nz59Ovr06UN/bt++Pd8+26VLF0bbixcv5tmFNzAwwIoVK+Dv74/AwEAsW7aMjtBmamrKKvvo0aPRv39/AJz33IIFC5Cfn0/vzHHp3LkzvXDB5ebNm4iLi8PChQsxYsQIfPr0ie9zXzdS3MyZM1nvGwDGIp2lpSWcnZ0ZqSQWL17M42isp6dHJzutm29FENbW1vTYoqqqilWrVvG8r7p06YKJEyeivLwcLVu2ZB1z61p8qKurY8SIEQwzZiUlJSxatKhe5fZr5uzZs4wF4q8BeXl56OjooLq6mieIkDALZ9zruQrQmDFjYG1tzdeEvaly/PhxxMfHA+AEQeKXjL0xKS8vh7+/P6vJsZ6eHiOYxPTp0+tdFOrduzecnZ1haGjIOF73M8B5hrnjsZycHGMsr8v8+fOFSmgtbeQsLCworlO1q6srfHx8ZCwSoTGZP38+goKCMGvWLImEICcQGpPw8HCGP0JcXBx+/PFHGUpE+JooKirC8uXLce7cOTg5OcHJyUlgWHxxuXHjBjZt2oSSkhIsW7aMRLUiAAB69uxJ7wC5uLhgz549MpaIICyDBw9GREQEAGD27NmNEgyrPkpLS+Hi4sKzIANwFthr5/76Xrl27Rp+++03PHz4sPF8gAgEAoFAaEq0aNECQUFBePjwIby9vVFdXQ0XFxc6x1JDoSgKT548wapVq1BRUYHffvutSawUEwiEbw9VVVWG3yGBl/Xr1yMuLg5AIwZBIBAIBAKhKaKrqwsVFRXs2rULJSUl2L59O6v/p7BUVFTgy5cvKC0txYgRI1BTU4Pg4GCMHTtWglITCAQCQVxIfEECgUAgfNdcvXqV9m0JDAxscL6eiIgIGBkZoUuXLsjNzUV4eDhPjhMCgUAgyA6iABEIhG8GOzu7enPdEAh1UVZWhr+/P16/fo3Vq1fj8uXLmDhxolh1hYWFwcnJiQ4VGxkZid69e5N8JgQCgdCEICZwBADArVu3sGbNGnh7e8taFAJBbJKSklBYWChrMQhfIdzIRgsXLoSSkhL27t2LkSNHMsosXLgQ48aNoz+XlZVh7ty5jBw7qampSEtLQ7t27XD48GH07t2bEfWRQCAQCLKHKEAEAJwcS2y5aAgEAuF7okOHDujZsyfy8/Nx5coVxrnCwkJGjp3KykqcP3+ekRjQxsYGBw4cQMuWLfnmMCIQCASCbCEKEIFAIBAItejUqRPWrl1Lfz569CiysrJw79491uSus2fPpnPbDBgwgLFLRCAQCISmB1GACAQCgUCoRdeuXXlyZnz48IFv+U2bNsHIyEjaYhEIBAJBQhAFiEAgEAgEAZAEggQCgfBtQcLSEAgEAoFAIBAIhO8GogARCAQCgUAgEAiE7waiABEIBAKBQCAQCIRvmjNnztBJr4kCRCAQCAQCgUAgEL5pTExMoK6uDoAoQAQCgUAgEAgEAuE7ghEF7vHjx9i1a5dMBBk4cCD69Okj9vUxMTGIioqSoETSZ8aMGdDX1xe6fEpKCs6ePStRGV68eEH//+PHj1L7/U1NTTF69GiRrrl06RLevn0rFXmkzcSJE9G+fXuhyr579w4XL16UskTSRUNDA/Pnzxe6/M2bN/Hs2bMGt1u7/3K5cOECkpKSGly3IASNV9euXcPLly+l2n5joqysjPnz50NFRaXBdV29ehWvXr2SgFTSpVOnThgzZoxU28jLy0NwcLBU2xAWOzs7dOjQQertPHv2DDdv3pR6O4IwNDTE5MmTZSpDRUUFAgMDkZOTQx97+vSp1N6/DZ1fNQaJiYm4cOFCg+tRUlLC/PnzoaqqKgGpZENISAhyc3OFKturVy/Y2NhIWSLp8vHjR5w4cULo8g0Zr44dO4bExEQAdRSg27dv4/bt22JV2lBmzpwJOzs7sa8/deqUSDewKVBdXY2OHTsKXT4uLg6bN2+WmjxJSUlwdXWVSt39+/dHZWWlSNd4e3sjOjpaKvJIm/z8fPTo0UOostHR0fD29payRNJFT08PLVu2hJycnFDlAwICcP36danI8tdff0ml3trMmDEDEydOZD23d+9emY2j0kBVVRXq6urQ0NBocF1fy73p168fqqqqpNrGx48fpTbeikpeXh4sLS2l3s6VK1dw+PBhqbcjiK5du0JJSUmmMpSUlGDdunUoKiqij0VGRiIyMlIq7U2fPh329vZSqVtSxMbGSiTcvIqKCjQ0NCQyXgmitoKSmpqK8PBwidX922+/ITU1VaiyY8aMwefPnyXWtix48+YN3NzchC7/5csX9OzZU6y2PDw8kJycDACQs7CwoNhWUQkEAoFAIBAIBALhW4M1EaqioqLUtee6lJaWorS0VGr1q6qqNrkt0YKCAoGrjBoaGlBUlG6u2uLiYpSXlwPgbB1zncMkTUVFBWO1ix9ycnLQ1NSEvPzX7Z5WWFgo8o4XF01NTSgoKEhYIulSU1OD/Px8UBQl9DWSeCbZ+lWLFi2grKzcoHrrQ9zxSl1dXearz6JCURTy8/NRU1Mjkfqa4lhcF2HHK1FojH4pLg0Zr0RBRUUFzZs3l3o7gqiqqkJBQYFE62zevLlYJqJ15wDKyspo0aKFJEUDIP35lbhIYzyU9HglSeTl5aGpqSm0pYQwlJWVoaSkRGL1SQsFBQVoamqKfb04c4z6YJ1dW1hYNLqZwpYtW+Dr6yu1+pctW4aNGzdKrX5xGDx4MJ48ecL3fHh4OHr16iVVGVxcXBASEgIA+Omnn3DlyhWptHPx4kXMmjWr3nLq6up4+vQptLW1pSJHY2Fvb49///1XrGuvXLmCLl26SFgi6ZKeno7u3buLNDgtXrwYHh4eDWr30qVLmDlzJuPYwYMHMWrUqAbVWx9//PEHfHx8RL4uLCwMAwcOlIJE0qOkpATdu3cX2ia9PlxdXbF69WqJ1CUt/vnnH8yYMUOide7du7dBZt7SZNKkSbhx44bU25k9eza8vLyk3o4goqOjMWLECInWuWXLFsybN0/k62xsbBi+kEOHDsXx48clKRoAYOvWrU3SzDowMBDDhw+XaJ2lpaXo3r07w7+qqaCvr4/nz59LVOnz9/fHhg0bJFaftGjTpg2ePXsmtvKXk5OD7t27S1SRZ5jAzZ49G6tWrYKqqipMTU0l1ogwZGZmIisrS2r16+vro1WrVlKrXxzevXsnUHPv1KmT1FfL5s+fj6CgIAAcR0lp2SDn5+fjw4cP9ZZTUFCAubn5V7cDUpekpCQUFhaKda2ZmZlEHM4bk8rKSpGd2yXxTObn5+Pq1auYOnUqfSw8PBzjx49vUL31Ie541bFjR6ipqUlBIulRU1OD169fS8wnplWrViIFf5EFBQUFtJ24pGjfvj20tLQkWqekSE5OlviuCBu6urpo06aN1NsRRHFxMe0ELSkMDQ2ho6Mj8nU9e/bE06dPAXD8dLZu3SqVYBTSnl+Ji5GRkcStjSiKwqtXr6Tuw+fk5ISHDx8C4PjhbNmypd5rlJSUYG5uLtEdoNzcXGRkZEisPmmhrKwMc3Nzsa+vqqrC69evG7yzN3XqVLx58wZAnR2gH374AT/++GODKheXVq1aNTkFRdp06tRJ1iI0GpqamjLrW7LA2NhY1iI0KkpKSjL5fTU1NRt9sQb4vsYreXl5dO3aVdZiNCoaGhrf1XhlZGQkaxEaDTU1tSb52+rq6kotEt/3NF7Jyck1ynhV21RRW1tbZn1KV1cXurq6Mmm7MVFUVES3bt0aXA93xywmJobkASIQCAQCgUAgEAjfNoMGDYKBgQEAkgiVQCAQCAQCgUAgfEcQBYhAIBAIBAKBQBASKysrtGvXTtZiEBoAUYAIBAKBQCAQGhlTU9MGhQYmyI4tW7ZgyJAhshaD0ACIAkQgEAgEAoHQyJw4cYJMogkEGUEUIAKBQCAQCAQCgfDdwFCAjh07hnXr1slKFgKBQCAQCAQCgUCQKvK7d+/GTz/9BADIysrC+/fvZSwSgUAgEAgEAoFAIEgH+aFDh343CbIIBAKBQCAQCATC9w3xASIQCAQCgUAgEAjfDUQBIhAIBAKBQCAQCN8Nio3dYFFREVJTU1nPaWtrw8DAoJElkixlZWVISkqiP7dt2xbq6uoylEh2pKWlobCwEACgoaEBQ0NDGUskPUpLS5GcnMw4ZmBgAG1tbRlJRCCITnp6OgoKCgAA6urqaNu2rYwl+rahKArv3r1DVVUVzzllZWV07NhRBlJ9veTl5eHjx4/0506dOkFJSUmGEhEIhKZKoypAVVVVuHnzJsaPH8963tHREQcOHECzZs341lFTU4OysjLWc4qKilBWVhZJpvLyclRXVwsso6ysDEVF/reqsrISlZWVAIDnz5+jf//+9LkTJ05gzJgxUFJSEmsgrqioQFVVlVjfTdYsXboUFy9eBABMnDgRZ86ckWj93HvDhoqKCuTlG2eDs7q6GjExMRg8eDDjeEBAABYuXNgoMhAIDaG0tBQURcHZ2Rn/+9//AABjxozBhQsXZCzZt0XtdwX3s62tLWPSzsXY2Bjx8fH052bNmkFBQaFR5PwaqaysxMmTJ7Fo0SIAgJycHF6/fo1OnTo12ruAID7V1dUoLy+nP6uqqkJOTk6GEgkPV3ZBc9fvDX7zs6b0uzbqqHD8+HE4ODjwPR8WFobZs2cLrCM6OhrGxsasf6tXrxZZpjlz5vCtj/t37NgxgXV4enrSZUeNGsU4t2jRIhgbG8PT01Nk2QDAxcUFxsbGcHd3F+v6bxlnZ2e+v9mTJ08aTY7z58/D3t6+0dojECRJUVERLC0tYWxsjKtXr8panG8aLy8vxjhlamqKrKws1rKpqamMsufOnWtkab8u/Pz8sHbtWsaxgQMHIjY2VkYSEUTh+vXrjP7++vVrWYskNOfOncOUKVNkLUaTYs2aNaxzM34WYLKg0XaADhw4AB8fH+Tl5fEtU1paii9fvvA9f+nSJaxdu5bvC+PEiROorKyEv7+/QFlyc3MxYcIEVFZWIiEhQaBMAEfBKSoqwrJly3jOrVmzBseOHeMrE7fuoKAglJeXw9vbW2BbAGdXys7ODp8+fUJiYiI+ffqEo0ePoqKiAn5+fvVe3xSJiIhAv379oKGhgfDwcKipqTWovnnz5uH8+fP49OkT6/naq6zSpqysDJ8/f2609ggESVJTU4OcnBzSh6XI/Pnz8eLFC6SlpfF9V9SlqqqKUXbDhg0oKCjAvHnzpCXmV01RURFtvglwzAtzc3NRUVEhQ6m+bZYvX85QMLt164bDhw+LXE9YWBg2bdrE6O+N+Q5vKPXNXZsCSUlJmD59Ov1527ZtPFYrkmD8+PHIzMxEUlIScnJyWM83a9YMGzduxJgxYyTevig0mgKUmprK4yMhCqdPn4aPj4/AVYGcnBycO3cOCgoK2LdvH99ttoqKCjx8+JCx3Tp+/HhMmzYNAJCfnw9nZ2f6/IcPH1i11nXr1iEsLAyZmZn1yp+ZmYm3b9/WWw7gTEiePHnCqDc7Oxtv3rwR6npRWLhwIYqKinDy5EmJ17127VpUVlbi6tWr+Pz5M2JjY9GsWTPMnj0bu3btQvv27cWu++XLlzzKT5s2bbBr1y4AgKmpaYNkF4WBAwfi5MmT+PLlC5ydnb+qgZtAaN68OYKCguDq6srwXyQ0nMrKSixbtgznz59Hbm4uAGDo0KFwcnIS6vqamho4OzsjNzcX79+/h5+fHyorK2kzL8L/M3nyZOTk5NALoHJycti3bx+6dOkiY8m+Lb58+YJly5ahuroad+7cYcxTRDU19Pb2xuPHj5GQkCD0/IggOk+ePMHGjRsZyiq/xWNxycnJgbOzM/79918UFxfTxwcNGoTFixcjNzcXzs7OiIuLAwD88ccfKC0txeTJkyUqhyg0ehAEMzMzzJ07l/Xcw4cPGSs4tXnx4gUePHhQb/3Z2dk4duwYWrRogbVr16Jly5aM86mpqfDy8uLx++ncuTP9Q2RnZ2PFihWM83fv3kVoaChmzJhBH7t69SoyMjIwduxYDBgwgEeWffv2ISMjo16ZZUnv3r1hYWEhFQVo4MCB6NSpE8Ospry8HOfOnYOWwGnLhQAAIABJREFUlhZcXV1FfjlVVlZi586dSEtL4zmnrq4uk4epXbt2aNeuHf777z8sX7680dsnEBqCoqIixo8fjy1btshalG+GhIQEHDlyBJWVlQgNDUVxcTGmT5+O7t27w9LSEr/88ovQdX358gUFBQU4ffo0Hj9+DH9/fygoKAitRH0vdO3aFYsXL6YX1uTk5DBr1ixoaGjIWDLhiIqKQkhISL1uALKmpKQEp0+flshCn7GxMc6fP09PigmS5Z9//sG9e/eQmJgoVfPm9+/fw8fHhzGPnDx5Mnr27Ilu3bph5MiRSE1NhbOzM33+wYMHiI+P//YVoH///RdxcXH0ALV06VLWcvfv38fjx495jkdERODx48fo3LkzBg0axHrt48eP8fDhQwCcHZydO3diwYIFPApQeno69u/fL/J3iI2NRdu2bRkKEACMGDECK1euZJWruroagYGBIu98KSoqYvbs2Th69KjQ5hJfG8HBwRg7dqxYCtC+ffuQnZ0tJckkR2RkJCwtLdGnTx9Zi0IgEBqR9+/fY8eOHfRnOzs7rFq1Cr169RK5rsWLFwPgRJXct28fHj16BB8fH6ipqTFMWggcE6xu3brJWgyxePToEc6ePdvkFSA1NTUsWLAA1dXV+Oeff1gXI4Vl4sSJqK6uBkVRiIqKkqCUBIBjnp+Xl8fYkZEGKSkpCAgIYBwbOXIk5syZI9V2G0qjKECHDx/GtWvXBCo/AGBlZQUrKyue448fP0Z1dTUWLFiAlStXsl67efNmWgFqLKysrDBnzhz07duX9bybmxsePXoksgKkpKSEnTt34u7du9+sAgQAT58+RY8ePRpkCteUCQ0NRdu2bYkCRCB8R6SlpdFBWBQUFGBjY4Nt27bBzMysQfXOnj0b8vLy8PLyQnx8PDZu3EgUIEKjo6WlhT///BMAMHz48AYpQABnpyA9PZ0oQFJg4sSJmDhxIh48eIDCwkLcu3dP1iI1KaSuAKWmptK5YPLy8pCQkACAYytqbGwsVFjP1atXixXhTdocOHBAqvW3b98er1694msW+LXj6ekJbW1toc3GKioq8O7du3rDljcWWVlZjAAaOTk5oChKhhI1nKSkJIZpg5aWFvT19WUoEUFaFBUVISMjAwoKCjA2Npa1OBKh9jOpqqqKdu3aNWr7OTk5CAoKgqenJ5o1awZzc3OcPn2axxJBXGbOnImqqirMnTsXVVVVSEhIgLGxMcl1QyAQ+NKnTx/4+/t/tbuj0kLqCtCkSZNo352wsDCEhYUB4ORpSUhIQKtWraCoqCjROP1ycnJQVlYWKdZ4dXU1nW+HDUVFxUZ/yZw4cQLTpk3DiRMnGrXdpkpiYiJ69OjRoDr4RQSSk5MT+vetrKwERVHYuHEjgoKCxJalurqarzLH75lgk19eXp6137LVz5ZLiqIoOj+JjY0N0tPT6XNz585FQEAA6/0RJD8/GiOXVVVVFWpqaiSe+0PUaFL8fheufLUR5r5w+x0/lJSU6h3zard97do12NvbQ1NTEwkJCSIr79x+UxcFBQWBC1u1+42g565u/fy+X+3f5bfffqOjUPXt2xd3797ley0/+fkhzHvK29sb3t7ekJeXh7m5OZ4+fVpvvcL2K277CgoKUFZWRnp6Ojp37oykpCQYGRnR5WpqavjmR+NHffdWmL4lDHVl49fv6/tt+PUbYetno+549rXl3SMQmhJVVVWorq5u0rnLGj0IApfy8nL07dsX8vLy2L9/P9/kqOLQunVrxMbGolWrVkJfExAQgKKiIr67OgsWLMAff/whKREJMiAlJYU1WAXAMWc8deqUUPUMGjQIHz58QH5+foPk8fDwwJEjR1jP/fXXXzyO0oWFhejbty9Pu8OGDWOtZ8eOHYz+rKKigtjYWOjq6jLKRUZG0hEQ65pcnjx5EteuXUOHDh1w//59xrk9e/bA19e3nm/J5N69e4zJmjRYuHAh8vLyMH/+fInVWVlZiX79+olkkjplyhQ6KmFt1q1bx1jU4I5X9U2uhw4disTERL7nb9++jU6dOgmsY8GCBbh27RoA0AmlCwsL0aNHD5HDYN+5c4fHJxLghGtmSxnAZffu3di9ezcAzi43P9OXBw8ewM7Ojv586tQpHhPprKws9O3bl54s1342nj59Sve1O3fuoGPHjoxr4+PjMWLECEFfkUFwcDCGDx8uVNnBgwfj+PHj9ZarrKxE//79hYokumfPHtjb28Pe3h5qamqYOHEia7n//e9/DGdjYQgNDeXxY/38+TP69euH4uJihISEYMiQISLVyUZISAg2btwIgBN9MDY2lnV3LCkpCT///DPfeoyMjFjNeU6fPo1Vq1YB4ChJsbGxaNOmjVCy7d+/Hzt37gQAtGrVCjExMWRnjUAQkzVr1iA/P59+HpsiUlOAysrKYG9vzzdsNUVR9KC/bt06FBYWYtasWRJpW0FBAQYGBqwTim7duuHChQuwt7dnrLwVFhbi9OnTePbsGSorKxkhslevXo1ly5ZBW1tbJDnmzp1Lr0AS2NmzZw8A1GsGFx0dzfAfCwwMxIkTJ/Dvv//W28bFixexY8cOlJWVsWZcBzhJ2KysrCAnJ4czZ87wKM/Pnj3DkiVLAHAmVqWlpfW2y49Zs2YhKSkJycnJ+O+//1jLrFixAp6enpg0aRJ9rKamBpmZmTz5BvhNXAsKChjfV1VVlWfH5sKFC3Bzc+N7X0pKSlBSUgJVVVWec4WFhXyv44e9vT0CAgLQu3dvka4Thc+fP6OoqEiidVIUhaysLJG+7/Hjx1mTML5//56hSH369AnW1tY4deoUz2TtxYsXWLhwIQAgLi4OJSUlfNubMmUK9u/fj/79+7Oed3BwwMWLF3n6C7dfCYu/vz+OHTuGvLw81vvh4+ODsLAw9OnTh1Z0AGDJkiV49uwZ0tLS6OtUVFT4tlNeXs6ov/aYDHDuzdy5c5GWlsazowZwdi+410+ePBkHDhxAv379EBYWhj///BPFxcUi/Z7cZ5Jf1CJ3d3da6WnWrBl++OEHvnU9ePAAK1euBEVRePnyJc93Y4P726uqqkJHR4fn/Pbt23Hp0iXk5OSI/FxyleHQ0FB60aSqqgpJSUmorq6Gs7Mz/vjjD4ZCysXBwQHv3r1jHOvUqRProkzte66goIARI0bg6NGj6Ny5MwCO8ubt7Y3S0lKB34Etj1xQUBB27NhBXycnJ4dx48YhMDBQoOXAihUr8PDhQ6Snp9PXfvr0CTY2NpCTk8Pu3buJHyeBICJfvnzBnj17UFZWBjc3N57zbm5uWLBggQwk+3+kpgApKSnB0dGRdtI8ceIELl68yFr27du32LVrFyorK+Ho6ChyW4cOHcLZs2eFKquuro5evXqxbufn5ubSuRq4rF27FvPnzxfJUb+0tBQrVqzAhQsXSHLBWhgZGWHDhg1YsWIF/TJPTk5GQEAAampq+Aa4ADiT2trmJN26dcONGzfqbfP06dPw9fWlJ6IKCgrw8/OjVx3Pnj2Lc+fOIT8/H1FRUZCTk6MnA7UpKChgrFS7ubmha9eu9Od3795h06ZNAmUpKCjAypUrcenSpXqT775+/RpeXl6oqKhgXWUXFW6OJE1NTfrYqVOnsGvXLrx8+RIAx8TGz8+PVvTPnDmD8PBwAJzQ8LNmzYKfnx/r5EtYnjx5gvXr18Pd3R22trYN+EZNn6ysLKF2jMrLyxEVFYUlS5Zg27ZtjH5VWFgotHPw06dPWceb4uJiejxqaLK+ffv2ISAgAK9eveJbJiUlBSkpKWjRogXjeHx8vMQcnaOiouDp6YlHjx7Rx9avX0/buMfExGDfvn30uadPn9LfvUePHujduze9+CIsb968gZeXF8rLy1kX6xISEoRKexAREYE//viDcS82bdpE797dvn2bJ5mkh4cHrK2tBdabmJgo9v318vLCsWPH8OrVK1azvdevX9OLSHUDL0yZMgUeHh6M30KYqFPV1dW0czaXzMxMsb9DamoqY4eUoig8fvyYZ8c8ISGBEfL91q1bPAtR5eXliI6OBsDZ0dy4caNUkkYSCLJi3759aN68OUaNGtXgurp27Qo/Pz+e9DGpqakICgrCq1evUFxczDCzNjExQdu2bRvcdkNQlFY4YQUFBcZqkYGBAfr16weAo2jUXhkEOKubsbGxIilAvr6++PLlCy5duoTnz58LfZ2GhgY8PT3h6+vLmqmWy4oVK7BgwQKYmJgIVe/r168RGhqK8vJy/P333w3aJfgW0dbWxqxZs1BQUABfX1/6pfPmzRvcuXOHrwIUGxuLv//+GwDHLnv16tVCPzjPnj1jrMLLyclh/PjxMDQ0BMB5GZ47d05gHXFxcQgMDKQ/u7q6wsnJCR06dKCPRUVF1asAlZWV4eTJk4zJgbW1NX799VcAHMXZx8eHVsAePXqEx48f0wqQiooK3N3d4evrK/IKr4aGBs/KNfeZAwBdXV2sXr0ac+bMoSeub968oRWgwsJCHD9+HFu3bqUVoCFDhuDFixc4c+aMSLLcunULU6ZM+aoUIEVFRaxfvx6+vr5ISUkRu5758+fTZllxcXE4ffo0fe7ChQtwdnZmKEB1cXBwYJi5paen04kfAeDvv/+Grq4uIzJleXk5Tp06RQdTGT16NOsu0f79++vtV/fu3aOVH1NTU54wp6dOncKzZ88AcCbku3fvpp/rBQsWoLi4WCi/mLq4uroyxuHk5GRcv36dUcbW1pY2G7W0tERlZSUjNGtISAh0dHTQp08fLFq0CJWVlSIHsnn8+DEePXrEowD5+/vTCwn9+vXjG8r4+vXr2LNnD27dugWA069Wr16N+fPn07t/paWlPArQ0KFD6zUdtbOzg4mJCU+/AgBHR0fG/UtLS2Pcm4iICIF1A5w8fdwE41yTWYCTCuLQoUMMBUgcrl+/jgsXLgAAfvjhB57JFMAZE7ljUl2GDh2Kly9f1rsYmp2djdDQUMYxOzs7OkR5amoqDh48SJ+7desWmjVrhqqqKpHyNxEITZnIyEiMGTNGIgqQvr4+HBwcUFxcDB8fH8ZCW1JSUpNNsK0YEBDQ4DCGwmBra0tPeLKysmgTlQsXLtCrpG/evMGVK1fqtcsuKirCiRMnsGPHDp4dG2Fo0aIF1q1bh7/++kugAtSyZUtERESgoqIC5ubm9dabkJCArVu38j2fmpqKc+fOsZoRfC+oqKjA1dUVx44dY6y6paSkIDw8HBMmTOC55tGjR3SCLSUlJaxYsUKgeYko9OrVCzY2Nrhz5w7fMvHx8QgJCaE/L168mKH8AJwBYMaMGThx4oRIgQH69u1Lbw9//vwZe/fuZd2BAjhmNatWrUJoaKjIClB9tGzZEuvWrRPpmoEDB+L9+/c8CtCoUaPQunVr+nNWVhY9sflakZeXh7OzM06ePMlQgNq0aYORI0cyyt6+fZvHJAgApk6dijVr1sDU1BQAR1mpO1Gtj6lTpzL8UB48eMBQgE6ePAlra2taAfr06ROOHTvGcCgfNmwYXFxceOquqalBcHCw0GH7TUxMeEwbXrx4QStASUlJ8Pf3pxWgWbNm4caNGwwFqLCwEEFBQZgyZQpjxygxMRH//PMP/XnJkiUi7cKbm5vDwcGBMck/ceIEfv75Z/Tp0wedO3fG3LlzeRSgAQMGsCqg4eHh9Lvm5cuXuHHjBoYNG0afDw4Ops29e/XqxWomFxERAT8/P1y5cgUAJ8LitGnTsH79esbOrLiMGjUKo0aNwrFjx3j61bRp0zB06FD6c3JyMgoLC3Hy5ElG0IAff/yRx9zr7Nmz9M5iTEwM2rRpw1CAJMWtW7foe6OoqAgDAwNMnTqVYX57+PBhvgqQtbU1EhMThbYG4TJy5EisXLkSAwcOBMAxUeXOMbhj+ZUrV/Djjz8SBYhA4IOmpiY2bNiAQ4cONdjSoLFQ/P333xu9UX19fRw6dAgA54XJVYDu3r2LZs2a1asA5eTkCMyCXV5ejps3b2LgwIGsvgvC4uHhAQBwcXGBs7MzjxNtXfT09NCvXz/ExMSwno+Li8OmTZuarAKUn5+Pe/fu0b4wksDMzAympqZ4+/Yt43i/fv3w8eNHOqFpXFwcPD09eRSgd+/e0aHTW7RoAVtbW5Gi83Ts2BFdunTBq1ev0Lx5c1hbW9N+B69evYKamhp69+7NUIDu378PTU1NaGtrIzk5mV7ZVVFRwcCBA9G8eXOedkxMTODt7Y0zZ84IrQB17tyZngyLQt++fZGenk7fu9zcXMTGxvLNR6Wrq8sa/KFjx44wNzdn9dN7+fKlyPmruKxatYphLvLy5Ut8+fIF9+/fZ/XV+JoxNzenxzIuc+bMYShAqqqqsLKygp+fn0RDimdnZ9eb+ywlJYWxkt6jRw++oaHd3d0RFxcn1O9uaGgIS0tLxrFHjx7Va/JnYWEBY2NjekUwJycHCxYswNChQxkKUFRUFLy8vOh7V/eZMzAwQO/evenvb2VlRe9MpqSkIDExka//qSCmTp3KGkDg0aNHtAJ08+ZNqKmpMRQgLqamprQ/S10OHTpET/B1dHQwduxYqadS4IeRkRF8fHxw9uxZWgEyNzeHs7Mz5s2bx1P+f//7n8DFQknz33//YdGiRWjRogV++eUXWkFs06YNhg4dSu/gi1Nv3WTrq1atopUfgDOWe3l5McZyc3Pzet//BALh60JmUeC4GBoaQl1dnbYDLi0tRWpqqsD8DUpKSozBKDs7m5ErJysrC7/88gvev3/Pmt+iuroaKSkpQodA3bt3L5o1awYvLy+B5QYMGIDg4GCMHTsWAMfMQBjn1qZCfHw8pk2bhuTkZL7hwEVl6dKlKC8vh6urK+O4v78/MjMz8b///Y8+VlFRgeTkZLRv354OYHHo0CHalr99+/Yi7yQ4ODigefPm2LhxI9q3b4+rV68iJSUF+fn5cHd351lNpCgKM2fOREREBAYNGoS///6bjgykp6eHq1evih3WUVFRESYmJrT/k7u7O2bMmIHi4mJkZmYiLy9PqFDEBw4cQFZWFm26Fx0dDScnJ4YZaO18KH369GGY8HFxdHSEmpoa3N3d6dX1lJQUVFVVwd3dnfHbNISuXbsiLCwMxsbGIoeS/hrR19dHy5Yt6VXzVq1asfqrqaurw9DQkBF2vC4qKiqMsa558+bIzc1Ffn4+Ll++zLqTIwhPT096fKqPkpISpKWlMcxNW7VqhY4dO2L69Onw9PQEwHlmUlJSsHDhQjoBKD/Wrl2LoqIihg8GwOl3+vr6PEER9PT0cO3aNZ6ANoMHD8bBgwfpnZbQ0FAoKyvj/fv3OHjwILy9vYX6jpLGycmJNQJeRkYGIzDHTz/9hODgYJ5ynz9/blRFozYuLi6sys+hQ4fw33//4dKlS1JtX1dXF3p6evTCTkVFBSZPnozTp0/D0tISOjo6GDlyJM+OqyjcuHFDoK8pF+5YzR2vPDw8MHXqVLHbJRAITHJycvD582eJ5UgTB5krQKdOncLs2bMRGhqKmpoa3Lt3D0OHDuXZMaiNoaEhY4XVyckJwcHBQq8uZ2VloUuXLrRyoqCgQO94UBTVoESb5ubmtGy9e/dGXFwcampqvrmVb0mgoKAAeXl5+t68fv0aPXr0QHJyMs9DIScnJ7biMXnyZHqiVFFRAWtr60Yx+6xLy5YtafMg4P/72uXLl/lGluJH3XsHgBFz39nZGadPn6bzhvBjypQpmDJlCqqrq1FWVoaBAwcKnJBLipqaGlAUJbGdxqaEl5cXmjdvTisI/Bg/fjx0dXUFOrdbWlrS4wn3ni1btoxh2iUtbt68iZEjRyI+Pp4+tmfPHkbwAG6/GTBgAN+IhnXh9knuOFtTUwMbGxvcvn0bNjY2oChKqPGSe2+49YwaNYoO8d3UsLe352sZUJvdu3cz0i3IyclBXl7+m3xO6rJ69WpoaGhgyZIljHcwNxLm1q1bsW7dOvqeSBM9PT16559AIAhH7ee2vnn1+vXrUVhYiM2bN0v9ea4Ld/7UuK3ywc/PjxHiWFS8vLyEWtXhx9atW5GcnIzk5GS+9sXicOnSJSQnJ0s0H8m3xMGDB4UOejFkyJAGT25SUlLQsWNHoSdq0sbDwwNGRkZ0eG1R8Pf3Z/SrhIQEWFhY8Njezpw5k3WluTaRkZEwMjKCqampSOGQG8LGjRtltkr/tcJ1hD927JisRQHAya1jZGQEc3NziBJMZ9WqVfSuKht79+7F6tWrhaorKysLZmZmMDIy+iZTDsjLyyMqKuq7CcM8Y8YMvrnRvL29YWRkxDfABIFAkB1paWkwNjamI2F6e3vT82quD3dd/vzzT5nkCQoICMC8efOYCtDUqVN5TBMag/3790NfXx9r1qwR63ptbW1oaGgIVfbFixeYOHEiw/xNW1sbhoaGMDQ0xKBBg3DhwgWB+SmERV9fHwEBAbh8+XKD6/pa2bt3L/bv3896TkdHhydUbklJCUaPHo13797Bw8ODThipoqIiUmLb2vzzzz+wsbHBpEmTkJaWhqqqKuzfvx93797F3bt3sWHDBrHqbQjr169HcHAw0tLSxArkUffeVVRU4N27dxg1ahTtMwVw/KbqJj6tzcWLF7F06VKkpaWx3pv169eLLJswfP78ud5Q4AQOnz9/xrBhwxAbG4u0tDQUFRVhxowZuHv3LiNaVWMREBAAGxsbLFu2jO431dXVCAgIYDja80NDQ4M1p9ry5ctx9epV5Ofn49OnT+jRowe9i8nGixcvMH78eCQnJyMtLY2Oujlz5kzcvXu3UXbJxGHcuHHw8fERuryBgYFIfo/ismvXLpn0p9qoqalh1KhRPFHaACAvLw9paWm4fPmyRFIDEJoOU6ZMERhAitC0efLkCezt7ek5BMCxeOHOq4cNG8Y6lnPH+saGO39SrG2D3qZNG6GinUmaN2/e4M2bN2jWrBksLCykpoTFxMRg8+bNDFOEtWvXMsLxqquro2/fvhLbknv16hV9f3v27FlvqOTabNmyhQ5TPHjwYLEVREEEBwfTviSmpqbYtm2b2KZmbCQmJsLMzAyjR49mzdw9Y8YM5Obm0qvaVVVViI6ORmFhIX3vhg0bJvYqwdmzZ+Hr60vndFBQUICvry/s7e2hp6eH8PBwRgAEOTk5+Pr6wtzcHIGBgULvCCYmJsLNzY1++NesWcPjbMvFzc2NjuQ2cuRIHttyd3d3pKam1tvm9OnTkZubS0eoq66uRnR0NFxdXYUy3zhz5gx27dpFmzgpKirC19cXkyZNoqPssUUzIzQe3H4VERGB6upqrFmzBt26dYOFhQUsLS3RrFmzRpXnwIED8Pf3x4sXLwAArVu3xo4dOwBwwiELiqZYGxsbG2zYsAHbt2+njz179gx//PEHHSZeU1NTYMLcgoICnrHcwsKCvjeNoTSIQ6tWrWBhYcFz/ODBg0L5ON67d49x3yTFu3fvxA58Ikm0tbUxevRoelzbsmULYxzipr5wdHSEr6+vyAnKCU0PWc09CZIhLy8PDx484HteQ0OjSe5iK2ppaTWKzX99cJ1nhw0bhvHjx0uljaSkJDoKD5chQ4Yw8mpIE0NDQ4wZM0bo8pcvX6ZfSJ06dcKQIUMkLlNUVBQdllZPTw8TJ06UeBt5eXlo2bIlFi1axHPup59+Qu/evXnMeg4ePIhXr15h+PDhWLFiBU/OmMOHD9OTMIBzf+pGbzp79iz27NmD6OhomJiYYM6cOZCXl4ejoyPU1dUBcKLP1U28N2HCBOjr6yMqKgpxcXFCfcfs7GxG6NmPHz/CxsaGji6UkZFBRwsLCgpCdnY2Ro8ejeXLl9Or5qWlpdi9ezftmzZy5Eg6RxAbvXr1Qu/evRkhugHOjteUKVPg6OiIn376iee6wMBApKWl4datW4iOjkbHjh0xe/ZsKCgoYO7cufS9iYiIwPnz5/m2f/v2bYSHh6NDhw6ws7ODn5/fN+vrVl1dDT8/P6SlpcHe3h45OTlCT/bFJT4+Hn5+fox+NWTIEEYYbFEJCwuDvr4+34iBgjh8+DAOHDhAK9edOnXCypUrWZOC1oeJiQmGDRvGM5G/f/++UNc/f/4cQUFBjGNDhgxpcmGKq6qqsHv3bqHesZGRkYxAJi1btsTKlSt5QmQnJibi2rVr0NbWxsqVK79JBUBDQ4PuV1VVVfDz82Pcm4KCAhw7dgybN28W6fv36NED8+bN4+k7BAJBumhpacHT0xO7d+9mTdgtC2QeBOGff/6hQ6KamZk16OXOpUWLFpg0aRI9kSPIlujoaLRu3RqihFznKgvz5s1jVQKCgoIYuxwmJiY8vjTnzp1DZGQkAMDY2Bi//fabOOLTFBcX4+jRo0L1rdDQUAQEBNDhoDMyMrB582ZGmREjRjBMhkpLS7Fz5046ouHw4cPFntDZ29vD3t6e9VxwcDC9Iwaw35vIyEj4+fkJXJG+c+cOzp8/j86dO9N5f+zt7Rk5gACOcnjq1CmGcmRlZUUnHpQ0Q4YMEZhMVByqq6uxa9cufPz4ESNGjEB5eTnf8SoyMpJWnA0MDGgn7rq8f/+er3ns8+fPceDAAYb/1sSJE+lkmQDw4cMHnshcw4YNE7iSeuLECfTv359VAbp48aLAJK+BgYGMZ65jx45YvHgx3/L1wb03bLmQOnXqxDcdwvPnz7F//36B9yY5OZmRRwgAfvnlFzpEdUpKCi5evMg4P3ToUHTp0kXs78NGZWUlfH196w0PfvnyZZ5kgdra2nB3d2cci4uLo3fSNTU1GzymNTUSEhKQmprKCDE+d+5cVFZWIiYmBm/fvhVaSWaje/fumDNnDkMBunbtGtq1a8d3IfTGjRvIyMhAt27dpDZmEQjfOhoaGnB3d8eRI0e+fQWopqYGMTExqKioQNeuXXkSV1IUhejoaKxbt45+qdrY2PCESxaHli1bIjAwsNEjS9Sldu4IQ0NDdOvWTabyfG1YWFgIDIcuCl++fMHt27cAnn38AAAgAElEQVR5jvOb8MXFxfEEBPj06RPmzZsHFRUVnkl+U4oY9NNPP0FPT0/o8l++fMGDBw8YW9SHDh0SOuT4mzdvaKf1nTt38oSef/fuHY8J4+zZs6Wy2wgAy5YtY83RIim4fhJOTk6szvqBgYH0zlnnzp35OvxHRUXxNWW6dOkSjz/G1q1bYWZmRn9+8OABj7nw8uXLGTmY2EhMTGR9FlavXs0afbOmpoY2S+XSpk0b/Pjjj4xyT548YQRDaNmyJfr168dXDu69qasAGRkZYd68eXwT8168eJEn99L27dvpCWxqaiqOHDnCc29q7yQ/fPiQZ0HCxcWFZ5e9qqoKMTExjBDWDRnLTUxM6N+wtLSUNnFev349I9pe3XsXFxeHvLw8HDlyBNevX4etrS2rT2RKSopQ+Y8KCgoQFRWFmpoa9O3bF4mJiTKxxa9NUlISDh48iDdv3vA8vwsWLMCwYcNw4MAB3L9/H82bN4eVlRXDV/fDhw8M/0c5OTn069cPWlpa9LGsrCwkJydjwIABiI6OBkVRdDCWxYsXw8jIiEcuX19fXLt2DevXrycKEIHwDSE1Bai0tBQTJkxAdnY29u/fzxO7v6Kigj4PcFa7+Dlr5+bmoqioCOrq6nSyOy6ZmZkoKyujHapVVFTQtm1b1rChLVq0gIGBASMKWFZWFoqKinic8QVRU1OD9PT0es19HBwc6ImxnZ0dI7zp90B2djZj0sQPDQ0N6Ovr86ySenp6Sixp7KNHj3jM6PiRnp6OtWvXIjExEdra2jyR1STtgFtSUoLs7Gzk5+cz8gB9/vwZHz58AAAoKyvzKF0A+73z9/dnNX3jYmBggBYtWtCTuocPH2LatGm4efMmXYbrh1EXbr+vu6BBkD4ZGRkMnx+2fDHZ2dn48OEDnciXjX379tG5tYSBO5bXbm/s2LG08kZRFNLT0+Hk5MTIA2RhYYHNmzcjJSUFhoaGQvsWzp49m6/yw4+MjAwoKSkB4PR/tpxtte+NsBQVFWHMmDGMgB0NGcvt7e0xYcIEfPjwAcnJyXyV1Z49e9Jmwenp6Vi0aBFiY2Ohra2N+fPnw8vLC9XV1fjw4QMMDQ3pvG0hISHYtm1bvXK8evWKXoDYtm0btmzZghcvXrDm5Pj48SMdYEJccnJyUFxczHflNycnB97e3ggICOC78xcYGEgHj2jTpg2uX7/OOP/XX3/xLDaEhYXROc4AjonluXPn4OPjA2trazo0r7e3N8rKylh9TcvKyqCrqyuVfCUfP36k88Jxx/LvkYKCApnlvyIIpqioiCdQk4GBAeNdpKqqirZt2zLSi+Tm5iIvL4+xANHUaBQTOLbEcHVZs2YN32hcrq6u+Pvvv+Ho6MiT0HH69OmM1cw+ffrwtc0fO3YsdHV1YWVlRR+bM2cOysrK4OTkJMxXAcDxaenWrZtQk/vvGScnJx4zEzYcHBzQsmVLjBs3rhGkqp+ff/4ZAMdULDU1VSTTPXG4evUqq7na5s2b6VXqHj16sCaZnD17Nlq2bCmSb9nZs2cxffp0hIWF0ceSk5NZkwbXhqIo2qeJX6hagvQQJsIaN5Hl6tWr603cLCkqKirQr18/nvDykZGRMDY2hpKSEpKTk1kVeElR364XwDGlAjjvGkHBFaSJl5eXSL8L95njBkVZsWIFPDw8AHCUPhMTE7x//x4dOnQQWyZuvzpw4ACrn+avv/7K8LcUhyVLluDs2bN8zzs7O+PUqVMNakMY7Ozs8MMPPzDmAFz+/PNP/Pnnn6zX+fv7Y+HChRKXZ8yYMbQProODAyPH1vdEUFCQRKx/CJLnxIkTWLBgAePYvXv3MGDAAPpz//79cefOHcYcYs2aNSguLqbHq6ZIoyhAgrLbnzt3DpaWlnxXK6dMmYLLly+DoiicOnUKt27dYpzPzMwUWH9devXqhZiYGNjY2KC8vBwURcHNzY1hisJN7sdly5YtjDxFFEXRf/Vx8OBB/PLLL0KH6eZHWFgYysrKvpqJ56+//orIyEiRfpvaXLx4UahJDZe7d+9i2LBhuHHjhljtcakrr4uLC9TV1cWKQufu7o6dO3di9OjRmDlzJs95Dw8P+Pj4oLi4mPU+1T4m7n0UFmHqr11m9erVdMQ7wv8zdepUhu8Jd6wRNWDC0qVL0aJFCyxfvpw+JspvxP3XwsICT58+xc8//yzRBZvQ0FBcvXqVbis7O5tHvtqyCNt/fXx8aCVOFES5NwcPHmQdR52cnLBz507MmTNH5PaFRdj7cP/+fXoykZGRAYqi4OvrS+dNe/DgAezt7Rn3dt26dTh8+HC9dV+8eJGh6NQnkyi/H5fXr18zJkNs/YPL+PHjGbvfdSdSXLg78dbW1ozFG3Gob7ytTUhIiNQCM4lzb5sKQ4YMYfiSiounpyf27t371d2HGTNm0Au8EydO5Ks8f+2w9VFhx1tuuQcPHtDRbrkBYby8vDBp0iSRrK8kjoWFBQWAAkC5urpSkqK6upq6d+8eZW5uTtfP/WvXrh0VERFBRUREUPn5+QLrsba25rme7W/OnDlUREQE9fTp03plKy8vp+7cuUO1a9dOYJ1HjhyhIiIiqIyMDMb1lZWV1N27dykTExOB1x8+fJjKyckR6b6lpKRQtra2lK2tLaWpqcmoT0dHh5o9e7ZI9dXHvHnz6PoHDhwosXofPHhARUREUHZ2dhQASk9Pj7K1taXGjRtHFRcX85TPzc2lAgMDaVkeP37MU+bDhw/0vdHQ0OC532pqatTw4cOpT58+URRFUa9evaJmzpwpVP/h/snJyVFhYWFUREQE9d9//1EURVGZmZlUREQEdfLkSUpBQUGk+qZPn069fPmSKigooM6dO0epqqqKdD0Aytramnr48CHfe33x4kVGeUFlubx8+ZKaMWMGa3v79u2jn09Bfw4ODjzX9u/fn3ry5Andzr///kv17NmTp5yZmRkVGBhYr5zC8OTJE0bd4eHhEqm3NuXl5VTr1q0Z7bRu3ZpavXo1o9zPP//M811VVVUpW1tbKjMzky4XEhJCdenShadsjx49qH/++YeiKIo6fvy4yH0FALV8+XIqMTGRbos7XnXs2FHoOuzs7KiIiAjqwYMHAsfy+v4MDQ2p27dvU+Xl5az3NSkpiWfMrY8PHz5QGzduFOve1Pe3d+9eRltfvnyhtLS0GGVcXFx4ZPrpp58oAJS3tzfjeElJCaWvr8/aVu33YEREBDV06FC+cu3Zs4fRf27fvk2fS0pKoiiKohwdHflef+PGDfpafv3K39+f9X7XniMAnLF84cKFjDLx8fGUvb29VH6T2n9jxoyh4uLieGTcvn071aFDB0ZZOTk5qn///jzl8/LyhB7LQ0JCqM+fP7PeF0lgaWkpsF81ZUxNTXnuV//+/UWux9nZmfXe9+7dm7p//74UJJcMtra2tKySnpdJkvDwcMrW1pbq06cPzz328vKq9/pDhw7R5ZWUlKjTp0+zztvrjuUAKCMjI8rW1pbRzwFQu3btoudXssDDw4Nq27YtJbUdIHl5eVhZWcHLy4vHtlNLSwuDBg0Sqp4NGzZg7ty5OH/+PGtI3nXr1sHMzAyWlpbo0aOHUHUqKyvj559/xu7du5Gfn8+33Pjx41ntxRUVFWFtbQ1fX1+B0SzGjRsnst2wpqYmHf6TLbysKPbrsoRrYqKqqorRo0fTx5s1a0bb6tdGR0cHdnZ2dOCK2nbbXLS0tATeG4Dz26iqqgIAzM3NsXLlSpF2kuTk5DB69GjGqoS+vj709fVRXFyMoKAgkUI9d+/enY4sNWLECBw6dAjr16+nsyX/+uuvmDx5Ms91+/btw9OnTzF8+HCsXbtWoE8PFxUVFXh5ebE68talS5cuWLVqFWto9VGjRgkVREFLS4s2F6xNbedsIyMjviawdZ3omzKKiorYtWsXba/Ppa5Z1/r16+Hg4MBah5qaGv3/7t27swZQADjR1QCgX79+jEhnwtK/f3+YmJgwZLe2toaPj4/Q0Xe6dOnCiBTHHcu3bNkiMN9DbSwsLODp6QkbGxuhyq9bt47VNKku7du3h6OjI+M7SgpBQRsE4eHhgS1btuDUqVMwMDCg/QSVlZXh5+fH6kOjqanJeA/Ky8tj+vTprPWPHDmS9g+5f/8+vLy8oKurCy8vL9ofz9HRkTZRrUvtqIh1+9XGjRt5zBf5wR2v6vrrWlhYYM2aNVBWVsbx48cZ537//XfW8VwczMzMWMcNKysrvv4zdYNFaGpqYtSoUQgKCsK6det4fE87depEm+OPGzeuwdYbBMHMmDEDlpaWrOcMDQ0bWZpvDzMzM3Tv3r3B5pWtWrXCzp07MXLkSDRv3pzn/A8//ECPK15eXnjz5g2Sk5PpVC7c8QrgjCPiJraXBPHx8UhLS4OchYUFxbXvdXV1FSlDdWMSERHBGrnI0dFRYoPr98j8+fPpkKADBw6kw0YTpMf+/fvp4B9WVlasoa7DwsLw5s0b9O/fX2AuoIcPH2LPnj0IDQ1FixYtkJyczDeYyLfK06dP0bNnT/pzeHi41ExWvndOnz4ttD9Ix44d680RVNv37Pbt20IrS41FWVkZdu/ezTCJ7tevH6uj/qRJk3DmzBn07dsXK1as4ElwLCmOHDmCuXPnokOHDhJJXLpv3z7k5uZizJgxrAsttcerAQMGCExVERMTw5Nrb9GiRTAwMGiwnNJgz549PIsC7dq1E8sMUxx69uxJ+wC5uLh8VT5Ae/fu5Ykc2LZtW8yfP19GEjUugwcPRkREBACOL+7Ro0dlLBF/3r59i9DQUJ7jv/zyS72LTo8fP8aFCxego6MDFxcXodr766+/6ABOXLS0tLBy5UrhhZYidnZ2CA8Pl30eIGGxtbUVOooXgdCUqe1Pxo9p06YJVVdsbCxCQ0Ohra0Ne3t7RlhYAkHSTJo0iW9eI1HJyspCeHi4ROqSFioqKnyD89TFxsYGr1+/RmxsLHbu3Ak1NTWRgpPUR1RUFN6/f4+oqCi0atVKYhEy6yaQrosw4xWXfv36ib2LJgtq+9gRREPYyTBB9piamsLT01Osa3v16iVy+HduwJmmzlejABEI3yufPn3Cq1evWM+9f/8eAMdUoG5uFAKhqfDgwQOUl5czjj19+hSurq6Qk5P7v/buO6qJ7O0D+JdepCNYWGnSLIgNK+pad13boq66dixLEXVBVFQsa0EBsXewgmtbC4pYQUVXREGliIqCK4giAiJID8z7By/zY5wkJCEhIPdzDueQKXduksnM3Jl7nwe2trYNOlyqIFxdXSEvLw9/f388ffoUCxYsgK6uLmxtbbl2+xVGfHw81q9fjytXrqBly5aYMGEC/P39xVRzgiCIpoc0gAiigbt79y7s7e15zldRUZFqf1qC4IfD4WDcuHF09J9vycjI4PTp099FV2YnJyeoqqrCw8MD//33H4YMGYL79++jefPm0NXVpccnCuPDhw9wdHTEgwcPoKmpiSlTpjTYruoEQRCNhay0K0AQRN0MHjyYDklMEIR0TZs2jR4MXFJSAltbW5iYmCA0NFTosqj/zwMUHR0NAHBzc6u3/E4EQRDfM9IAIohGbPr06Thw4AAdPY8gGhNDQ0MkJyfDwMBA2lURGxkZGQwaNAhXr14FRVHgcDjgcDhYsGABzM3Na00MeObMGZibm8Pc3BwWFhZIT08HRVHw8/PDggULyG+dIAhCDEgXOIJo4Pr27Yv9+/ezMpE7Oztj4cKFDTbCEkHw06VLF+zcuVMi4aylTVVVFf369cPly5cxdepUfP78GZmZmQCqIiQ9ePCA57oZGRl4/fo1AEBOTg5BQUHQ09NDhw4deCYMJwiCIIRDGkAE0cDp6elh/PjxrDu/vXr1gqWlpZRqRRCCkZOTg6+vLwoLCxnTW7duLVDen8ZKVVUVP/30E3bu3EnnATp37hyuXLnCczxUtfbt28PNzQ0yMjIYPXo0I4cUQRAEUXekAUQQjYCOjk6Tya9AfF9kZGQEDuv+vZGTk6OTogJVXf5q5qzipW3bto0mlCxBEERjxGgAvXjxAvfu3eOZTZogCIIgCNEMGzaMa+JjgiAal8GDByMtLY1ORUE0PowG0OXLl6GsrEwaQARBEARBEBJkY2ODtLQ05OTkSLsqhJBWrFiBlJQU0gBqxEg4GYIgCIIgiHp2+PBhDBgwQNrVIIgmiTSACIIgCIIgCIJoMmQvXbqEgQMHSrseBEEQBEEQBEEQEidrbGxMQmwSBEEQBEEQhJDCw8OxZMkSaVeDEBLpAkcQBEEQBFHPvL298fTpUwDArVu3sG/fPinXiBBFRkYGoqOjpV0NQkisPEDJycnw9fWt94r0798fvXr1EmjZL1++YP/+/RKukeQoKirCyckJysrKfJcLDg7G+/fvJVqX+Ph4+v+MjAyJffcWFhb49ddfuc6LjY1FeHi4RLYrLb/99htMTEy4zjt06BCys7PruUaS06ZNG655XqKionD37l2Jb//b38j58+eRnJws8e0S3ydbW1uBuoVnZ2fj0KFD9VAjyeN3vBJUREQEYmJixFQjyeF1vBKH5ORkXLhwQeDl9+zZg4yMDABAQkICdu7cifz8fLHWaeTIkWjfvr1Yy/zWgwcPEBkZKdFtCEpBQQFOTk5QUVGR6HZOnjyJhIQE+vW7d++kcu3cvXt3DBo0qN63y8+JEyeQnp4ukbLnzJkDHR0dsZTFagAlJCRg6dKlYilcGL///jvS0tIEWjYrK0sqdRQXFRUVqKurQ11dne9y69atq9cLuTdv3kjsc+3ZsyfKysq4zrty5QqOHDkike1Ky5cvX2BjY8N13po1ayR2cJCG9u3bQ05OjjX93LlzOHXqVL3X59ixY/W+TeL7MXLkSHz69KnW5dLS0hr1eaimvLw8dO7cuU5lHDt2DJcvXxZTjSSnXbt2XI9X4hAdHY0tW7aIvH5SUpLY96l3795JPLXJhQsXcOLECYluQ1DKyspQV1eHhoaGRLezfv16PHv2jH6dmpoqlePBiBEjGtwN1fXr1yMpKUkiZSsqKqJ169Z1KqP6poMMRVHUqFGjEBoaKo66EQQAoFOnTow7MLm5uXj16pUUa0SISlNTE1ZWVjzn5+fn4/nz5/VYI8kyMzODrq4u32XevXtHH0QJgiAIgmhcWE+AlJWVJd5yJhqOgoICFBcXA6hqWWtpaYml3NOnT8PS0pJ+HRYWBgcHB7GUTdSv/v3748yZMzznP3jwAGPGjKnHGjFxOBzk5uYypqmrq4vcBcLf3x+jR4/mu8ymTZuwdetWkconCIIAgM+fP6O8vJx+raSkBE1NTbFuIz8/HyUlJXyXadas2XcVDCs7OxuVlZVc58nIyEBXVxeysnUbAp+Xl8fo1SLO6ydhFBcXo6CggOd8VVVVqKmp1WONJCs3NxccDkcsZbGeAP366684fvy4WAonGj4XFxccPXoUANCnTx/cuHFDLOWqqKhARkaGfl1RUYHS0lKxlE3ULzk5OSgpKfGcX1lZWesJVpLi4uLQp08fxjRfX1/MmzdPpPKUlJRq7SJTXl7OuHAhCIIQVp8+fRAXF0e/HjFiBE6fPi3WbcyZM6fW7mkrVqzA8uXLxbpdaSkqKkKHDh2QlZXFdb6ysjKePXuGli1b1mk7v/zyC+7cuUO/trOzw7Vr1+pUpih2797NNwKds7MzNm/eXI81kqxu3brhxYsXYimL9QRITk4OqqqqYimcaPi8vb2hqamJHTt2QFZWVmLfPdmvvl+S3G8E8W0wkR07dmDKlCkSrZOCggIUFBQkVj5BEN+/c+fOwcnJib7xKInzpJ+fH7y8vPguo6en992cn1VUVBAZGYmKigqu82VkZGBoaAh5edblr1COHj0KNzc3nD9/HoD0zoOzZ8/GiBEjeM7X0dH5br5bAAgNDa3zzfSFCxfi5s2b7AYQ0bS0bt0aenp60q4GQYhNmzZtxBYlhiAIQlJMTU1rDYZUVwYGBjAwMJDoNhoSGRkZRvd7STEyMpJKl7dv6ejoNKnzXdu2betcRvVvjuQBIgiCIAiCIAiiySANIIIgCIIgCIIgmgzSACIIgiAIgiAIoskgDSCCIAiCIAiCIJoM0gAiCIIgCIIgCKLJIA0ggiAIgiAIgiCaDNIAIgiCIAiCIAiiySANIIIgCIIgCIIgmgzSACII4rty6NAh3LlzR9rVIAiCIAiigSINIIL2/v17HDx4EBRFSbsqBCGyS5cu4cmTJ9KuBkEQBEEQDZR8fW7sv//+Q1xcHNd57du3h7m5uVDl3bhxA0VFRfRrQ0NDdOnSRagyoqKikJWVxXN+r1690KJFi1rLSU1NRUJCAs/5pqamsLa2Fqpu9S01NRVr1qzBjBkzIC9fr7uGRMTGxuLdu3c853ft2hVt2rQBAOTk5ODx48cYOnRovdTtwYMH+PjxIwCgdevWsLW1FamcN2/eID4+njFtwIAB0NLSqnMdCeJbMTExyMjIAAC0aNECvXr1EqmctLQ0ViPVzs4Ourq6da6jqKKjo5GZmSnw8hoaGhg4cKAEa0QQBEFISr1e5V69ehXOzs5c5y1YsACzZs0CACgpKcHKyorrcl+/fkVKSgoAwMHBgT4ZA8Do0aOxdu1aKCoqol27drXW58WLF/Dw8MD9+/d5LrNr1y7Y2dlBX18frVq14rrM+/fvsW/fPvj5+fEsZ/LkydiwYQOMjY351qm0tBQvXrzgu4yMjAzat2//XTRSxOnbz27VqlUICwvjufz69esxcuRIAFUXdhs2bEBqaqrE6sfhcPD8+XNUVlZi6dKliIyMBACMHz8eZ86cEbq89+/f48CBA9i0aRNj+qNHj9C9e3ex1JkgKisr8fz5c3A4HHh5eeHatWsAgOHDh/P9ffGSmZmJw4cPY82aNYzpt2/fxoABA8RSZ0FVVFTg+fPnqKiogKenJ27fvi3wuhYWFjh9+jT92tjYGJqampKo5nfhw4cPXG82WlhYQEVFRQo1IgiiKau3K+jS0lKUlJTwnL9jxw7s2LEDAGBubo7k5GTWMuXl5bh9+zZGjRrFtYyLFy/i4sWLMDQ0xJs3byAry72HH0VRKCgowOjRo/Hq1Su+9XZ1dQUALF68GL6+vqz5RUVFWLduHfbt28e3nL///ht5eXk4deoU1NTUuC7D4XAQHx+PHj168C1LUVER8fHxMDMzg5ycHN9lmwoOh4PExETWhb+ysjKUlJQY0woKClBZWQkvLy94eXnR001MTCRax9zcXPTu3RuFhYViKc/f3x9btmwRS1kEwUtxcTEGDhyIT58+iaW8PXv2YN26dWIpqy4qKiqQnp6OPn36oKCggDVfTk6O77E6OTkZnTt3pqcdO3YMEydOhKKiosTq3Jj5+/vD39+fNf3hw4ciPwEnpK+kpARlZWUAqn4zzZo1E3jdoqIicDgcvssoKyuT31QdcTgcRm+papL8bIuLi1FeXs6arq6uDhkZGYlsU1j1NgbIx8eHcbEpijNnzmDy5Ml1rsvHjx9haWkplrv9f/zxB44cOSLQsjdv3sTw4cN5zr99+7ZAXbDKy8vRq1cvxMbGClzP711kZCQGDx7Mmu7h4YE3b97Qf69fv0br1q2lUEOCIBqShIQEdO3aFV+/fuU6v0OHDoxjR82/gIAA1vIuLi44cOCApKtNEA3K8uXLYWJiAhMTE4wbN06odefOnUuvy+vv8OHDEqp50xEREcH1s92/f7/Etrl48WKu20xLS5PYNoVVb0+AioqKBLrz3atXLxw8eJA1ff/+/di4cSPXO3XfyszMhK2tLS5evAgDAwPW/MrKSnz+/BkVFRX0NAcHB8yfP5+x3Pjx4+lG0rFjxyAjIwMfHx/GMgUFBXyfbNVUVlaGL1++cJ33zz//YNmyZTzn10RRFPLy8mq9c9JUnD17Fp6enqzPztvbG7NmzYK2tjZj+tWrV1FWVoZVq1YhNDS03uqpo6ODf//9F+PGjaO7cdaFu7s7FBQUWPtkU2NlZYU7d+5g5MiRAh0fCOGoqKggPDwckydPRmJiYp3Lc3Z2hr29PWJiYvDHH3+IoYbCCw8Ph6urKz5//kxP27ZtG/r370+/VlFRYR07qo0YMQKPHz9GUVERRo0ahc+fP+Pr16/w8fFBYWEhli5dKvH30Ni4ublBQUGB7rKroqKC0NBQdOjQQco1I4Tx6dMnjBw5kr7+SEtLQ25uLgAgPz+/1vXz8vIwatQoFBUVISUlpdZrng0bNuDAgQP48ccfuT5BJHjbunUrgoOD8eXLF/o7qqn6eOXp6Sm2bY4cORIfPnzA27dvuW5z5MiROHToUIN46lvvg0i6du3K90mQvr4+2rdvz5r+/v17vH37FtbW1vjrr79Y80+fPo2TJ08CqGpoPH78GKWlpazlXr58CXd3d1bjoUWLFqwACsrKyvT/Hz9+5PnEaM6cOfjll1+4zvPx8UF0dDTXeTV9+vQJr1+/BlA1Bmrv3r2MgezXr19ndbNbsWIF1q5di379+tVa/vcqODgYW7ZsoT87RUVF7N27F9ra2rC1teUawKL6hLtmzRrMmjULERER2LVrF7KysjB+/Hjs3bsXenp6Yq+rvLw8bGxssG/fPnh6etb5CZ6BgQF++OEHMdWu8VJRUUGnTp1Id1AJkZWVhbW1NVRVVcVSXqtWrdCqVSvk5eWJpTxhXbx4Ed7e3ozxgtu2bcPEiRPRsmVLgcrQ0NBAly5dUFFRgaCgIJSVlWHz5s24f/8+AgICUFFRgeXLl0vqLTRKBgYGmDt3Lt3FW05ODnZ2dqR7UyOjrq6OZcuWgaIorF27FtnZ2UKtz+Fw8PTpU/rJ67fXT1+/foWzszN9wzw9PR3p6el0wCJCMH5+fggICOA7zCMjIwOBgYGorKwUy/GKoigkJibi7du3AICJEydi4sSJAKqucZ2dnZGYmIhFixZhzZo1GDRoUJ23KYqlS5eCw+HUTwMoKCgIt+GNTc8AACAASURBVG7dAlDV0LC3txepnJ49e8LDw4Pr+vwisNWUk5Mj0sBdXmbNmgUjIyNGX/CagoKCai0jNDQU586dAwC0bNkSy5cvx8SJExkXHGZmZqAoivHI8vbt2w3qcWJ9Cw4Oxs6dOxnRpGRlZTF8+HCeAStq6tatG7p160ZfiBUWFuLcuXPYvHmzRBpA1YYMGSLwhRZBNBQLFy6En58fnj59Ku2q1ElycjJ9U0pNTQ0rVqzA1KlTRYpAJycnhxEjRgAAFBQUsGXLFty6dQsHDx6EgoICFi9eLNa6N3ampqYwNTWVdjWIOlBWVsavv/4KALWOff5Weno6Nm3aRI8Zmj17NubNm8e4fiotLUV+fj42btzICHJFCG7r1q0ICAhA+/bt4eTkxHWZoKAgPH36FCkpKTh48CDk5eWxZMkSkbeZm5uLDRs20E/Vf//9dyxYsICOFFpQUIDCwkJ4e3vj7t278PX1RVhYGLp164bff/9d5O2KomfPnjAzM4M8t0dU4hYaGoqHDx8CAN6+fYvjx49jypQpQpXRs2dPWFpaYvz48ZKoosjGjBlT5zIiIyNx8+ZNGBsbY+7cuayueABgbW2NsWPHSrTPZmNTc78CqrqYzZw5U6hBmEBVCPaxY8fSjVCCINgmT56MkJCQRt0AunPnDv79918AVTfjHBwc4O7uLpanECNHjkRFRQUoisLt27dx5MgR0gAivmtjxozB+/fvBe4am5mZiT179gAApkyZAjc3N1YXSCUlJcybNw+FhYU4cOCAWLqLNzXBwcF49eoVnJ2d4ebmxnUZbW1t7N69G7GxsUhNTcXWrVuhoaGBGTNmCB2V8d27dzh48CAdlGncuHH4888/GQG91NXV4ebmhoKCAgQGBuLatWu4du0apk6dWu8NoGryJ0+e5JsHp67u3buHDx8+0K+TkpKwbNkyRrjQrl271jownVcXM2Hp6Ohg6NChiIiIYIwBSklJwZMnT4TOIySMli1b8gzzamxsDAcHB76PIfX09DBo0CBERERIqoqNmr6+vkh9hHv27In58+fj6tWrGDx4MOPJ26tXr/Dy5UvWOr169ULz5s3p158/f6YvrKrLFPQp0ocPH3Dv3j3Y2dnxXY7D4SA8PJwRWeXZs2d813n79i3r6aidnR0rT1BhYSH9lLaapaWl0Lm5CPErLS1lHa+AqvxRXbt25bleZmYmYmJi6NcDBgyAuro6Y5n8/Hw6HHu19u3bN4i79Lm5uYwUBb1792Y9pSktLUV4eDgqKyvpaWZmZlzTKDx8+BB+fn64fPkyWrdujUmTJmHjxo0C1eXu3bv0WAUTExOe41bGjBmDjIwMocJpC+vdu3esRii3z6barVu3GONvDQwMJHqek4QnT54wngY0a9aM5GBqAFxcXBAXFydwA0hLS4uO4uvt7Q1DQ0Oeyy5ZsgRRUVGkASSi7t278z2OOzg44MWLF3RX/MzMTLi7u8Pe3l7oBlBycjIjrcGCBQt4RjNetWoVIiMjkZ6eLtQ2JEF+3rx5Et3AokWLGHfpgarHoDVDWfv6+sLBwYFxQVkXioqKsLCw4HpXz8rKCkeOHIGpqSnjguLMmTP4+vUrI5dPzTFEenp6fH+sgujRowd27tzJmt6yZUvMmTMHK1as4Lt+ly5dsG/fPlhYWNSpHt+D1NRUgQZcCkpNTQ39+/fHxYsXGdPDw8OxYcMGVkLVmzdvMqLOPX/+nLFP79+/H3379kXz5s1rTaT777//ws3NDY8ePeI6v6CgAGlpaSgoKMDEiRMFCpRRLSwsDC4uLoxpx48fx4gRIxg3Id6/f88KLz9//nx4enqSqHlS8uXLF7x79w6fPn2Cvb09a0zj8OHDueYea9WqFXR0dHD//n1GVKZz585hyJAhjEbQmzdvWN/74sWL4ebmJlA3Un4KCwvx33//8ZzPbx4AJCYmMup28OBB2NvbMwIT5OTkwN7enu5SAwDLli2Dt7c3q7y//voLYWFh0NPTw++//47Nmzfz3X5JSQl98eXo6Ijnz58DAKZOncoaNNy2bVvGmFGg6vyRlJQES0tLxvi0z58/4/3793y3zc+FCxdY42gPHToEe3t7rgmQHR0dGeMAJk+ejOPHj7OW+/DhA2PQspycHCwtLVkha/Pz82u9eFFWVkbbtm1Z03Nzc+kborKysrCwsOA5do+iKCQnJ4PD4WDlypW4fPkyPc/IyIh+bWJiIrbxaYRkmZubs86xhPiZmZnhjz/+4BoZV9zy8vJqPZbz8+XLF7x580biaUi4kfgYIFVVVcjLy/ONWLZkyRJwOBwsW7ZMpG2UlpYy7oq3bNkScXFxPPMAycrKQk1NDeXl5Yw7h1euXMGVK1dYyyspKcHR0VHo3BXFxcWsu7bcuLu7C1UuUXUSFyS4hKC6d+/O9bt3cnJCs2bNMH36dL7rV+c/KCoqAkVRcHR0BAB4enoKfJeZm/LycoSFhWHSpEkira+goAAVFRUUFxfT06ZMmYITJ04wyqz+TRQVFdG/iZ07d6KoqAiBgYEi158QTXl5Oc6fPw8HBweey/A6Xu3atQvcbmyNHTsWISEhGD16ND3t2/0WqBo8W1JSQudlEwWHw0FERARjW7UpKSmpGpjKI8Hz7NmzQVEUZs+eTU+r3m/z8vLo/ba8vBylpaWM/F81j8UzZ87kmtMNqAqgU30uiY+PR58+fVjLBAcHIzg4mDEtJiYG3bp1A/C/31xKSgpsbW3x5s0b6Ovro7S0FBwOB8ePH+fazbkuZs2ahdLSUsyePRsKCgqMeYKcgwFg3bp12Lt3L/1aX18fqampjC7F5eXluHz5cq3pKGxsbFhPqcrKynD06FH6fNesWTM8e/YMbdq0YZ2rKYrC58+f8eOPPyIzM5NV/tu3b9GxY0cAwI0bN/Djjz+SxOAE8f9OnTol9DrVx1Je1828nDt3jnFMFtalS5fw+fNn3L17V+QyRCXxPEDnz5+nB4lKypIlS7B161aBl9fX18eLFy8E7uaxdu1akcIEjhw5ks6aTnzfunXrhujoaLFHNDp8+DDdmBLF1KlTBcqjYGxsjOTkZBKcoYHYvXs3Fi5cKPHttGvXDgkJCVyfHNTFyZMna71p8K1Jkybh7NmzQq2jr6+Ply9fMu4e7tmzBwsWLGAsN2zYMIG6pf311190vgpRz1vTpk3DoUOHWNMXLFgAExMTiUWH43UevHXrVq3dawV18OBBODs7i7Sut7c3Vq9eTb8uKipC9+7dER8fz1o2NTUVVlZWAiXf/e2333DhwgWR6kQQRBUzMzMkJSWJrSdWYyDxWyZaWlrw9/dndO9KS0tjBTOoHhgn7FMgZ2dnnD17VqAcQ9VkZWXRvHlzgcPmqqmpCTywPjk5GdOmTQNQNT6DWyhucQkMDOSbWJXgzdHRsdbB3CtXrsTIkSMFKk9eXh46OjriqBpty5Yt2L59O93lTV1dHSEhIYzs9GfOnOHaDaqasrIyNDQ0at2WnJwcmjdvLvTdH0IyioqK6C6eenp6uHDhAuPOflBQEKs77alTp2BiYgIjIyOBtyMnJwddXV2xZ+YuLi6moyvKy8sjJCSEMSbu0qVLrCfqeXl5AudUq8btWF7zs6uWm5uL0tJSLF26FK6urlzL8vDwQHBwMOOiW0NDAyEhIYzj/+nTp/l2n+P1m1u6dCnKysoETpzNjaOjI+tuq729PTIyMlBQUIAdO3agqKiI0R9fW1ub9VSIm6VLl0JeXp5rN+1qRUVFQnXBrenr16+MPF0URSE7O5uVLT4qKgqOjo7093Dw4EFYW1vT8x89esR4winKfkM0fNOmTcOdO3ekXY0mo/oaoCmpl2fGbdu2ZfQHtrKywunTpwEAXl5eSE5OpqNIVFZW1joWppqrqyvOnTvHukuUk5ODSZMmYdeuXdDX1xffG6nFo0eP4OXlxRrzVC02NhaLFy/me8HKT3x8PONJVLt27cR+0d1UPH/+nOf3VE3Y/AbilpaWRoc5NzY2xtatW2FnZ8e4mBFnN0CiYThw4ACd0wyo6lLVrVs3RpcuDQ0NyMvLM+74d+zYkZFDrWfPnvDx8an3pJwnT57EgQMHAFSNR9q5cycGDhzIGFirp6cHWVlZrjndJMnIyIhn7qxXr17h48eP9GsTExNs3boVffv2ZfzmHjx4INK2TU1N6Yhz1Z9PtfXr1zPGdiYmJmLt2rWMZVxdXeHs7MzKk1dzv8jIyOCZr67av//+i5UrV7IaoN9+Nvn5+Zg+fTq2b9/O+sxMTU3phKY1hYWF8WzgTZ8+HXl5eVwTndf05csXRuCWdu3aMZImGhkZoaKigvWUj/i+JCYm0iGVf/nllzqFaCYIbqTSaVZdXR2//fYbgKp+wf7+/njy5AlSUlIQGBgIRUVFgcKHXr58mWsEu8LCQpw5cwba2tpYvHgxzMzM6lTfCxcuwNjYuNZIdNra2hgyZAjs7OywadMmFBUVMeZnZGTg6NGjUFFRgaenp9ADNzMzM7n2+SeE5+zsjFGjRuH69eu4efMma76joyO6d+8uhZpVOXbsGCOqnJaWFp17oaa+ffvCwcFBoG5uROMQExNTa14zS0tLOr8CLwYGBhgyZIg4qyaQhIQEOvqcmpoaIxBDNWNjY54RMaVh69atSEpKYkzT0tISS5qDmqytremxQkDV0zFPT084ODgwgo1wu7Fla2vLNUm4sN6+fYvw8PBax7SWlJTg3LlzWLt2LasBVFRUhKSkJHh6ejIaYNXdymvmZqvWqVOnWqPPPXjwgO4+qKCgAE9PT9YTTX19fUybNo3x1IdfNESicSkuLoaPjw8jerC5uTnX8XiE6I4fP04/YbOysoKHh4eUa1T/pD5qcMqUKQgLC6MPmP/99x8CAgIEagBNnToVubm5iIiIYGT1rnbgwAFMmDChzg2gGzduAKg6WQ0bNozncmZmZli8eDFKSkqQn5+Po0ePsp5Offr0Cdu2bcPChQuFagAlJSUhNDQUQNWjyqlTp5LxGnVQHXf+69evjAaQjIwMpkyZgkWLFkk1BPS5c+foi0hTU1NMmDCB63JdunTB2LFjSQOIaBBu3ryJx48fS7saQjt8+DBev35NvzY1NaVv0tV0//593Lt3j36tqKiIqVOnitzTQE5ODs7Ozo0u0mJmZib8/PygoaEBZWVlDB8+HMbGxujWrRvc3d1x6dIlkcp9+vQpzpw5A6Dqs3FxceF6ntPS0iI5lr5TJSUl2L59O92F1s7OTmxj2Ij/uXjxIqKjo9GxY0c4Oztj1qxZ0q5SvZN6A6guqu9gbdu2DXv27GGE+uSntLQUd+7cYYwbatu2LSwsLPDlyxdG7olqN27cgKamJt8GUDVlZWU6klJKSgpevHiBN2/eCPiu2JKTk7F//37s3LkTzZo1w6BBg7BlyxbS/U1C1q1bB2NjY6HXU1ZWxk8//YSIiAh8/fpVbPWxsbEROUIiQdSnQ4cO4erVq9KuRp2YmJjAwcGB62/un3/+obtvA1Xdz3x9fXnm4PmeFRYW0hHdVq1ahd69e8PY2BjW1taMMTsEIaiCggKEh4fTEQu7desGDw8PsT+JFZdOnTrBwsICycnJ0q6KUKKiopCZmQkrKys4OzuzUmU0FbI1H183Vn/++SemTp3Kmm5mZsYKXlBcXIzo6GiMGjWKzu3SqlUrzJs3D2FhYXQmW3HYuXMnAgICGF09lJWVYWlpKVTIziNHjmDHjh2MXDXiavxkZmbSY11UVVVhZmYm9gHRTYW2tjZCQkJgYGAg7aoQ3xEOh4OXL18yct3k5ubWKZcMUaWiogLJycmMYDX29vasPDtEFV1dXa5jqNauXYvhw4dj06ZNePHiRZ3yghCNV3FxMV6/fk2H1BdGdW+M3377DV+/foWJiQl8fX0bbOMH4H3t2VBRFIVXr17B0dERkZGRmDVrVp0bP1paWnXOkSktst9zpvdr164x+slXVlYiOjoaAwYMYFxMrFmzBm5ubgCqogopKyuLrREwf/58xqBQc3NzPHr0iJGEkpeysjKUlJRARkYGKioqGDhwIMLCwsRSr2peXl7Yvn07gKp+1Ldu3RI4Ol5jV15ezsjTJCsrCxUVFZEioVEUhZKSEpSUlEBRUbHePsOKigpWFCVxUVBQECh6FCFZWVlZsLGxwcuXL+lcN4GBgfQxS0ZGBsrKygLtt9/u801dXl4eunfvLtY7uNW/SXGfSxqCGTNmYNeuXeB14/To0aNo164d1/GKoigtLRXpYpqQjqdPn6J///4iRb+9ceMGxo4dSx/PQkJCMGjQIAnUsukqKipC3759kZCQAEVFRbHkzmrMXfCbVMzbkJAQVvjtb3Xu3BmPHj1iRCySlrFjx8LU1BRqampITU3F0aNHpV2l74qHhwfd+AOAH374ASkpKSI9wYmNjYWpqSlMTU0RGBhYbwO8jx07VqckZPy4u7vDx8dHImUTwhs8eDAiIyNZ03V1dZGUlCTQmLW5c+fWKQwzUbvg4GDMmjUL5ubmSEpK+u66x/38888ij/ERRmlpKXr06NEox5QRotPS0kJ8fDzatWsn7ap813bt2oU//vhD2tWQqibVACouLkZOTg7fZRQUFOo1dDY3paWlGDVqFCIjI+Hi4oIZM2agZcuW0NbWlmq9vjd5eXmMsTpycnJo2bKlSE9vysrK8OHDB3z48AFOTk58T9pTpkxhjDMbNGgQ4w7K9OnTBc6KXFhYSIcKFTc1NTWBcghJW3JyMoYNG0Z/lz4+Ppg0aZKUayV+nz59gouLC/r06YM9e/ZgyJAhiIqKwtWrV2FkZMTab+/cuQMHBwf6dVBQEMLCwhgJPl+/fo2hQ4cy8uYsWLCAHttB/M+yZcsYGdbNzMwQHh7OeppfWFiI3NxcyMnJoUWLFhLPrXX27Nl6jVippKSEPn36ICoqiv779obP69evMWzYMEbeH2FRFIWsrCxGbw1e1q5d22jvQhNVofOXLVsGS0tLXL9+HaampmJ5OkH8T2pqKgYPHoy8vDwcPnwY48aNEzi/pbBcXFwEjlj8888/Y9++fRKpR20a3B5mbW2NjRs3SrsaEtGtW7daQ4++f/8ebm5uCA8PR3FxMczNzflGCNqzZw9at24tti4HRN1xCwFbU1xcHKPRoqOjg44dOzLm5+bmSqx+35vCwkI8evSIfm1hYfFdRUjU1tbG9u3bWd0RDQ0N+YbCzsnJQXx8PP26U6dO6NSpE2OZwsJCVj4sIyMjrkFAVq1aJXIOnG/duXMHGzZsYJXfv39/nut4eXlh4MCBjGl5eXlYsGABMjMzua6Tn5+PhQsXIiMjgzH94cOH2LZtG93NWBAvX75kjLtSVVVl5KcBgBMnTuDw4cPo0qUL1q9fzyrj1KlTtebB4Wb16tWszyY7OxsLFy4ERVFIT08HAIwbN67WPv19+/ZlJEoVRbNmzRj73vr16+Ht7U1f9BQWFtIN8M2bN4sUVKba6tWrsWbNGp5hkNeuXYsjR44wGvtE43H06FHs2LEDL1++RNeuXaWafuJ79eTJE3h5eSEuLg67d+/G6NGjJRpE69mzZ1xT1HDTvHlzdOjQQWJ14UdiDaDy8nL4+fnRkdZ+/vln9OvXj7Xc/v37ERcXBwDo0aMH3NzcGHcoRVEdIrOhRUkzMDDA8OHDec5PTk6Gv78/HWXI2dmZdcECVI1l8vPzQ35+Pi5evIhJkyY1uQaQs7MziouLGRd42dnZWL16NTw8PKCurl5vdYmLi8P+/fslVn5SUhJ27drFM4O9OOTk5ND7FNFwGBkZwcPDA5MnT67zuLKdO3di0aJFsLKyEmn9a9eu0Yl56yolJQXh4eGMaYMGDYKJiQnPdQYOHEjnmalWVFSEU6dO8XxKUFxcjNOnT7NysmlqakJHRwe7d+/mW8+SkhI6omfNPEHt2rVjJOLcs2cPMjIyEBERAQUFBSxZsoRr3rinT5/WmoCZm8GDB7MaEYqKirC2toafnx99w6RDhw615ocyMjLimh/q4sWLuHbtGs/1Ll26hAcPHqBDhw6YPHkyY56dnR0sLS3pBlCrVq0wf/58AKC7k1+5coXRda463x+vxLTVbty4AQcHB0YDKDc3F/7+/gCqnmz27t270Y8X6dOnD6ZNmybtatSroKAg7Nq1C48fP0bHjh15nuOioqLoNCBKSkpYvHhxgxim0Bg8ePAAW7duRVhYGNTU1GBvb8/z2pjD4cDPzw9Tp05FmzZtBN5G27ZtsXjxYvj5+dW6rL+/P1JSUgQuW5Ik1gAqKyvD9u3b6Vbgy5cvuebq8fPzoz+Mzp07i9R1JTIyErGxsfRrDQ0NeHp6sroemJmZYcyYMQgJCWFMv3fvHrp06cK6m1eTjY0Nhg4dyph29uzZWu/UV0fD6dixI3766Seeyz1//hz79u1jZAjX0tLCvXv3GHkngKpBtj4+PhLr+tQYzJgxA2VlZdizZw+ePn0KoKoBtHHjRqirq0NTUxODBg1C27ZtJbL9sLAwOuP6w4cPcezYMbGVPX78eOTn59P7zsuXL+Hr68t14DG3kO0XLlyArq4u34vJiIgIRveUrKws1nifmJgYREZG8r0rT0iWvLw8lJSU6OSQ1WxsbNCjRw+hygoMDISSkhJsbGzoadWRMGt68OABAgICYGRkJFDYf37y8/MREBDAml4zya+gLl++zDpx5uXl0YEhhGFpaYmZM2fybAC9ffsW169fR1FREdek1ubm5oyxd4cPH0ZMTAx69eqF+fPnc80hJG7V57mAgAChnhinpKRw/U7+/vtv3L59m+d6169fx65duzBu3DhWA+hb+vr6rDDi4eHhjAaWgoICFi5cCD09vVrr/G1qgaysLHh7ewMARo8eDXd3d/Ts2bPWchqy7t271zpGuaG5cuUK1+s6fkpLS3HixAmUl5dj9+7d9A1wRUVFcDgcrvtmREQETp48CV1dXUyZMqVBBMa4fPky3r9/j9jYWFhYWGDUqFHSrhLLgwcPsGPHDkbo/m89f/6cvsYsLy+Hj48PBg4cyGgAZWRkMAJwjR49Gi1atKBfGxkZwdnZWaAG0N69e+lrm65du7Ke6teneusCd/bsWZw9e5bnfHNzc55ZrhMTExlZgb/l7+9PH1i1tbXRv39/rpF3evToAW9vb+Tl5eHu3bv0iTMoKAjl5eV0IqhvT6rt2rWDq6sr5syZwyhv7dq1jCcQvFhaWsLFxQXOzs5c57969Qr79u3Djh07GNMF6QpobW3NuivaVMydOxeysrLYsmULfXe2vLycTpC3bNkyvj8ufvtUTa1bt4atrS2jm5U4w6V/a+XKlYiNjWWEkk1PTxd4wOKGDRvQuXNnugHUvHlz9O3bl3HRGRAQwPVEU1NISAjKysrQrFkzRvZ6ov6kpKRw/d4nTpzINfhFly5d0Lx5c57l1fbEAwDOnDmD6OhozJw5s84NoI8fP4ptoK0kf3M1paWl4ciRI1izZg0UFBTQr18/xMTEMJ6Ofvr0iU6QDYCeN27cODrJcmFhIaKjo9GvXz+hoilWX1TVFBMTAzMzM7Rq1YqeVlJSgnv37qG4uFio9xcdHY3o6Gih1qkpKysL0dHR9drgCAwMRGBgIGOarKws7Ozs4O3tLbUuNE3dtm3buAZm4SU/Px83btyAi4sLa799/Pgx32OFvr4+xo4dywhcJE3+/v64desWgKpxux4eHlKu0f9ER0cjPz8fBw4cwD///ENPr6iowJ07dxhje0NDQ+lrTzk5OfTr1w9aWloAqsbyvXnzBo8fP6YfKtjZ2aFv376MBlBt8vLy6Oun4uJidO/eHTo6Opg8eTJmzJghjrcslLi4uKreDB07dqQA0H/jxo2jxKGoqIjq1asXpayszCi/+k9WVpYyNTWlzM3NKXNzc2rfvn08y5o2bRrXMr7909DQoCZPnlxr3T5+/Eh16NCBUlRUrLVMAwMD6vjx41zL6dSpE991jYyMKHNzc+rw4cN867N48WKB3h+3v+Dg4FrfLz/Lly+ndHV1KQCUnZ1dncqSlhMnTlDm5uaUsbGxSJ+hpqYmZW5uTg0aNIjnNh49ekSZmJhQMjIyQpXt6enJKqtDhw6MZcaPH89axtnZmdLW1hbp/RgaGlJXr15llJeSkkKZmZlR8vLyApejq6tLmZubUzNmzKj7lyRBjx8/ZtT7/Pnz0q5SncydO1fk40FoaChdzrVr1yhDQ0Ohy9DT06PWrVtHl1NZWUmlpqZSNjY2jOWGDx/Oqru7uzulo6MjUt1v377NKOvhw4ci/eZ0dHQoNzc3iqIoKjs7m+rUqROlpKREAaD27NlDl5+QkEC1bduWkpWV5VqOsrIy1b17d6qgoIDq0qVLrb85c3NzKjAwkKIoiiosLKSuXLlCqaqqUh8/fqS36enpyVhPSUmJysjIYLzvwMBArtvw9fWlcnJyKIqqOr/evn2b9dm4urpSmZmZrO9l5syZlKampkjfS2JiIkVRFOXq6kpP69ixI/Xq1SvG38yZMykAlJqaGjV69GhWHRYtWsQoV1VVlYqOjqZKSkroZQQ9lisqKlLt27fn+l4bm7Fjx1IAqAULFki7KkL577//KDs7O9Z306pVK6q4uJjrOg8fPhT52DZmzJh6fof8TZs2jf5NTZ8+XdrVoSiKoioqKqiUlBTWNYYgf4qKipS1tTWVnZ1Nl7ds2TLWMu/eveO67fT0dMrc3JxSUFCgAFA+Pj70seHvv/+myzAxMaGioqLq6yPhyt7evqo+kmoAVevTpw+loKDA+lNXVxf44DVz5kxKTk6O5xcnJydHKSgoULNmzRKqbh06dOBat5p/V65c4bl+165d+a779OlTgeohaANIVlaWtY2///5bqPfMzbp16yig8TaAqr18+ZL1+Xy738jIyLCWmTt3rkDlp6enUyoqKrXuM9UXJXJyctSKFStY5QjSAKKoqotJBQUFro0WeXl5ntuPiYnh7qHEKwAACpNJREFUWl5JSQnVpk2bWutf/eft7S34hy9FpAH0v7+QkBCqsrKSLuvx48cCf9/Vf9u2bWPU5+vXr5Senh5rW9waQBRFUStXruS533L7q/5NRkZGsspKS0ujlJWVGRf61cd7Xn9eXl6sctq3b08BoHbt2kVVVFTQ03NycigdHR2u5dja2tLL2dracm0oVdc9NjaWXrayspK6ePEifZEvbAPo0KFDPN/b+vXrKYqiqMjISJ7LzJw5k+v34uzszPdzq/n+ah4nnz17RlEUswHE71zM6xri2wZQ9d/Dhw9Zy1Yfy79t4FWfA9u1a8d1G41RY2wAlZeXUxYWFly/T0k0gPjtV9Lk4ODQoBpA2dnZIt845fab8vLyYlxD8WsAVTMzM2MdT2oeU1JTUyX19gVW3QCSeBe4CxcucB2gKiMjI1DfX6Cq64O2tja2bt3Kdb6fnx8mTJgAVVVVoeoWHh4ODofDdxl+ORyuXLnCNwmluMNp9+/fH8HBwYxpDS3QgzSZmprizZs3jGm+vr6MroVycnK4f/8+oyuJoPtNq1at8OrVq1qXGzBgAFJSUrBhwwae3R4FsWrVKri7u+PatWus7k779u3Dzz//zHU9XvudkpISoqOjBR4z0RhCYBNMs2fPxubNm+luBR07dmT9JmojSJJmfjw8POhM47WNFQGqzgV3795Fly5dWPNat26N169fw87Oju4S6urqSndz5YZfAJSVK1ciLy8PK1asAFA1zjIhIYHrmIKa3dZCQ0Mxc+ZMVmjXZs2aISoqCpaWlvS0oKAgLFq0iGcdajNx4kSeXQ+rf5M9e/bk+b3yOp55e3vT75ub5cuX02MZO3fuTAcsEKari4ODAzZt2iTw8ryYmpri5cuX6N27Nz5+/EhP//333+Hj40NCJEtRZmYm+vTpw3X8oKTMnDmT5KSrxfPnzzF06FB8+fJFbGUuXrwYGhoaWLJkicDr3L17FxUVFXB3d2eMPTIwMEBUVBTj2kva5I8dO4b58+eLNChVEII2cvjR1tbGn3/+iXHjxnGdb25uLlJjQ5gDOzfiauC4uLhgzJgxtS6npaUlUpLOpkJeXp71+bi7u2PChAmMaZ06dYKioqLQ5cvJyQn0+Z8+fRrFxcVo27Yt10ZEUFAQY1A1r0a2pqYmNDU18euvvzIusADAyspKpASLDengQ7C5u7vTF55Dhw7F6tWra13n8+fPmDBhAoqLi5Gdnc0YLK6goFDnY4aKigouXbrEulnEKy+ZhoYGNDQ0MHz4cFYAF146d+7M9TdZ/Zv7559/6HDVbdq0Efo9BQUFwdXVFVFRUdi3bx9KS0uxdu1ayMrK8k0zUE1fXx9btmxhNSDk5ORgZWXFuCD/+vUrsrOzYWJiguPHjzM+JycnJ4wcOZJ+LSMjwxqzpaqqWutNGUVFRaE/Ay0tLbpvPzerVq2ix2Coqamxyndzc6s1SFHr1q15HpdcXV1hb2/Pms4t4aW8vDyMjY1x8eJFxk3Gli1bknOglOno6CA4OJhnIAIFBQWuAXuAqu9a0GNCTfz2K6KKoaEhI0+ZsLhF1dPQ0MD06dPpCIyCPLioTkGxfv16RqRMJSWlWiM+1jf5Ll26NIoEm4aGhjA0NJR2NSTC2Ni4TnkSCN6MjIxgZGRUr9vs2rUr3/nc7nTzo6Ojg759+9alSkQjkZiYSOe00dPTE+h7//Tpk0STbcrKyoo04F1LS0ts+21dg3B07doVGzZsgLe3N27evIljx45BVlZWqHw4goQPP3nyJI4ePQqg6oKid+/ejPnSOB4Jqm3btnyjZpqamtYp4I6w5zkZGRmhIx0SkqeoqMgzJ1Nt1NTUyLlMQpo1ayaRz7ZFixYiPSwwNzeHubm52OsjTuQ5MkEQRAMUHx+PwMBAVvTJmjIyMrB161b6Lvm0adMafThgSRk4cCBKS0shLy+Pq1evIiAggO4O6urqWucn+qdOncLOnTvx8OFDWFpa0nlwCIIgiIaHNIAIgiAaoMTERPj4+PB9uvPmzRs6ISRQNX6EZFLn7eeff4aMjAzKysoQERGBdevWAajqtjNz5kyhkv8BVYkDT58+jZKSEuzduxeysrKYPXs2OnXqBCcnJ0m8BYIgCEIMSAOIIAiigXr9+jXXfD/c9OzZk28OIKLKTz/9BBUVFRQUFNC5KVatWgU5OTn07t0bbdq0gZmZGd8ycnJyEB8fj+LiYri4uODLly+wtraGl5cXa8whQQji3bt3SEhIgLW1tbSrQggpMzMTT548Ebp7OyFdpAFEEATRQLRq1QoaGhqMpJv8KCsr04P4g4ODa71wJ6r0798fBw8exK+//gqg6uKzOsDBnDlzsGHDBlaXuKysLBQWFgKoiiA6d+5cep6BgQF8fX15RmYkiNqcO3cOHA4HISEh0q4KIaTr16+jpKQEd+7ckXZVCCGQBhBBEEQDcfToUTg6OrKy3vPSuXNnREVFSbhW3ydra2ukpKQAAGxsbJCYmAgAOHjwIHJycnD27FnG8k5OTjh//jz9WkZGBjIyMgCAixcv1hr8hCAIgmg4SAOIIAiiAdm4cSOWL18u0LK8ws0Swrl69Sqdr+7gwYPw9/dnRTzLyspivLaysqLzApHw8gRBEI0LaQARBEE0IDo6OiTBcT2r2YD5448/oKSkBC8vL9Zyrq6uGD9+PICqkL4NNaQ1QRAEwR9pABEEQRDE//vhhx8wbdo0rkn7bG1t0b59eynUiiAIghAn0gAiCIIgiBoMDQ0xY8YMaVeDIAiCkBDJpQ8nCIIgCIIgCIJoYEgDiCAIgiAIgiCIJoM0gAiCIAiCIAiCaDJIA4ggCIIgCIIgiCaDNIAIWmxsLOzs7FBRUSHtqhCEyJydnXHkyBFpV4MgCIIgiAaKFQXu7t27GDJkSL1WYsWKFRg4cGC9bpOfvLw8TJ06FSUlJRIpX1VVFcHBwdDQ0JBI+cLw9/enLxaLi4sRGxuLYcOG0RnOxeG3336Do6Oj2MoT1YcPHzBt2jSJb+fIkSNcQ+hKy6NHj7Bs2TKJlW9jYwN/f3+JlS+szMxMbNy4EcHBwRIpf/ny5Rg0aJBEypa01atX499//xV4eRMTEwQEBEiwRuKzbNkyPHr0qM7ljB8/Hk5OTmKoEUHw5+TkhHv37km7GgTRJLEaQFlZWQgPD6/XSlRWVuLvv/+u123yU1xcjGvXroHD4UikfEVFRcybNw/KysoSKV8Yd+/eRUpKCv26pKQEERERYt1GVlYWYmJixFqmKPLz8+tl33Z3d4empqbEtyOo9PR0ib7vpKQk5OfnS6z82uTk5LCmJScnIzk5WSLbq6ysxIkTJyRStqTduHEDb9++FXj5xpSQ9erVq3j37l2dy8nKykJsbKwYakQQ/F24cAHZ2dn067i4OMydO1eKNWrcWrdujb/++ovrvGfPnmHbtm1i3V7Nm0mvXr2q9+9u0qRJGDx4sEjr7t+/v0Fclwlr3bp1aNmyJd9ldu3ahbi4OJ7znzx5AgCQoSiKGjVqFEJDQ8VaSYIgCIIgCIKoDy1atMD8+fO5znv16hWOHj1azzWSrBEjRqB3794irXvq1CkkJCSIuUaSt3DhQujp6fFdJjg4GC9evKi1rP8Da3ChyPe0GYIAAAAASUVORK5CYII=;" vertex="1" parent="1">
          <mxGeometry x="297" y="105" width="839.63" height="440" as="geometry" />
        </mxCell>
        <mxCell id="7mlWn5VUBdd1nZEI_POm-3" value="" style="rounded=0;whiteSpace=wrap;html=1;fillColor=none;strokeColor=#67AB9F;strokeWidth=6;" vertex="1" parent="1">
          <mxGeometry x="298" y="95" width="840" height="80" as="geometry" />
        </mxCell>
        <mxCell id="7mlWn5VUBdd1nZEI_POm-4" value="&lt;b&gt;&lt;font color=&quot;#67ab9f&quot; style=&quot;font-size: 19px;&quot;&gt;字段名（Field&#39;s Name）&lt;/font&gt;&lt;/b&gt;" style="text;html=1;strokeColor=none;fillColor=none;align=center;verticalAlign=middle;whiteSpace=wrap;rounded=0;strokeWidth=6;" vertex="1" parent="1">
          <mxGeometry x="288.0000000000001" y="50" width="231.18" height="55" as="geometry" />
        </mxCell>
        <mxCell id="7mlWn5VUBdd1nZEI_POm-5" value="" style="rounded=0;whiteSpace=wrap;html=1;fillColor=none;strokeColor=#B5739D;strokeWidth=6;" vertex="1" parent="1">
          <mxGeometry x="908" y="85" width="120" height="460" as="geometry" />
        </mxCell>
        <mxCell id="7mlWn5VUBdd1nZEI_POm-6" value="&lt;b&gt;&lt;font color=&quot;#b5739d&quot; style=&quot;font-size: 19px;&quot;&gt;字段/列/属性（Fields/Columns/Attributions）&lt;/font&gt;&lt;/b&gt;" style="text;html=1;strokeColor=none;fillColor=none;align=center;verticalAlign=middle;whiteSpace=wrap;rounded=0;strokeWidth=6;" vertex="1" parent="1">
          <mxGeometry x="785.2099999999999" y="30" width="365.59" height="55" as="geometry" />
        </mxCell>
        <mxCell id="7mlWn5VUBdd1nZEI_POm-7" value="" style="rounded=0;whiteSpace=wrap;html=1;fillColor=none;strokeColor=#7EA6E0;strokeWidth=6;" vertex="1" parent="1">
          <mxGeometry x="296.63" y="235" width="840" height="60" as="geometry" />
        </mxCell>
        <mxCell id="7mlWn5VUBdd1nZEI_POm-8" value="&lt;b&gt;&lt;font color=&quot;#7ea6e0&quot; style=&quot;font-size: 19px;&quot;&gt;元组/记录/行（Tuples/records/rows）&lt;/font&gt;&lt;/b&gt;" style="text;html=1;strokeColor=none;fillColor=none;align=center;verticalAlign=middle;whiteSpace=wrap;rounded=0;strokeWidth=6;" vertex="1" parent="1">
          <mxGeometry x="39" y="237.5" width="300" height="55" as="geometry" />
        </mxCell>
        <mxCell id="7mlWn5VUBdd1nZEI_POm-9" value="" style="rounded=0;whiteSpace=wrap;html=1;fillColor=none;strokeColor=#FFB570;strokeWidth=6;" vertex="1" parent="1">
          <mxGeometry x="898" y="165" width="140" height="390" as="geometry" />
        </mxCell>
        <mxCell id="7mlWn5VUBdd1nZEI_POm-10" value="&lt;div style=&quot;text-align: center;&quot;&gt;&lt;b style=&quot;&quot;&gt;&lt;font color=&quot;#ffb570&quot;&gt;该字段的域（domain）&lt;/font&gt;&lt;/b&gt;&lt;/div&gt;" style="text;whiteSpace=wrap;html=1;fontSize=19;fontColor=#7EA6E0;" vertex="1" parent="1">
          <mxGeometry x="868.01" y="565" width="200" height="50" as="geometry" />
        </mxCell>
        <mxCell id="7mlWn5VUBdd1nZEI_POm-12" value="&lt;font color=&quot;#000000&quot; style=&quot;font-size: 26px;&quot;&gt;&lt;b&gt;关系数据库&lt;/b&gt;&lt;/font&gt;" style="whiteSpace=wrap;html=1;align=center;strokeColor=#000000;strokeWidth=6;fontSize=19;fontColor=#ffffff;fillColor=#D5E8D4;" vertex="1" parent="1">
          <mxGeometry x="519.18" y="1131" width="194.82" height="64" as="geometry" />
        </mxCell>
        <mxCell id="7mlWn5VUBdd1nZEI_POm-13" value="&lt;font color=&quot;#000000&quot; style=&quot;font-size: 26px;&quot;&gt;&lt;b&gt;关系模型&lt;/b&gt;&lt;/font&gt;" style="whiteSpace=wrap;html=1;align=center;strokeColor=#000000;strokeWidth=6;fontSize=19;fontColor=#67AB9F;fillColor=#D5E8D4;" vertex="1" parent="1">
          <mxGeometry x="519.18" y="1394" width="194.82" height="64" as="geometry" />
        </mxCell>
        <mxCell id="7mlWn5VUBdd1nZEI_POm-15" value="&lt;font size=&quot;1&quot; color=&quot;#000000&quot;&gt;&lt;b style=&quot;font-size: 23px;&quot;&gt;A利用B搭建&lt;/b&gt;&lt;/font&gt;" style="shape=rhombus;perimeter=rhombusPerimeter;whiteSpace=wrap;html=1;align=center;strokeColor=#000000;strokeWidth=6;fontSize=19;fontColor=#67AB9F;" vertex="1" parent="1">
          <mxGeometry x="476.59000000000003" y="1251" width="280" height="103" as="geometry" />
        </mxCell>
        <mxCell id="7mlWn5VUBdd1nZEI_POm-17" value="&lt;font size=&quot;1&quot; color=&quot;#000000&quot;&gt;&lt;b style=&quot;font-size: 26px;&quot;&gt;关系&lt;/b&gt;&lt;/font&gt;" style="whiteSpace=wrap;html=1;align=center;strokeColor=#000000;strokeWidth=6;fontSize=19;fontColor=#67AB9F;fillColor=#D5E8D4;" vertex="1" parent="1">
          <mxGeometry x="519.18" y="1657" width="194.82" height="64" as="geometry" />
        </mxCell>
        <mxCell id="7mlWn5VUBdd1nZEI_POm-18" value="&lt;font size=&quot;1&quot; color=&quot;#000000&quot;&gt;&lt;b style=&quot;font-size: 23px;&quot;&gt;A的主要结构是B&lt;/b&gt;&lt;/font&gt;" style="shape=rhombus;perimeter=rhombusPerimeter;whiteSpace=wrap;html=1;align=center;strokeColor=#000000;strokeWidth=6;fontSize=19;fontColor=#67AB9F;" vertex="1" parent="1">
          <mxGeometry x="476.59000000000003" y="1514" width="280" height="103" as="geometry" />
        </mxCell>
        <mxCell id="7mlWn5VUBdd1nZEI_POm-19" value="&lt;font style=&quot;font-size: 26px;&quot; color=&quot;#000000&quot;&gt;&lt;b&gt;关系模式&lt;/b&gt;&lt;/font&gt;" style="whiteSpace=wrap;html=1;align=center;strokeColor=#000000;strokeWidth=6;fontSize=19;fontColor=#67AB9F;fillColor=#D5E8D4;" vertex="1" parent="1">
          <mxGeometry x="196.99999999999994" y="1973" width="194.82" height="64" as="geometry" />
        </mxCell>
        <mxCell id="7mlWn5VUBdd1nZEI_POm-20" value="&lt;font style=&quot;font-size: 26px;&quot; color=&quot;#000000&quot;&gt;&lt;b&gt;关系实例&lt;/b&gt;&lt;/font&gt;" style="whiteSpace=wrap;html=1;align=center;strokeColor=#000000;strokeWidth=6;fontSize=19;fontColor=#67AB9F;fillColor=#D5E8D4;" vertex="1" parent="1">
          <mxGeometry x="870.6" y="1973" width="194.82" height="64" as="geometry" />
        </mxCell>
        <mxCell id="7mlWn5VUBdd1nZEI_POm-23" value="" style="endArrow=none;html=1;rounded=0;fontSize=19;fontColor=#67AB9F;exitX=0.5;exitY=1;exitDx=0;exitDy=0;entryX=0.5;entryY=0;entryDx=0;entryDy=0;strokeWidth=5;" edge="1" parent="1" source="7mlWn5VUBdd1nZEI_POm-12" target="7mlWn5VUBdd1nZEI_POm-15">
          <mxGeometry relative="1" as="geometry">
            <mxPoint x="771" y="1306" as="sourcePoint" />
            <mxPoint x="931" y="1306" as="targetPoint" />
          </mxGeometry>
        </mxCell>
        <mxCell id="7mlWn5VUBdd1nZEI_POm-24" value="" style="endArrow=none;html=1;rounded=0;fontSize=19;fontColor=#67AB9F;exitX=0.5;exitY=1;exitDx=0;exitDy=0;entryX=0.5;entryY=0;entryDx=0;entryDy=0;strokeWidth=5;" edge="1" parent="1" source="7mlWn5VUBdd1nZEI_POm-13" target="7mlWn5VUBdd1nZEI_POm-18">
          <mxGeometry relative="1" as="geometry">
            <mxPoint x="616.3499999999999" y="1458" as="sourcePoint" />
            <mxPoint x="616.3500000000001" y="1514" as="targetPoint" />
          </mxGeometry>
        </mxCell>
        <mxCell id="7mlWn5VUBdd1nZEI_POm-25" value="" style="endArrow=none;html=1;rounded=0;fontSize=19;fontColor=#67AB9F;exitX=0.5;exitY=1;exitDx=0;exitDy=0;entryX=0.5;entryY=0;entryDx=0;entryDy=0;strokeWidth=5;" edge="1" parent="1" source="7mlWn5VUBdd1nZEI_POm-15" target="7mlWn5VUBdd1nZEI_POm-13">
          <mxGeometry relative="1" as="geometry">
            <mxPoint x="626.5899999999999" y="1468" as="sourcePoint" />
            <mxPoint x="626.5900000000001" y="1524" as="targetPoint" />
          </mxGeometry>
        </mxCell>
        <mxCell id="7mlWn5VUBdd1nZEI_POm-26" value="" style="endArrow=none;html=1;rounded=0;fontSize=19;fontColor=#67AB9F;exitX=0.5;exitY=1;exitDx=0;exitDy=0;entryX=0.5;entryY=0;entryDx=0;entryDy=0;strokeWidth=5;" edge="1" parent="1" source="7mlWn5VUBdd1nZEI_POm-18" target="7mlWn5VUBdd1nZEI_POm-17">
          <mxGeometry relative="1" as="geometry">
            <mxPoint x="645.0000000000001" y="1615" as="sourcePoint" />
            <mxPoint x="644.9999999999999" y="1655" as="targetPoint" />
          </mxGeometry>
        </mxCell>
        <mxCell id="7mlWn5VUBdd1nZEI_POm-29" value="&lt;font style=&quot;font-size: 23px;&quot; color=&quot;#000000&quot;&gt;&lt;b&gt;A由B组成&lt;/b&gt;&lt;/font&gt;" style="shape=rhombus;perimeter=rhombusPerimeter;whiteSpace=wrap;html=1;align=center;strokeColor=#000000;strokeWidth=6;fontSize=19;fontColor=#67AB9F;" vertex="1" parent="1">
          <mxGeometry x="476.59000000000003" y="1759" width="280" height="103" as="geometry" />
        </mxCell>
        <mxCell id="7mlWn5VUBdd1nZEI_POm-30" value="" style="endArrow=none;html=1;rounded=0;fontSize=19;fontColor=#67AB9F;exitX=0.5;exitY=1;exitDx=0;exitDy=0;entryX=0.5;entryY=0;entryDx=0;entryDy=0;strokeWidth=5;" edge="1" parent="1" source="7mlWn5VUBdd1nZEI_POm-17" target="7mlWn5VUBdd1nZEI_POm-29">
          <mxGeometry relative="1" as="geometry">
            <mxPoint x="713.3100000000002" y="1733" as="sourcePoint" />
            <mxPoint x="713.3099999999997" y="1773" as="targetPoint" />
          </mxGeometry>
        </mxCell>
        <mxCell id="7mlWn5VUBdd1nZEI_POm-31" value="" style="endArrow=none;html=1;rounded=0;fontSize=19;fontColor=#67AB9F;exitX=0.5;exitY=1;exitDx=0;exitDy=0;entryX=0.5;entryY=0;entryDx=0;entryDy=0;strokeWidth=5;" edge="1" parent="1" source="7mlWn5VUBdd1nZEI_POm-29" target="7mlWn5VUBdd1nZEI_POm-19">
          <mxGeometry relative="1" as="geometry">
            <mxPoint x="626.5899999999995" y="1731" as="sourcePoint" />
            <mxPoint x="626.5900000000001" y="1769" as="targetPoint" />
          </mxGeometry>
        </mxCell>
        <mxCell id="7mlWn5VUBdd1nZEI_POm-32" value="" style="endArrow=none;html=1;rounded=0;fontSize=19;fontColor=#67AB9F;exitX=0.5;exitY=1;exitDx=0;exitDy=0;entryX=0.5;entryY=0;entryDx=0;entryDy=0;strokeWidth=5;" edge="1" parent="1" source="7mlWn5VUBdd1nZEI_POm-29" target="7mlWn5VUBdd1nZEI_POm-20">
          <mxGeometry relative="1" as="geometry">
            <mxPoint x="626.5900000000001" y="1872" as="sourcePoint" />
            <mxPoint x="431.76999999999975" y="1911" as="targetPoint" />
          </mxGeometry>
        </mxCell>
        <mxCell id="7mlWn5VUBdd1nZEI_POm-33" value="&lt;font color=&quot;#000000&quot; style=&quot;font-size: 23px;&quot;&gt;&lt;b&gt;B是A的实例化&lt;/b&gt;&lt;/font&gt;" style="shape=rhombus;perimeter=rhombusPerimeter;whiteSpace=wrap;html=1;align=center;strokeColor=#000000;strokeWidth=6;fontSize=19;fontColor=#67AB9F;" vertex="1" parent="1">
          <mxGeometry x="476.59000000000003" y="1953.5" width="280" height="103" as="geometry" />
        </mxCell>
        <mxCell id="7mlWn5VUBdd1nZEI_POm-34" value="" style="endArrow=none;html=1;rounded=0;fontSize=19;fontColor=#67AB9F;exitX=0;exitY=0.5;exitDx=0;exitDy=0;entryX=1;entryY=0.5;entryDx=0;entryDy=0;strokeWidth=5;" edge="1" parent="1" source="7mlWn5VUBdd1nZEI_POm-33" target="7mlWn5VUBdd1nZEI_POm-19">
          <mxGeometry relative="1" as="geometry">
            <mxPoint x="626.5900000000001" y="1872" as="sourcePoint" />
            <mxPoint x="304.40999999999985" y="1983.0000000000005" as="targetPoint" />
          </mxGeometry>
        </mxCell>
        <mxCell id="7mlWn5VUBdd1nZEI_POm-35" value="" style="endArrow=none;html=1;rounded=0;fontSize=19;fontColor=#67AB9F;exitX=0;exitY=0.5;exitDx=0;exitDy=0;entryX=1;entryY=0.5;entryDx=0;entryDy=0;strokeWidth=5;" edge="1" parent="1" source="7mlWn5VUBdd1nZEI_POm-20" target="7mlWn5VUBdd1nZEI_POm-33">
          <mxGeometry relative="1" as="geometry">
            <mxPoint x="486.59000000000015" y="2015.0000000000005" as="sourcePoint" />
            <mxPoint x="401.82000000000016" y="2015.0000000000005" as="targetPoint" />
          </mxGeometry>
        </mxCell>
      </root>
    </mxGraphModel>
  </diagram>
</mxfile>
